<svg xmlns="http://www.w3.org/2000/svg" id="Error404" viewBox="0 0 1080 1080">
  <path d="M949.876,587.534c-.68,4.6-1.25,7.46-1.39,8.14a201.026,201.026,0,0,1-5.95,21.87,217.947,217.947,0,0,1-16.61,37.56q-4.665,8.34-10.02,16.37-3.825,5.745-8,11.32a300.3,300.3,0,0,1-36.13,40.01q-3.93,3.66-8,7.22-10.575,9.27-22.09,17.88-2.8,2.115-5.66,4.18c-1.29.93-2.6,1.86-3.91,2.79-1.01.71-2.03,1.42-3.05,2.13-1.17.81-2.35,1.62-3.53,2.4q-12.63,8.58-26.08,16.39c-.3.18-.61.35-.91.52-1.88,1.1-3.76,2.17-5.66,3.22q-6.18,3.5-12.5,6.78c-.33.17-.66.35-1,.52q-11.79,6.165-24.02,11.73c-2.18,1-4.37,1.99-6.57,2.95q-7.89,3.48-15.93,6.73c-2.66,1.08-5.32,2.13-8,3.16q-16.1,6.225-32.59,11.48-3.81,1.215-7.64,2.37-13.845,4.215-27.83,7.72-15.57,3.915-31.18,6.93a533.156,533.156,0,0,1-81.7,9.54,546.736,546.736,0,0,1-65.47-1.68q-13.53-1.14-27.33-2.92c-17.61-2.27-35.44-5.35-53.17-9.28-1.74-.38-3.47-.78-5.21-1.18-1.56-.36-3.11-.73-4.67-1.11-.55-.12-1.1-.26-1.65-.39-1.81-.44-3.61-.89-5.42-1.35q-12.975-3.3-25.78-7.22c-1.39-.42-2.78-.85-4.16-1.28v-.01c-.81-.25-1.61-.5-2.41-.76-.38-.12-.75-.24-1.12-.36-.68-.23-1.37-.45-2.06-.68-.89-.29-1.77-.59-2.66-.89-12.03-4.01-23.87-8.47-35.36-13.38-.73-.31-1.45-.62-2.18-.94q-5.085-2.19-10.07-4.51-14.67-6.825-28.43-14.67a.055.055,0,0,1-.05-.03c-.29-.16-.58-.32-.87-.49q-9.255-5.31-17.99-11.12c-1.08-.71-2.16-1.43-3.23-2.16q-3.12-2.13-6.15-4.32-2.16-1.56-4.29-3.15c-1.58-1.18-3.14-2.37-4.69-3.59q-3.15-2.43-6.19-4.97a242.387,242.387,0,0,1-19.69-18.21q-4.14-4.275-8-8.73c-15.89-18.31-28.3-38.9-36.14-61.9-.38-1.13-.76-2.27-1.12-3.41-1-3.16-1.93-6.37-2.76-9.65l-.06-.21a198.527,198.527,0,0,1-4.06-20.24c-.84-5.62-1.45-11.34-1.83-17.11a223.244,223.244,0,0,1,.42-35.34c3.94-43.21,20.61-85.41,51.76-111.48,26.14-21.89,60.84-31.06,93.37-34.13.21-.03.43-.04.65-.06,42.17-3.89,80.55,2.43,91.64,4.46,38.6,7.09,73.58,22.37,131.63,15.84,4.66-.53,20.65-2.45,49.8-10.46.63-.17,1.27-.35,1.92-.53q4.215-1.17,8.22-2.36c82.72-24.37,101.94-51.18,150.84-63.61,3.39-.87,6.91-1.65,10.52-2.36,5.38-1.04,10.98-1.91,16.75-2.56,47.64-5.37,106.46,3.66,146.3,40.54,39.03,36.13,48.45,88.39,49.18,127.36A275.365,275.365,0,0,1,949.876,587.534Z" fill="#eb5e28" class="colore6edfa svgShape"></path>
  <path d="M829.07,757c-58.508,40.491-131.245,68.939-203.435,82.906a534.91,534.91,0,0,1-81.706,9.536,549.489,549.489,0,0,1-65.473-1.677,604.921,604.921,0,0,1-92.028-14.888c-13.1-3.188-26.1-6.841-38.884-10.977-.686-.225-1.377-.445-2.063-.675-12.954-4.254-25.678-9.006-38.021-14.272-.729-.311-1.452-.622-2.176-.938q-5.085-2.194-10.077-4.516c-26.454-12.3-50.9-27.071-71.89-44.5Z" fill="#252422" class="colord8dff3 svgShape"></path>
  <path d="M949.884 587.53c-.68 4.6-1.254 7.462-1.4 8.137-27.055 127.6-176.092 215.844-322.851 244.238 0-.5-.017-1.013-.065-1.516-.322-3.424-1.918-6.585-2.684-9.938-3.027-13.142 7.136-25.893 18.66-32.9s24.981-10.731 35.626-19.013c-5.518-4.211-1.157-13 3.82-17.835a116.287 116.287 0 0 1 41.6-25.924c-2.5-19.528 18.928-37.92 37.844-32.5a20.155 20.155 0 0 1 39.426-5.363 63.208 63.208 0 0 1 5.689-19.747c2.587-5.444 10.688-5.026 12.59.691a.8.8 0 0 0 .037.117c6.274-12.627 26-15.557 35.675-5.3-3.375-12.568 11.765-25.683 23.723-20.551-5.733-8.422-7.286-20.186-1.875-28.823s18.563-12.07 26.433-5.6c-5.593-9.537 1.452-23.766 12.429-25.1 5.6-.68 11.165 1.479 16.806 1.624A15.276 15.276 0 0 0 939.657 590 16.192 16.192 0 0 1 949.884 587.53ZM756.922 425.067c0 24.762-35.187 44.895-78.9 45.35-.509.011-1.013.011-1.522.011-3.123 0-6.2-.107-9.225-.3a48 48 0 0 1-60.351 5.3c-.236-.155-.461-.316-.691-.476.054.326.1.659.139.991v.005a25.037 25.037 0 0 1 .183 3.038c0 11.652-7.79 22.276-20.594 30.306-1.195.756-2.438 1.479-3.718 2.181-9.853 5.416-22.158 9.418-35.884 11.416l0 .006q-2.178.313-4.362.557c-1.205.139-2.416.257-3.626.364h-.006a142.242 142.242 0 0 1-33.467-1.071c0-.006 0-.006-.006-.006-.316-.048-.626-.1-.942-.15-13.694-2.212-25.9-6.418-35.552-12.032-9.874-5.738-17.079-12.949-20.481-20.99-1.313.048-2.625.085-3.954.085-1.173 0-2.341-.021-3.5-.064a93.793 93.793 0 0 1-14.283-1.58q-1.407-.265-2.78-.579h-.006a71.418 71.418 0 0 1-22.619-9.038 59.981 59.981 0 0 1-5.159 3.927 72.588 72.588 0 0 1-7.639 4.527c-.9.466-1.822.921-2.765 1.355-1.162.552-2.357 1.077-3.573 1.581h-.011c-2.052.862-4.168 1.655-6.365 2.395h0a121.884 121.884 0 0 1-38.5 5.989h-.461a41.322 41.322 0 0 1-41.081-41.375v-20.2c.215-.027.434-.043.649-.059 42.173-3.89 80.553 2.427 91.643 4.463 38.6 7.082 73.578 22.361 131.63 15.831 4.662-.525 20.648-2.449 49.8-10.458.632-.171 1.269-.348 1.918-.53q4.211-1.173 8.224-2.358c82.712-24.37 101.939-51.179 150.831-63.613q5.1-1.295 10.522-2.357a43.965 43.965 0 0 1-2.877 18.033c10.982 7.216 18.006 16.393 19.19 26.481A25.118 25.118 0 0 1 756.922 425.067Z" fill="#efe1ca" class="colorcad4ef svgShape"></path>
  <path d="M633.494,443.48s-.016.054-.043.161c-.236.8-1.35,4.581-3.424,10.677-1.462,4.292-3.4,9.735-5.855,16.1q-1.994,5.184-4.452,11.144a515.891,515.891,0,0,1-38,74.4q-.884,1.431-1.8,2.871c-5.191,8.229-10.8,16.544-16.843,24.827a.029.029,0,0,1-.011.021c-.385.53-.777,1.061-1.168,1.586-.46.627-.927,1.259-1.4,1.886q-.883,1.188-1.779,2.373s0,0-.01.011a363.716,363.716,0,0,1-42.426,47.23,541.913,541.913,0,0,0-90.014,108.675s0,0,0,.01c-.6.954-1.19,1.908-1.774,2.85C418,758.858,412.314,769,407.434,778.5v.01c-.327.627-.643,1.249-.954,1.865l0,0c-11.037,21.8-17.717,40.164-20.047,52.5-13.1-3.188-26.1-6.841-38.884-10.977-.686-.225-1.377-.445-2.063-.675-12.954-4.254-25.678-9.006-38.021-14.272-.729-.311-1.452-.622-2.176-.938q-5.085-2.194-10.077-4.516V714.714c26.959-38.777,66.577-82.713,124.6-125.8a22.056,22.056,0,0,0,8.009-23.974c-.011-.043-.027-.091-.037-.134-1.672-5.631-3.74-12.242-6.038-18.751A72.747,72.747,0,0,0,417,535.424a.022.022,0,0,1,0-.011c-.268-.509-.552-1.013-.842-1.511s-.572-1-.873-1.489c0,0,0,0,0-.011a74.117,74.117,0,0,0-15.971-18.579c-6.862-5.722-15.547-13.3-24.011-21.612l-.038-.037h0c-3.263-3.2-6.493-6.5-9.574-9.858q-4.99-5.352-9.461-11.154-1.606-2.073-3.139-4.206c-4.64-6.568-8.009-12.922-9.209-18.568a33.5,33.5,0,0,0,21.477-4.908l10.244,12.639,8.3,10.243,4.431,5.464a3.877,3.877,0,0,0,4.28,1.291,3.779,3.779,0,0,0,2.5-3.187l.8-8.052.284-2.861.45-4.49a24.022,24.022,0,0,0,6.418,3.675,36.4,36.4,0,0,0,13.908,2.6q.779,0,1.591-.032c.043,0,.086,0,.128,0h.011a47.538,47.538,0,0,0,9.241-1.334,168.782,168.782,0,0,0,6.011,17.3,79.889,79.889,0,0,0,6.51,12.847,23.814,23.814,0,0,0,5.271,6.054c2.808,2.105,6.826,7.227,11.128,13.468a.005.005,0,0,0,0,.006q.788,1.14,1.581,2.33c2.421,3.6,4.9,7.474,7.264,11.3,3.825,6.166,7.372,12.193,9.992,16.72a6.744,6.744,0,0,0,9.214,2.465,6.867,6.867,0,0,0,1.446-1.125c1.506-1.543,3.247-3.327,5.176-5.315a.026.026,0,0,1,.011-.016L492.969,534l.006,0c3.172-3.274,6.782-7.024,10.677-11.106l.29-.306c7.3-7.655,15.563-16.447,23.733-25.394q2.651-2.9,5.282-5.818c14.1-15.638,27.2-31.1,33.687-41.171,0,0,.006,0,.006-.011.418-.643.8-1.269,1.167-1.87.413-.68.782-1.333,1.115-1.955.632-.171,1.269-.348,1.918-.53q4.211-1.173,8.224-2.358Z" fill="#252422" class="colord8dff3 svgShape"></path>
  <path d="M531.86,594.983c-10.477,2.767-21.31,5.625-31.713,9.3-26.273,9.272-44.826,22.691-55.143,39.882-6.189,10.312-9.386,21.854-11.92,32.79a352.3,352.3,0,0,0-9,71.228.227.227,0,0,0,.419.125q.876-1.422,1.77-2.853l.034-.111a350.122,350.122,0,0,1,8.862-67.906c2.494-10.765,5.634-22.113,11.67-32.17,10.053-16.753,28.228-29.862,54.018-38.964,10.322-3.643,21.112-6.492,31.548-9.248,8.647-2.283,17.518-4.631,26.212-7.447l.112-.079q.9-1.186,1.782-2.375a.223.223,0,0,0-.252-.345C550.891,589.95,541.245,592.506,531.86,594.983Z" fill="#efe1ca" class="colorcad4ef svgShape"></path>
  <path d="M407.434,778.5v.01a.19.19,0,0,1-.021.054c-.3.584-.6,1.173-.9,1.757a.356.356,0,0,1-.038.054l0,0a.213.213,0,0,1-.038.032.226.226,0,0,1-.31-.075q-1.962-3.117-4.163-6.091c-2.636-3.568-6.279-8.052-11.079-11.09a27.446,27.446,0,0,0-22.555-2.764,8.842,8.842,0,0,0-5.689,5.7c-5.792,17.631-11.77,36.5-15.1,55.813-.686-.225-1.377-.445-2.063-.675,3.627-20.9,10.313-41.215,16.512-60.03l.208-.364.284-.23a29.508,29.508,0,0,1,29.547.75c5.094,3.225,8.9,7.907,11.657,11.625q1.936,2.62,3.713,5.357A.236.236,0,0,1,407.434,778.5Z" fill="#be9d64" class="color647cbe svgShape"></path>
  <path d="M610.752,449.968A272.544,272.544,0,0,1,599.8,481.116h-.006a269.462,269.462,0,0,1-13.832,28.174q-5.521,9.8-11.862,19.126-.956,1.4-1.918,2.8c-4.591,6.675-9.338,13.581-11.609,21.328a40.7,40.7,0,0,0-1.473,13.683.221.221,0,0,0,.021.08.226.226,0,0,0,.3.118q11.226-4.974,22.013-10.779a.239.239,0,0,1,.225,0,.22.22,0,0,1,.07.311q-.884,1.431-1.8,2.871a1.11,1.11,0,0,1-.085.081q-10.022,5.28-20.385,9.831a.23.23,0,0,0-.134.235,55.339,55.339,0,0,0,3.772,14.487.224.224,0,0,1-.011.193.029.029,0,0,1-.011.021c-.385.53-.777,1.061-1.168,1.586a.2.2,0,0,1-.091.075.233.233,0,0,1-.3-.118A58.113,58.113,0,0,1,557.3,569.99a.1.1,0,0,0-.017-.059.22.22,0,0,0-.289-.118,319.269,319.269,0,0,1-68.949,20.824c-1.147.2-2.293.412-3.445.611-10.2,1.8-20.749,3.659-29.342,9.262-12.483,8.144-18.687,22.544-24.687,36.473-2.422,5.626-4.929,11.444-7.827,16.817-9.328,17.305-23.642,31.293-37.491,44.82-11.052,10.8-22.48,21.971-31.309,34.759-6.23,9.032-11.282,19.061-16.168,28.747-5.207,10.329-10.586,21.012-17.438,30.591a85.391,85.391,0,0,1-12.874,14.235c-.729-.311-1.452-.622-2.176-.938a83.2,83.2,0,0,0,13.3-14.54c6.756-9.45,12.1-20.058,17.267-30.312,4.918-9.756,10.007-19.844,16.324-29,8.941-12.96,20.449-24.205,31.571-35.075,13.731-13.415,27.928-27.291,37.1-44.306,2.85-5.287,5.336-11.063,7.742-16.645,6.128-14.224,12.466-28.93,25.484-37.421,8.963-5.845,19.732-7.742,30.141-9.579q1.728-.3,3.434-.611a317.106,317.106,0,0,0,69.234-21,.223.223,0,0,0,.133-.22,42.986,42.986,0,0,1,1.5-15.364c2.368-8.074,7.211-15.124,11.894-21.934q.963-1.4,1.912-2.8,5.232-7.707,9.917-15.74,6.188-10.6,11.378-21.719,1.528-3.27,2.963-6.579h0a271.12,271.12,0,0,0,12.1-33.794.219.219,0,0,1,.279-.15l1.628.461A.228.228,0,0,1,610.752,449.968Z" fill="#efe1ca" class="colorcad4ef svgShape"></path>
  <path d="M498.592 536.758c3.079.28 6.333.5 9.655.5a47.2 47.2 0 0 0 18.3-3.2c7.715-3.23 14.058-9.233 19.654-14.53l14.168-13.407c3.494-3.308 7.455-7.056 9.482-11.935 1.917-4.607 1.9-9.766 1.894-14.314-.024-10-.061-21.272-3.522-31.5a.225.225 0 0 0-.285-.143.221.221 0 0 0-.122.1q-.54.9-1.165 1.87a.226.226 0 0 0-.026.186c2.922 9.492 2.953 19.648 2.977 29.5.01 4.347.022 9.274-1.73 13.486-1.853 4.458-5.638 8.04-8.978 11.2l-14.167 13.408c-5.733 5.422-11.656 11.03-19.009 14.109-8.635 3.615-18.46 3.313-26.932 2.541-1.809-.165-3.708-.367-5.616-.684a.226.226 0 0 0-.2.066l-1.423 1.467a.227.227 0 0 0 .008.32.229.229 0 0 0 .115.058C494.025 536.3 496.374 536.556 498.592 536.758ZM295.208 747.193a.228.228 0 0 0 .326.205 67.423 67.423 0 0 0 27.653-24.457c2.285-3.628 4.236-7.5 6.123-11.254a114.441 114.441 0 0 1 7.081-12.7c7.859-11.622 20.107-20.15 30.913-27.675l26.085-18.161c7.468-5.2 16.761-11.67 21.127-21.2 5.347-11.667 1.99-24.834-4.637-35.2a.23.23 0 0 0-.316-.067.209.209 0 0 0-.083.1l-1.185.9a.224.224 0 0 0-.133.337c6.238 9.8 9.393 22.15 4.406 33.033-4.125 9-13.15 15.282-20.4 20.332l-26.086 18.161c-10.96 7.631-23.382 16.28-31.463 28.234a115.719 115.719 0 0 0-7.222 12.937c-1.864 3.7-3.791 7.535-6.021 11.076a65.181 65.181 0 0 1-26.042 23.32.224.224 0 0 0-.123.2ZM430.88 497.508c7.512 7.34 17.5 10.951 27.306 14.277a.227.227 0 0 0 .258-.343q-.8-1.185-1.584-2.328l-.111-.084c-9.158-3.152-17.7-6.532-24.372-13.054-9.191-8.981-12.467-21.51-13.462-35a.224.224 0 0 0-.233-.207c-.574.024-1.136.034-1.69.035a.224.224 0 0 0-.224.225v.016C417.783 475.01 421.192 488.041 430.88 497.508ZM375.462 492.274q9.035-.548 18.062-.818l.105.022c8.617 4.184 15.027 10.33 18.207 17.552 2.724 6.187 3.148 13.25 3.33 19.385q.057 1.944.085 3.895l.03.1q.892 1.477 1.713 3a.226.226 0 0 0 .424-.107q-.007-3.483-.108-6.957c-.188-6.336-.63-13.645-3.51-20.185-2.862-6.5-8.144-12.161-15.189-16.419a.224.224 0 0 1 .107-.417q2.193-.043 4.383-.071c3.49-.043 6.59.038 9.175 1.434 2.694 1.456 4.535 4.241 6.188 6.969a174.688 174.688 0 0 1 18.409 41.986c1.614 5.582 2.845 11.922-.268 16.612-1.941 2.923-5.33 4.709-8.32 6.284l-.508.268c.013.043.027.089.039.132q.1.333.186.669l1.537.693c3.012-1.589 6.67-3.575 8.851-6.858 3.6-5.419 2.3-12.339.544-18.393a176.76 176.76 0 0 0-18.635-42.5c-1.806-2.979-3.835-6.032-7-7.743-3.035-1.641-6.429-1.738-10.218-1.693q-4.489.054-8.988.179l-.1-.021c-.825-.388-1.661-.766-2.522-1.119-8.139-3.336-16.832-4.805-25.383-5.993l-.2.378q.911.988 1.838 1.97l.13.068a105.561 105.561 0 0 1 19.994 4.492.226.226 0 0 1-.068.437q-6.978.271-13.959.718a.228.228 0 0 0-.211.244.225.225 0 0 0 .066.144q.807.8 1.617 1.6A.227.227 0 0 0 375.462 492.274Z" fill="#efe1ca" class="colorcad4ef svgShape"></path>
  <path d="M768.628 398.28c0 8.706-4.35 16.838-11.888 23.744-14.154 12.97-39.553 21.617-68.537 21.617h-.048c-2.229 0-4.442-.059-6.627-.161-.857-.037-1.7-.085-2.55-.139a48 48 0 0 1-61.037 4.822 26.715 26.715 0 0 1 .321 4.034c0 8.491-4.141 16.436-11.341 23.229-.182.172-.359.343-.546.515h-.006v.005a58.118 58.118 0 0 1-6.573 5.17h-.006q-1.551 1.06-3.2 2.057h0a89.8 89.8 0 0 1-18.215 8.2q-4.034 1.335-8.357 2.4-1.287.323-2.6.611h0a136.347 136.347 0 0 1-29.573 3.166q-5.158 0-10.157-.359c-24.109-1.714-44.89-9.445-57.474-20.443l-.006-.006v-.005a39.245 39.245 0 0 1-10.581-13.961c-1.312.048-2.619.085-3.948.085a91.892 91.892 0 0 1-26.722-3.846 68.106 68.106 0 0 1-16.469-7.415 61.278 61.278 0 0 1-6.038 4.517c-1.087.717-2.217 1.414-3.38 2.083a77.8 77.8 0 0 1-7.152 3.676 96.075 96.075 0 0 1-12.017 4.484q-1.012.3-2.041.594a124.479 124.479 0 0 1-25.63 4.206q-3.873.233-7.763.214a130.88 130.88 0 0 1-17.636-1.178 41.26 41.26 0 0 1-34.962-33.666c42.173-3.89 80.553 2.427 91.643 4.463 38.6 7.082 73.578 22.361 131.63 15.831 4.662-.525 20.648-2.449 49.8-10.458.632-.171 1.269-.348 1.918-.53q4.211-1.173 8.224-2.358c82.712-24.37 101.939-51.179 150.831-63.613q5.1-1.295 10.522-2.357c5.384-1.045 10.988-1.908 16.758-2.556C764.449 381.769 768.628 389.746 768.628 398.28ZM478.456 847.764c-130.452-10.9-283.137-66.8-320.087-183.019q-1.535-4.837-2.823-9.852a216.818 216.818 0 0 1-5.465-72.689 14.269 14.269 0 0 1 7.945 2.759 13.35 13.35 0 0 0 8.61 2.363c5.936-.445 11.877-3.4 17.738-2.813 11.47 1.136 18.2 18.478 11.867 30.591 8.582-8.406 22.233-4.757 27.515 5.711s3.091 25.158-3.338 35.894c12.815-6.943 28.1 8.626 23.959 24.4 10.65-13.2 31.244-10.5 37.239 4.9.016-.048.032-.1.043-.15 2.271-7.195 10.8-8.095 13.264-1.457a84.948 84.948 0 0 1 5.042 24.258c3.332-11.384 13.977-19.683 23.781-18.541s17.588 11.588 17.4 23.336c20.138-7.629 41.782 14.208 38.235 38.579a107.816 107.816 0 0 1 42.484 30.237c5 5.77 9.167 16.479 3.172 21.976 10.789 9.782 24.761 13.763 36.537 21.927A45.547 45.547 0 0 1 478.456 847.764Z" fill="#efe1ca" class="colorcad4ef svgShape"></path>
  <path d="M411.058,407.525c-33.648-7.246-69.282-21.179-85.846-51.35-5.949-10.835-8.949-24.075-4.576-35.636,5.872-15.525,23.177-23.725,39.6-26.114a97.955,97.955,0,0,1,59.846,10.49c24.938,13.349,44.935,37.852,72.944,41.8,21.426,3.017,42.227-6.89,62.864-13.392s45.882-8.692,61.4,6.391c3.709,3.606,4.328,8.4,4.686,10.357,3.027,16.5-13.317,31.641-19.227,37.117-8.067,7.473-26.8,21.593-85.435,26.322C485.761,416.052,453.589,416.684,411.058,407.525Z" fill="#eb5e28" class="colore6edfa svgShape"></path>
  <path d="M282.066 536.169H85.185a30.985 30.985 0 0 1 41.164-42.953 47.658 47.658 0 1 1 91.106 23.021C238.967 523.061 260.065 531.411 282.066 536.169ZM736.994 342.515H842.943A16.675 16.675 0 0 0 820.791 319.4a25.646 25.646 0 1 0-49.028 12.389C760.187 335.461 748.834 339.954 736.994 342.515ZM724.685 510.182H993.306a42.274 42.274 0 0 0-56.162-58.6 65.024 65.024 0 1 0-124.3 31.41C783.489 492.3 754.7 503.69 724.685 510.182Z" fill="#252422" class="colord8dff3 svgShape"></path>
  <path d="M942.536,617.544a217.947,217.947,0,0,1-16.61,37.56H155.606l-.06-.21a198.527,198.527,0,0,1-4.06-20.24c-.84-5.62-1.45-11.34-1.83-17.11Z" fill="#ad8e58" class="color589fad svgShape"></path>
  <path d="M833.526 747.644q-2.295-3.51-4.74-6.79t-6.06-8.02l-58.11-77.73-28.07-37.56-.55-.73q-8.5-11.445-13.99-16.61a18.337 18.337 0 0 0-9.77-4.88 20.9 20.9 0 0 0-3.4-.27q-22.11 0-24.56 22.49a51.538 51.538 0 0 0-.32 5.98v126.66h-7.03q-12.6 0-20.21 3.44t-7.61 15.05q0 9.5 6.22 13.83t18.65 4.33h9.98v30.44a43.416 43.416 0 0 0 .68 7.98q3.825-1.155 7.64-2.37 16.47-5.25 32.59-11.48v-24.57h54.52c.34-.17.67-.35 1-.52q6.315-3.3 12.5-6.78c1.9-1.05 3.78-2.12 5.66-3.22.3-.17.61-.34.91-.52q13.425-7.815 26.08-16.39c1.18-.78 2.36-1.59 3.53-2.4 1.02-.71 2.04-1.42 3.05-2.13 1.31-.93 2.62-1.86 3.91-2.79A36.285 36.285 0 0 0 833.526 747.644Zm-108.66 2.54V655.1l8 10.81 62.37 84.27ZM410.876 753.624q-7.62-3.435-20.21-3.44h-7.04V623.524a51.538 51.538 0 0 0-.32-5.98q-2.175-20.025-19.95-22.22a37.567 37.567 0 0 0-4.6-.27 18.594 18.594 0 0 0-13.18 5.15q-5.475 5.16-13.99 16.61l-.55.73-28.07 37.56-58.11 77.73q-3.6 4.755-6.05 8.02-2.46 3.285-4.75 6.79a32.6 32.6 0 0 0-3.43 6.71 18.438 18.438 0 0 0-1.15 6.3q0 .66.03 1.32c1.55 1.22 3.11 2.41 4.69 3.59q2.13 1.59 4.29 3.15 3.03 2.19 6.15 4.32c1.07.73 2.15 1.45 3.23 2.16q8.73 5.82 17.99 11.12c.29.17.58.33.87.49a.055.055 0 0 0 .05.03h75.94v30.44c0 1.05.03 2.07.1 3.06.89.3 1.77.6 2.66.89.69.23 1.38.45 2.06.68.37.12.74.24 1.12.36.8.26 1.6.51 2.41.76v.01c1.38.43 2.77.86 4.16 1.28q12.78 3.915 25.78 7.22 2.625-5.61 2.62-14.26v-30.44h9.98q12.435 0 18.66-4.33t6.22-13.83Q418.486 757.064 410.876 753.624Zm-138.52-3.44 70.36-95.08v95.08Z" fill="#ad8e58" class="color589fad svgShape"></path>
  <path d="M841.526 747.644q-2.295-3.51-4.74-6.79t-6.06-8.02l-58.11-77.73-28.07-37.56-.55-.73q-8.5-11.445-13.99-16.61a18.553 18.553 0 0 0-13.17-5.15 37.567 37.567 0 0 0-4.6.27q-17.775 2.19-19.96 22.22a51.538 51.538 0 0 0-.32 5.98v126.66h-7.03q-12.6 0-20.21 3.44t-7.61 15.05q0 9.5 6.22 13.83t18.65 4.33h9.98v30.44a47.126 47.126 0 0 0 .32 5.61q16.47-5.25 32.59-11.48c2.68-1.03 5.34-2.08 8-3.16v-21.41h46.52c.34-.17.67-.35 1-.52q6.315-3.3 12.5-6.78c1.9-1.05 3.78-2.12 5.66-3.22.3-.17.61-.34.91-.52q13.425-7.815 26.08-16.39c1.18-.78 2.36-1.59 3.53-2.4 1.02-.71 2.04-1.42 3.05-2.13 1.31-.93 2.62-1.86 3.91-2.79q2.85-2.07 5.66-4.18C841.636 747.814 841.586 747.734 841.526 747.644Zm-108.66 2.54V655.1l70.37 95.08ZM418.876 753.624q-7.62-3.435-20.21-3.44h-7.04V623.524a51.538 51.538 0 0 0-.32-5.98q-2.445-22.485-24.55-22.49a20.9 20.9 0 0 0-3.4.27 18.366 18.366 0 0 0-9.78 4.88q-5.475 5.16-13.99 16.61l-.55.73-28.07 37.56-58.11 77.73q-3.6 4.755-6.05 8.02-2.46 3.285-4.75 6.79a32.6 32.6 0 0 0-3.43 6.71 18.438 18.438 0 0 0-1.15 6.3 30.672 30.672 0 0 0 1.01 8.06q3.03 2.19 6.15 4.32c1.07.73 2.15 1.45 3.23 2.16q8.73 5.82 17.99 11.12c.29.17.58.33.87.49.6.02 1.22.03 1.84.03h82.15v30.44a45.2 45.2 0 0 0 .35 5.75v.01c1.38.43 2.77.86 4.16 1.28q12.78 3.915 25.78 7.22c1.81.46 3.61.91 5.42 1.35.55.13 1.1.27 1.65.39q3.555-5.94 3.55-16v-30.44h9.98q12.435 0 18.66-4.33t6.22-13.83Q426.486 757.064 418.876 753.624Zm-68.16-3.44h-70.36l62.36-84.27 8-10.81Z" fill="#cbac77" class="color77bbcb svgShape"></path>
  <path d="M195.626 609.114v120.95c-15.89-18.31-28.3-38.9-36.14-61.9-.38-1.13-.76-2.27-1.12-3.41-1-3.16-1.93-6.37-2.76-9.65l-.06-.21a198.527 198.527 0 0 1-4.06-20.24v-25.54a22.069 22.069 0 0 1 22.07-22.07 21.108 21.108 0 0 1 4 .37 22.039 22.039 0 0 1 18.07 21.7ZM907.906 609.114v73.68a300.3 300.3 0 0 1-36.13 40.01q-3.93 3.66-8 7.22V609.114a22.069 22.069 0 0 1 22.07-22.07 21.032 21.032 0 0 1 4 .37 22.044 22.044 0 0 1 18.06 21.7Z" fill="#ad8e58" class="color589fad svgShape"></path>
  <path d="M203.626 609.114v129.68q-4.14-4.275-8-8.73c-15.89-18.31-28.3-38.9-36.14-61.9v-59.05a22.06 22.06 0 0 1 18.07-21.7 21.108 21.108 0 0 1 4-.37 22.056 22.056 0 0 1 22.07 22.07ZM915.906 609.114v62.36q-3.825 5.745-8 11.32a300.3 300.3 0 0 1-36.13 40.01V609.114a22.06 22.06 0 0 1 18.07-21.7 21.032 21.032 0 0 1 4-.37 22.056 22.056 0 0 1 22.06 22.07Z" fill="#cbac77" class="color77bbcb svgShape"></path>
  <path d="M648.1,534.38l-13.75,231.53h-158.6l-6.04-48.21L453.3,734.11a48.271,48.271,0,0,1-16.119,10.81c-24.46,9.84-52.61-3.95-61.48-27.6a46.243,46.243,0,0,1-.63-30.1l26.99-88.97a86.973,86.973,0,0,1,82.08-61.71Z" fill="#d4ac68" class="color687ed4 svgShape"></path>
  <path d="M539.369,448.013l-4.814-.837A16.746,16.746,0,0,0,515.188,460.8q-.13.752-.192,1.513h0a14.018,14.018,0,0,0,12.835,15.108h0l9.214.749-4.294,52.8a25.746,25.746,0,0,0,23.574,27.749h0a25.747,25.747,0,0,0,27.793-27.127l-.7-12.264s34.4,1.744,17.822-77.793l-47.592-16.111Z" fill="#ccc5b9" class="colorffc1c2 svgShape"></path>
  <path d="M519.815,411.9s-6.394-34.915-38.537-4.058-3.214,108-27.642,120.215c0,0,57.38-11.673,49.9-77.515Z" fill="#7b5c32" class="color32477b svgShape"></path>
  <ellipse cx="514.949" cy="430.778" rx="22.818" ry="9.206" transform="rotate(-60 514.95 430.778)" fill="#fee6bc" class="colorfebccc svgShape"></ellipse>
  <path d="M602.853,449.9v.01a3.132,3.132,0,0,1-2.65,1.16c-9.64-.7-13.4-9.38-13.4-9.38-14.962,16.659-34.358,19.525-42.98,19.929a4.34,4.34,0,0,1-4.535-3.835,19.52,19.52,0,0,0-1.223-5.1,8.763,8.763,0,0,0-10.007-5.365A16.742,16.742,0,0,0,515.193,460.8c-.09.5-.16,1.01-.2,1.51-.03.38-.05.76-.05,1.14a14.017,14.017,0,0,0,12.89,13.97l4.43.36-5.777,8.091C521.678,483.6,516.2,475,511.814,466.018c-9.167-18.777,2.847-45.841,22.981-56.553,19.318-10.279,39.689-2.088,43.078-.663C603.523,409.372,608.863,443.112,602.853,449.9Z" fill="#7b5c32" class="color32477b svgShape"></path>
  <path d="M642.793,510.693s-6.322-40.7-22.686-42.367-18.614,18.39-18.614,18.39l3.31,26.937Z" fill="#ccc5b9" class="colorffc1c2 svgShape"></path>
  <path d="M637.356,468.086a11.357,11.357,0,0,0,8.558,11.06L730.7,500.918a34.517,34.517,0,0,0,8.508,1.076h.276a33.89,33.89,0,1,0-8.784-66.715L645.914,457.05a11.432,11.432,0,0,0-8.558,11.036Z" fill="#cbac77" class="color77bbcb svgShape"></path>
  <path d="M639.183,474.317a11.489,11.489,0,0,0,6.731,4.829L730.7,500.918a34.517,34.517,0,0,0,8.508,1.076h.276l17.992-30.555-118.265,2.828Z" fill="#ad8e58" class="color589fad svgShape"></path>
  <circle cx="738.872" cy="468.326" r="33.682" fill="#dcc49b" class="color9bcfdc svgShape"></circle>
  <circle cx="738.872" cy="468.326" r="27.65" fill="#7b5c32" class="color32477b svgShape"></circle>
  <path d="M757.2 480.16a1.873 1.873 0 0 0 1.663-1.008 22.983 22.983 0 0 0-8.216-30.173 1.875 1.875 0 0 0-1.984 3.182 19.23 19.23 0 0 1 6.876 25.256 1.876 1.876 0 0 0 1.661 2.743ZM744.869 490.347c.048 0 .1 0 .143 0a13.39 13.39 0 0 0 9.588-5.375 1.874 1.874 0 0 0-3.1-2.111 9.566 9.566 0 0 1-6.771 3.747 1.875 1.875 0 0 0 .138 3.744Z" fill="#fffcf2" class="colorffffff svgShape"></path>
  <path d="M552.273,468.086a11.357,11.357,0,0,0,8.558,11.06l84.783,21.772a34.517,34.517,0,0,0,8.508,1.076h.276a33.89,33.89,0,1,0-8.784-66.715L560.831,457.05a11.432,11.432,0,0,0-8.558,11.036Z" fill="#cbac77" class="color77bbcb svgShape"></path>
  <path d="M554.1,474.317a11.489,11.489,0,0,0,6.731,4.829l84.783,21.772a34.517,34.517,0,0,0,8.508,1.076h.276l17.992-30.555-118.265,2.828Z" fill="#ad8e58" class="color589fad svgShape"></path>
  <circle cx="653.789" cy="468.326" r="33.682" fill="#dcc49b" class="color9bcfdc svgShape"></circle>
  <circle cx="653.789" cy="468.326" r="27.65" fill="#7b5c32" class="color32477b svgShape"></circle>
  <path d="M672.12 480.16a1.873 1.873 0 0 0 1.663-1.008 22.983 22.983 0 0 0-8.216-30.173 1.875 1.875 0 1 0-1.984 3.182 19.232 19.232 0 0 1 6.877 25.256 1.875 1.875 0 0 0 1.66 2.743ZM659.786 490.347c.048 0 .1 0 .143 0a13.39 13.39 0 0 0 9.588-5.375 1.874 1.874 0 0 0-3.1-2.111 9.566 9.566 0 0 1-6.771 3.747 1.875 1.875 0 0 0 .138 3.744Z" fill="#fffcf2" class="colorffffff svgShape"></path>
  <path d="M568.933,482.042l-13.362,29.274-42.288-1.034s27.26-67.26,70.85-59.21C584.133,451.072,562.723,461.422,568.933,482.042Z" fill="#ccc5b9" class="colorffc1c2 svgShape"></path>
  <path d="M568.933,482.042l-13.362,29.274-42.288-1.034,27.553-3.915a24.794,24.794,0,0,0,18.959-14.016h0a55.182,55.182,0,0,0,4.8-18.038c1.941-19.518,19.535-23.241,19.535-23.241S562.723,461.422,568.933,482.042Z" fill="#eed09c" class="coloree9c9e svgShape"></path>
  <path d="M557.916,515.99l-4.371,9.99L539.2,558.81l-53.77-1.35,16.079-33.94,3.8-8.02a8.908,8.908,0,0,1,8.239-5.1l41.381.9A3.346,3.346,0,0,1,557.916,515.99Z" fill="#d4ac68" class="color687ed4 svgShape"></path>
  <path d="M520.178 465.1c-.064-.251-1.518-6.152 1.88-9.878 2.255-2.47 5.991-3.306 11.1-2.492l-.411 2.576c-4.183-.67-7.126-.109-8.756 1.666-2.454 2.675-1.3 7.439-1.286 7.486ZM583.419 519.329s-17.569 1.205-25.2-2.05a43.914 43.914 0 0 0 25.913 14.474ZM586.152 501.169l.653-2.256a80.691 80.691 0 0 0-17.737-3.047l-.137 2.344a78.237 78.237 0 0 1 17.221 2.959ZM533.251 478.547l-1.977-1.53c16.379-21.169 34.735-30.569 53.086-27.174l-.455 2.458C561.953 448.246 544.247 464.335 533.251 478.547Z" fill="#eed09c" class="coloree9c9e svgShape"></path>
  <path d="M528.158,584.041,485.366,715.56a29.439,29.439,0,0,0-1.109,13.536h0a29.437,29.437,0,0,0,26.277,24.873L634.35,765.911H475.743L469.707,717.7Z" fill="#c99248" class="color4863c9 svgShape"></path>
  <rect width="168.32" height="2.5" x="375.221" y="611.195" transform="rotate(-64.656 459.38 612.445)" fill="#c99248" class="color4863c9 svgShape"></rect>
  <rect width="180.022" height="2.501" x="415.762" y="633.977" transform="rotate(-66.378 505.777 635.228)" fill="#c99248" class="color4863c9 svgShape"></rect>
  <path d="M695.266,724.29a30.835,30.835,0,0,1-60.23-3.05l-31.18-192.72-1.71-10.58a3.719,3.719,0,0,1,3.42-4.3l47.06-3.13a3.964,3.964,0,0,1,4.15,3.18l2.54,12.84,36.41,183.8A30.638,30.638,0,0,1,695.266,724.29Z" fill="#d4ac68" class="color687ed4 svgShape"></path>
  <path d="m557.916 515.99-4.371 9.99-52.04-2.46 3.8-8.02a8.908 8.908 0 0 1 8.239-5.1l41.381.9A3.346 3.346 0 0 1 557.916 515.99ZM659.316 526.53l-55.46 1.99-1.71-10.58a3.719 3.719 0 0 1 3.42-4.3l47.06-3.13a3.964 3.964 0 0 1 4.15 3.18ZM437.176 744.92c-24.46 9.84-52.61-3.95-61.48-27.6a44.064 44.064 0 0 1 61.48 27.6ZM695.266 724.29a30.824 30.824 0 0 1-49.83 15.47 44.089 44.089 0 0 1 49.83-15.47Z" fill="#fffcf2" class="colorffffff svgShape"></path>
  <rect width="2.501" height="192.461" x="618.919" y="533.14" transform="rotate(-9.25 618.354 628.641)" fill="#c99248" class="color4863c9 svgShape"></rect>
  <path d="M610.026,491.779l-2.887,9.553a14.685,14.685,0,0,0-.664,4.366h0a3.048,3.048,0,0,0,2.906,3.044l33.412,1.951-37.99,2.96-2.946-23.972Z" fill="#eed09c" class="coloree9c9e svgShape"></path>
  <path d="M656.81,832.97q-15.57,3.915-31.18,6.93a533.156,533.156,0,0,1-81.7,9.54,546.736,546.736,0,0,1-65.47-1.68q-13.53-1.14-27.33-2.92c.29-53.28,24.61-78.93,24.61-78.93H634.35C641.68,782.2,650.09,809.3,656.81,832.97Z" fill="#7b5c32" class="color32477b svgShape"></path>
  <polygon points="475.74 765.91 642.793 787.721 634.35 765.91 475.74 765.91" fill="#403d39" class="color1f315f svgShape"></polygon>
  <path d="M518.4,654.346c2.169-45.279,21-68.146,48.8-66.814s44.348,26.021,42.184,71.174c-2.17,45.28-21.05,69.242-48.849,67.91S516.228,699.626,518.4,654.346Zm67.815,3.25c1.816-37.909-6.958-50.4-19.931-51.025s-22.9,10.977-24.718,48.886,6.905,51.5,19.878,52.12S584.4,695.505,586.213,657.6Z" fill="#fffcf2" class="colorffffff svgShape"></path>
</svg>
