<svg xmlns="http://www.w3.org/2000/svg" viewBox="314.36 310.93 497.656 501.395"><g transform="translate(1.36 .18)"><path d="m631.2,682.37c50.04,4.56,128.11,27.93,128.11,27.93l-56.99,58.09s-65.03,28.65-66.03,29.42-88.81,8.9-92.3,9.06-85.55-22.23-85.55-22.23l-42.23-27.44-35.03-32.32c36.93-28.4,142.78-43.6,142.78-43.6,0,0,32.42,11.18,105.19,1.08h2.04Z"/><polygon fill="#fffcf2" points="667.32 784.23 654.59 747.88 672.27 784.23 667.32 784.23"/><polyline fill="#fffcf2" points="444.2 775.56 466.98 744.09 448.81 778.38 442.59 778.38"/><path d="m514.16,687.49c-6.14-5.02-4.96-22.76,1.3-27.61,6.26-4.85,14.57-5.14,22.33-5.25,28.16-.39,56.32-.78,84.47-1.18,6.78-.09,13.8-.14,20.03,2.7,6.23,2.84,7.65,9.66,7,16.82-.53,5.86-1.04,10.47-6.06,13"/></g><g transform="translate(.83 .78)"><path fill="#403d39" d="m477.72,563.38c8.87,0,16.06,7.19,16.06,16.06s-7.19,16.06-16.06,16.06" opacity=".2"/><circle cx="592.66" cy="579.44" r="17.56" fill="#403d39" opacity=".2"/></g><path d="m562.98,579.43c.24.55-2.38,2.39-7.19,4.14-1.2.43-2.53.87-4,1.23-1.45.42-3.03.7-4.7,1.01-3.35.53-7.08.84-11,.74-3.92-.13-7.63-.65-10.94-1.38-1.65-.41-3.21-.78-4.63-1.28-1.44-.44-2.74-.96-3.92-1.46-4.7-2.02-7.21-4.01-6.94-4.55.3-.62,3.26.27,7.98,1.4,1.18.28,2.47.59,3.87.85,1.38.31,2.88.53,4.45.8,3.15.45,6.61.81,10.27.94,3.66.09,7.14-.07,10.31-.34,1.58-.18,3.09-.31,4.49-.54,1.41-.17,2.71-.41,3.91-.62,4.77-.86,7.78-1.58,8.05-.94Z" transform="translate(.6 -.836)"/><g transform="translate(-.244 1.267)"><path d="M474.38 473l93.27 12.39 13.25-25.94 1.94 29.81 62.18 8.9s-3.34-65.81-68.76-76.65c0 0-69.44-13.55-101.88 51.48zM621.72 506.25c.1.03.16.19.11.46-.04.28-.26.65-.66.96-.4.3-.98.53-1.67.51-.67 0-1.57-.38-1.99-1.15-.45-.72-.45-1.55-.32-2.15.14-.61.38-1.07.61-1.43.47-.71.91-1.02 1.09-.92.19.11.09.62-.07 1.35-.16.71-.38 1.73.03 2.33.29.58 1.23.67 1.79.49.58-.15.86-.53 1.09-.46zM610.17 502.53c.06-.08.26-.07.53.11.26.18.58.56.75 1.12.17.56.2 1.33-.21 2.1-.4.78-1.29 1.34-2.24 1.44-.95.1-1.93-.27-2.49-.95-.55-.67-.68-1.43-.63-2.01.06-.59.29-1.02.51-1.25.22-.23.42-.28.49-.22.18.14-.07.68.1 1.44.08.37.27.79.58 1.06.3.27.76.42 1.27.38.51-.06.94-.3 1.17-.63.25-.33.35-.78.36-1.16.01-.78-.34-1.26-.19-1.43zM612.24 514.81c.18-.06.58.53.22 1.49-.17.46-.54.95-1.1 1.31-.55.36-1.38.57-2.21.31-.83-.28-1.37-.93-1.61-1.54-.25-.62-.26-1.23-.13-1.7.27-.99.93-1.24 1.04-1.08.16.16-.03.59.05 1.2.05.59.48 1.44 1.13 1.64.65.22 1.49-.23 1.87-.68.42-.44.52-.91.74-.94zM621.45 517.44c.18.08.18.6-.43 1.02-.29.2-.71.33-1.2.3-.48-.02-1.06-.25-1.46-.76-.39-.52-.46-1.14-.36-1.6.1-.48.34-.84.61-1.08.56-.48 1.07-.34 1.1-.15.06.21-.14.47-.22.82-.1.34-.08.85.11 1.06.16.24.64.4 1 .38.36.02.66-.11.85 0zM613.27 525.88c.19-.03.49.5.11 1.29-.19.38-.54.76-1.05 1.02-.5.25-1.23.36-1.93.06-.69-.32-1.1-.93-1.25-1.47-.15-.55-.1-1.07.05-1.46.33-.81.93-.95 1.03-.78.14.17 0 .53.05 1 .02.46.32 1.11.75 1.29.41.2 1.1-.01 1.45-.31.39-.27.55-.62.78-.63zM621.5 527.63c.14.15.03.56-.5.85-.5.28-1.48.36-2.28-.32-.77-.71-.8-1.69-.58-2.23.23-.57.62-.72.79-.59.18.12.2.43.31.74.09.32.27.69.52.91.24.22.64.36.97.42.33.07.63.06.77.22z"/><path d="M619.89 414.68c.59-.15 1.65 1.35 2.3 4.15.33 1.4.5 3.1.46 5.01-.07 1.9-.36 3.99-.97 6.1-.63 2.11-1.51 4.03-2.48 5.66-1 1.62-2.06 2.97-3.1 3.96-2.06 2.01-3.76 2.7-4.18 2.25-.47-.49.35-1.99 1.53-4.24.6-1.12 1.25-2.47 1.92-3.97.64-1.51 1.27-3.19 1.82-4.99.52-1.81.89-3.56 1.17-5.18.25-1.62.43-3.1.53-4.37.23-2.53.35-4.23 1.01-4.4zM632.78 434.81c.1.66-.94 1.38-2.49 2.29-1.56.91-3.64 2.08-5.79 3.55-2.15 1.49-3.98 3-5.39 4.14-1.41 1.12-2.46 1.84-3.03 1.51-.54-.31-.49-1.68.42-3.55.9-1.86 2.73-4.16 5.35-5.96 2.62-1.8 5.42-2.69 7.48-2.86 2.07-.18 3.37.26 3.46.88z"/></g><g transform="translate(-.35 -.41)"><circle cx="506.16" cy="527.38" r="5.23"/><circle cx="562.67" cy="527.38" r="5.23"/></g><g transform="translate(-.493 .484)"><path d="M573.5 510.03c-.5.73-1.76.77-3.34.67-1.6-.12-3.57-.35-5.74-.48-2.18-.12-4.16-.11-5.76-.18-1.59-.08-2.83-.27-3.24-1.05-.4-.74.21-2.01 1.89-3.16.83-.58 1.93-1.07 3.2-1.43 1.28-.33 2.74-.51 4.27-.43 1.53.1 2.96.44 4.19.91 1.23.5 2.26 1.12 3.02 1.78 1.54 1.33 1.99 2.66 1.52 3.35zM516.03 508.96c-.41.78-1.64.99-3.23.99-1.61 0-3.6-.17-5.79-.35-2.19-.16-4.19-.3-5.78-.55-1.57-.25-2.76-.65-3.04-1.48-.28-.8.48-1.92 2.16-2.85 1.66-.93 4.27-1.57 7.14-1.35 2.87.23 5.35 1.26 6.85 2.43 1.52 1.18 2.09 2.4 1.69 3.15z"/></g><path d="m526.85,558.42c.12.3-.24.8-1.07,1.44-.84.62-2.15,1.48-4.23,1.89-1.06.19-2.28.22-3.61-.14-1.3-.33-2.82-1.21-3.78-2.63-1.01-1.42-1.36-3.24-1.27-4.84.08-1.62.51-3.11,1.07-4.52.28-.7.61-1.38.93-2,.31-.6.64-1.19.97-1.76.66-1.14,1.34-2.21,2.02-3.2,1.37-1.99,2.75-3.67,4.01-4.99,2.52-2.64,4.48-3.85,4.95-3.43.49.44-.56,2.41-2.29,5.42-.86,1.51-1.9,3.28-2.98,5.27-.54.99-1.1,2.04-1.66,3.13-.28.55-.56,1.11-.84,1.67-.27.55-.52,1.08-.74,1.63-.44,1.09-.74,2.16-.83,3.08-.09.93.03,1.64.31,2.19.5,1.11,2.09,1.73,3.5,1.81,1.45.09,2.83-.19,3.82-.28,1-.1,1.63-.05,1.76.25Z" transform="translate(-.526 .432)"/><g transform="translate(1.131 1.28)"><path d="m524.49,682.68c-.22,0-.43-2.37-.63-6.88s-.4-11.16-.59-19.72c-.08-4.28-.17-9.04-.27-14.25-.02-1.24-.04-2.51-.07-3.81-.01-.33-.02-.67-.03-1.01.07-.23-.22-.15-.36-.19l-.52-.05c-.55-.06-1.1-.12-1.67-.18-.73-.11-1.46-.26-2.21-.38-.74-.14-1.5-.25-2.24-.42-.75-.19-1.5-.37-2.26-.56-6.08-1.53-12.33-4.33-18.16-8.52-5.78-4.22-11.06-9.92-15-16.83-1.97-3.45-3.71-7.14-4.99-11.11-1.32-3.95-2.3-8.11-2.83-12.39-1.17-8.56-.85-17.51.01-26.56.44-4.53,1.03-9.1,1.63-13.72.59-4.6,1.19-9.28,1.8-14.02,1.25-9.51,2.53-19.31,3.85-29.35,1.33-10.04,2.69-20.33,4.08-30.84.35-2.63.7-5.27,1.05-7.92.38-2.6.59-5.44,1.71-8.54.56-1.53,1.42-3.12,2.67-4.48,1.26-1.36,2.77-2.33,4.24-3.02,1.48-.7,2.94-1.16,4.33-1.56,1.38-.39,2.69-.72,4.05-1.08,2.69-.74,5.42-1.35,8.15-2.01,2.75-.58,5.5-1.23,8.3-1.72,5.57-1.1,11.25-1.92,16.99-2.55,5.75-.65,11.59-.92,17.47-1,5.89,0,11.83.35,17.78,1.08,6.43.88,12.77,2.26,18.91,4.22,6.12,1.92,12.14,4.62,17.5,8.28,5.37,3.64,10.15,8.21,13.75,13.53,1.87,2.61,3.35,5.45,4.72,8.29.59,1.46,1.29,2.88,1.77,4.36l.78,2.21.66,2.23c1.74,5.95,2.6,11.99,3.05,17.92.43,5.94.42,11.81.14,17.55-.56,11.5-2.02,22.56-3.38,33.23l-5.64-.69c.47-3.68,1.11-7.48,2.53-11.16.72-1.84,1.62-3.62,2.82-5.3,1.2-1.68,2.66-3.13,4.32-4.34,1.67-1.19,3.55-2.14,5.62-2.64,2.05-.53,4.31-.54,6.38-.02,2.09.51,4,1.55,5.55,2.87,1.56,1.32,2.79,2.87,3.77,4.5,1.94,3.27,3.01,6.8,3.41,10.36.39,3.5.24,6.94-.31,10.28-1.1,6.66-3.8,12.84-7.68,17.88-.97,1.26-2,2.46-3.11,3.57-1.1,1.13-2.26,2.16-3.37,3.1-2.2,1.9-4.27,3.58-5.51,5.64-.71.96-1.17,2.15-1.69,3.27-.39,1.21-.85,2.38-1.1,3.64-.64,2.46-.94,5.03-1.22,7.53-.88,10.14-.11,19.69-.22,28.47-.23,17.38-.4,31.05-.66,40.44-.25,9.37-.53,14.42-.84,14.42-.31,0-.64-5.04-.97-14.42-.31-9.37-.69-23.12-.94-40.44-.13-8.55-1.16-18.17-.47-28.81.24-2.66.5-5.39,1.16-8.18.26-1.39.75-2.79,1.19-4.2.6-1.39,1.14-2.81,2.05-4.15,1.66-2.78,4.09-4.78,6.21-6.68,1.09-.95,2.09-1.88,3.03-2.88.95-.99,1.83-2.06,2.67-3.18,3.34-4.48,5.64-9.97,6.52-15.81.43-2.91.52-5.94.15-8.9-.35-2.88-1.3-5.79-2.8-8.22-1.5-2.44-3.63-4.33-6.1-4.88-2.44-.61-5.2.15-7.51,1.87-2.34,1.72-4.04,4.2-5.15,7.2-1.12,2.98-1.69,6.34-2.1,9.86l-5.64-.69c1.26-10.7,2.62-21.63,3.09-32.8.24-5.58.22-11.21-.22-16.84-.45-5.62-1.29-11.25-2.9-16.67-3.03-10.89-9.59-20.8-19.3-27.17-4.8-3.25-10.18-5.68-15.95-7.49-5.74-1.83-11.7-3.13-17.79-3.96-5.65-.69-11.31-1.03-16.96-1.03-5.65.07-11.27.32-16.83.94-5.56.61-11.07,1.39-16.5,2.44-2.72.47-5.41,1.1-8.09,1.65-2.67.64-5.34,1.23-7.97,1.94-1.31.35-2.66.68-3.92,1.03-1.25.35-2.41.73-3.39,1.19-2.02.95-3.08,2.08-3.84,4.11-.75,2-1.04,4.56-1.42,7.25-.37,2.65-.73,5.29-1.1,7.91-1.46,10.49-2.89,20.76-4.28,30.78-1.4,10.02-2.77,19.79-4.1,29.28-.66,4.76-1.31,9.45-1.95,14.07-.65,4.6-1.28,9.11-1.77,13.53-.95,8.83-1.36,17.39-.38,25.42.43,4.02,1.29,7.89,2.44,11.56,1.11,3.68,2.68,7.15,4.44,10.37,3.53,6.46,8.27,11.79,13.53,15.81,5.3,3.99,11.04,6.75,16.71,8.34.71.2,1.41.4,2.11.59.7.19,1.41.31,2.11.46.7.14,1.39.29,2.08.43.87.12,1.73.24,2.58.36.53.07,1.05.14,1.57.21l.78.11.19.03s.07,0,.09.02v.1s0,.4,0,.4c-.01,1.05-.02,2.08-.03,3.11-.02,1.42-.04,2.81-.07,4.17-.1,5.21-.19,9.97-.27,14.25-.19,8.56-.38,15.21-.59,19.72-.2,4.51-.41,6.88-.63,6.88Z"/><polygon points="553.14 633.14 524.49 633.14 524.49 658.17 553.14 633.14"/><path d="m628.61,566.27c.13-.43,1.77-.17,3.51-1.65.88-.72,1.64-1.74,2.14-3.2.52-1.44.76-3.22,1.02-5.22.26-2.01.61-4.09,1.45-5.91.41-.9.94-1.73,1.58-2.43.63-.68,1.33-1.19,2.02-1.55,1.39-.73,2.74-.81,3.57-.59.85.22,1.19.59,1.13.78-.13.43-1.77.18-3.51,1.66-.88.73-1.63,1.75-2.13,3.21-.52,1.44-.76,3.22-1.01,5.22-.26,2.01-.61,4.09-1.45,5.92-.41.9-.94,1.73-1.58,2.42-.63.68-1.34,1.18-2.03,1.54-1.39.72-2.74.8-3.58.57-.85-.22-1.19-.6-1.12-.79Z"/></g><path d="m812.77,566.45c-.22,0-.46-1.35-.74-3.97-.14-1.31-.28-2.94-.44-4.88-.07-.97-.15-2.01-.23-3.14-.08-1.12-.26-2.31-.4-3.59-.28-2.54-.6-5.38-.95-8.51-.41-3.12-1-6.52-1.55-10.2-1.22-7.35-3-15.76-5.46-25.09-.27-1.18-.64-2.34-1-3.53-.36-1.19-.73-2.39-1.1-3.61-.37-1.22-.74-2.45-1.12-3.7-.19-.62-.38-1.25-.57-1.89-.22-.62-.44-1.25-.67-1.88-.9-2.52-1.82-5.1-2.76-7.74-.44-1.33-.99-2.64-1.54-3.96-.55-1.33-1.1-2.67-1.66-4.02-4.53-10.8-10.06-22.3-17.28-33.9-7.15-11.62-15.75-23.48-26.03-35.01-10.27-11.54-22.23-22.76-35.92-33.04-13.66-10.32-29.14-19.57-46.18-27.18-17.02-7.6-35.59-13.68-55.37-17.14-2.47-.43-4.95-.86-7.44-1.29-2.51-.34-5.03-.62-7.56-.94-5.05-.74-10.2-.92-15.36-1.33-1.29-.12-2.59-.14-3.89-.16-1.3-.03-2.6-.05-3.91-.08-1.31-.03-2.61-.05-3.92-.08-1.31-.04-2.62-.06-3.94,0-5.26.19-10.57.19-15.88.74-10.66.67-21.37,2.45-32.12,4.62-2.67.63-5.35,1.26-8.04,1.89l-2.02.47-2,.57c-1.33.38-2.66.77-4,1.15-5.38,1.42-10.63,3.37-15.96,5.16-2.64.98-5.24,2.07-7.88,3.1-1.31.53-2.64,1.03-3.94,1.59-1.29.59-2.58,1.18-3.88,1.77-1.3.59-2.59,1.18-3.89,1.77-1.3.6-2.61,1.16-3.87,1.85-2.54,1.31-5.1,2.63-7.66,3.95-10.09,5.55-20,11.72-29.45,18.76-9.4,7.09-18.43,14.87-26.96,23.32-8.42,8.57-16.32,17.8-23.59,27.63-1.77,2.49-3.54,4.99-5.32,7.5-1.66,2.58-3.32,5.17-4.98,7.77l-1.25,1.95c-.41.65-.77,1.34-1.16,2l-2.31,4.03-2.31,4.03c-.73,1.37-1.42,2.76-2.13,4.14l-2.12,4.16-1.06,2.08c-.34.7-.64,1.42-.97,2.13-1.28,2.84-2.57,5.7-3.86,8.55-1.15,2.92-2.3,5.84-3.45,8.76l-.86,2.2-.75,2.24-1.51,4.48-1.51,4.49-1.29,4.57-1.3,4.57c-.21.76-.44,1.52-.64,2.29l-.53,2.32c-.71,3.1-1.42,6.2-2.13,9.31-.56,3.14-1.12,6.29-1.68,9.44-1.99,12.65-3.03,25.52-3.12,38.49.09,12.97,1.13,25.84,3.12,38.49.56,3.15,1.12,6.3,1.68,9.44.71,3.11,1.42,6.21,2.13,9.31l.53,2.32c.2.77.43,1.53.64,2.29l1.3,4.57,1.29,4.57,1.51,4.49,1.51,4.48.75,2.24.86,2.2c1.15,2.93,2.3,5.85,3.45,8.76,1.29,2.86,2.57,5.71,3.86,8.55.32.71.63,1.43.97,2.13l1.06,2.08,2.12,4.16c.71,1.38,1.4,2.77,2.13,4.14l2.31,4.03,2.31,4.03c.39.67.75,1.35,1.16,2l1.25,1.95c1.66,2.6,3.33,5.19,4.98,7.77,1.78,2.51,3.55,5.01,5.32,7.5,7.27,9.84,15.17,19.07,23.59,27.63,8.53,8.46,17.56,16.24,26.96,23.32,9.44,7.04,19.36,13.2,29.45,18.76,2.56,1.32,5.11,2.64,7.66,3.95,1.26.69,2.57,1.25,3.87,1.85,1.3.59,2.6,1.18,3.89,1.77,1.29.59,2.59,1.18,3.88,1.77,1.31.55,2.63,1.06,3.94,1.59,2.64,1.03,5.24,2.12,7.88,3.1,5.33,1.8,10.58,3.74,15.96,5.16,1.33.38,2.67.77,4,1.15l2,.57,2.02.47c2.69.63,5.37,1.26,8.04,1.89,10.75,2.16,21.46,3.94,32.12,4.62,5.31.55,10.62.55,15.88.74,1.31.07,2.63.04,3.94,0,1.31-.03,2.62-.05,3.92-.08,1.31-.03,2.61-.05,3.91-.08,1.3-.02,2.6-.04,3.89-.16,5.16-.41,10.31-.6,15.36-1.33,2.53-.32,5.06-.6,7.56-.94,2.49-.43,4.97-.86,7.44-1.29,19.78-3.46,38.34-9.54,55.37-17.14,17.03-7.61,32.52-16.85,46.18-27.18,13.69-10.29,25.65-21.51,35.92-33.04,10.28-11.54,18.88-23.39,26.03-35.01,7.22-11.6,12.75-23.1,17.28-33.9.56-1.35,1.11-2.69,1.66-4.02.55-1.32,1.1-2.63,1.54-3.96.94-2.64,1.86-5.22,2.76-7.74.22-.63.45-1.26.67-1.88.19-.63.38-1.26.57-1.89.38-1.25.75-2.48,1.12-3.7.37-1.22.74-2.42,1.1-3.61.36-1.19.73-2.35,1-3.53,2.47-9.33,4.25-17.74,5.46-25.09.55-3.68,1.14-7.08,1.55-10.2.35-3.13.67-5.97.95-8.51.13-1.27.32-2.46.4-3.59.08-1.12.16-2.17.23-3.14.15-1.94.3-3.57.44-4.88.28-2.62.52-3.97.74-3.97s.4,1.35.54,3.99c.07,1.32.13,2.96.19,4.92.02.98.05,2.04.07,3.18.03,1.14-.06,2.35-.09,3.64-.11,2.58-.22,5.47-.35,8.65-.22,3.18-.62,6.65-.98,10.41-.84,7.52-2.27,16.15-4.43,25.76-.23,1.21-.56,2.41-.89,3.64-.32,1.22-.65,2.46-.98,3.72-.33,1.26-.67,2.53-1.01,3.82-.17.65-.34,1.29-.52,1.95-.2.64-.41,1.29-.62,1.94-.84,2.61-1.69,5.28-2.57,8.01-.41,1.38-.93,2.73-1.45,4.1-.52,1.37-1.04,2.76-1.57,4.17-4.31,11.2-9.67,23.16-16.81,35.27-7.07,12.13-15.66,24.54-26.05,36.67-10.38,12.12-22.54,23.95-36.55,34.84-13.98,10.93-29.92,20.77-47.53,28.92-17.6,8.15-36.88,14.72-57.47,18.55-2.57.47-5.16.95-7.76,1.43-2.61.38-5.24.71-7.88,1.06-5.27.82-10.63,1.08-16.02,1.55-1.35.13-2.7.17-4.06.21-1.36.04-2.72.08-4.08.12-1.36.04-2.73.08-4.1.12-1.37.05-2.74.09-4.11.03-5.49-.15-11.04-.1-16.6-.62-11.15-.61-22.38-2.37-33.65-4.55-2.8-.64-5.61-1.27-8.43-1.91l-2.12-.48-2.1-.58c-1.4-.39-2.8-.78-4.2-1.17-5.64-1.45-11.16-3.44-16.76-5.29-2.77-1-5.51-2.13-8.28-3.19-1.38-.55-2.77-1.07-4.15-1.64-1.36-.61-2.72-1.22-4.08-1.83-1.36-.61-2.73-1.22-4.09-1.84-1.36-.62-2.75-1.2-4.07-1.91-2.68-1.36-5.36-2.73-8.06-4.1-10.62-5.76-21.06-12.17-31.01-19.51-9.91-7.39-19.42-15.51-28.42-24.36-8.88-8.96-17.22-18.62-24.89-28.94-1.87-2.62-3.74-5.24-5.61-7.87-1.78-2.69-3.51-5.43-5.27-8.15l-1.31-2.05c-.43-.69-.82-1.4-1.23-2.1l-2.44-4.23-2.44-4.24c-.77-1.44-1.5-2.9-2.25-4.35l-2.24-4.37-1.12-2.19c-.36-.74-.68-1.49-1.03-2.24-1.36-2.99-2.71-5.99-4.07-8.99-1.21-3.06-2.43-6.13-3.65-9.21l-.91-2.31-.8-2.35-1.6-4.71-1.59-4.72-1.37-4.8-1.37-4.81c-.22-.8-.47-1.6-.67-2.41l-.57-2.44c-.75-3.26-1.5-6.53-2.25-9.8-.59-3.3-1.18-6.61-1.78-9.93-2.1-13.3-3.2-26.85-3.29-40.48.09-13.64,1.19-27.18,3.29-40.48.59-3.31,1.19-6.62,1.78-9.93.75-3.27,1.5-6.54,2.25-9.8l.57-2.44c.21-.81.45-1.61.67-2.41l1.37-4.81,1.37-4.8,1.59-4.72,1.6-4.71.8-2.35.91-2.31c1.22-3.08,2.43-6.15,3.65-9.21,1.36-3,2.72-6,4.07-8.99.34-.75.67-1.5,1.03-2.24l1.12-2.19,2.24-4.37c.75-1.45,1.48-2.91,2.25-4.35l2.44-4.24,2.44-4.23c.41-.7.8-1.42,1.23-2.1l1.31-2.05c1.76-2.72,3.49-5.46,5.27-8.15,1.88-2.63,3.75-5.25,5.61-7.87,7.67-10.31,16.01-19.98,24.89-28.94,8.99-8.85,18.51-16.97,28.42-24.36,9.95-7.34,20.39-13.76,31.01-19.51,2.69-1.37,5.38-2.74,8.06-4.1,1.33-.71,2.71-1.29,4.07-1.91,1.37-.61,2.73-1.23,4.09-1.84,1.36-.61,2.72-1.22,4.08-1.83,1.37-.57,2.77-1.09,4.15-1.64,2.77-1.07,5.51-2.19,8.28-3.19,5.6-1.85,11.12-3.84,16.76-5.29,1.4-.39,2.8-.78,4.2-1.17l2.1-.58,2.12-.48c2.82-.64,5.63-1.28,8.43-1.91,11.27-2.19,22.5-3.94,33.65-4.55,5.56-.52,11.11-.48,16.6-.62,1.37-.05,2.74-.02,4.11.03,1.37.04,2.73.08,4.1.12,1.36.04,2.72.08,4.08.12,1.36.03,2.71.07,4.06.21,5.39.48,10.76.73,16.02,1.55,2.64.36,5.27.68,7.88,1.06,2.6.48,5.18.95,7.76,1.43,20.59,3.84,39.87,10.41,57.47,18.55,17.61,8.15,33.55,17.99,47.53,28.92,14.01,10.89,26.18,22.72,36.55,34.84,10.38,12.12,18.98,24.53,26.05,36.67,7.13,12.11,12.5,24.07,16.81,35.27.53,1.4,1.05,2.79,1.57,4.17.52,1.37,1.04,2.73,1.45,4.1.88,2.73,1.73,5.4,2.57,8.01.21.65.41,1.3.62,1.94.17.65.35,1.3.52,1.95.34,1.29.68,2.56,1.01,3.82.33,1.26.66,2.5.98,3.72.32,1.22.66,2.43.89,3.64,2.15,9.61,3.58,18.24,4.43,25.76.36,3.77.76,7.23.98,10.41.13,3.19.25,6.07.35,8.65.03,1.29.12,2.5.09,3.64-.03,1.14-.05,2.2-.07,3.18-.05,1.96-.12,3.6-.19,4.92-.14,2.64-.32,3.99-.54,3.99Z" transform="translate(-1.56 -4.785)"/><g transform="translate(1.336 -2.007)"><path d="m533.21,511.53c12.28-5.47,25.49-8.84,38.89-9.93,4.26-.34,8.71-.43,12.61,1.33,4.74,2.14,8,6.81,9.47,11.81,3.45,11.73-2.8,25.26-13.54,31.11-10.74,5.85-24.83,4.12-34.51-3.35s-13.42-18.76-12.93-30.97"/><path d="M550.49 516.8c-.13.82-4.43 1.01-11.27-.01-1.71-.26-3.57-.58-5.55-1.03-1.99-.4-4.09-.96-6.29-1.55-4.39-1.25-9.16-2.88-14.02-4.92-4.85-2.07-9.34-4.36-13.29-6.64-1.96-1.17-3.82-2.29-5.5-3.44-1.7-1.11-3.23-2.23-4.6-3.27-5.49-4.2-8.35-7.42-7.85-8.08 1.11-1.46 14.95 7.84 33.68 15.68 18.66 7.99 34.97 11.46 34.7 13.27zM642.4 512.96c.23.81-2.95 2.55-8.39 4.42-5.44 1.87-13.17 3.81-21.86 5.04-8.69 1.22-16.65 1.48-22.4 1.18-5.75-.3-9.28-1.09-9.29-1.93 0-1.78 13.91-3.03 30.82-5.44 16.92-2.34 30.62-4.97 31.12-3.27z"/></g><path d="m564.82,572.74c-.15-.62-.34-1.23-.58-1.84h0c-.37-.94-.83-1.84-1.4-2.67-.36-.54-.76-1.06-1.2-1.54-.07-.08-.14-.16-.21-.23,1.1,1.15-3.64,6.08-4.54,6.6-.03.01-.05.03-.08.04-.52.3-1.06.56-1.6.76-4.71,1.81-10.03.29-14.08-2.18-3.54-2.17-7.42-3.77-11.46-4.71-1.14-.26-2.19-.37-3.15-.33-.31.01-.6.04-.89.07-1.66.23-3.03.9-4.1,1.87-.83.76-1.48,1.7-1.95,2.75-.12.26-.22.52-.32.79-.06.17-.11.34-.16.52-.05-.17-.1-.35-.16-.52-.1-.27-.2-.54-.32-.79-.47-1.06-1.12-2-1.95-2.75-1.06-.97-2.44-1.64-4.1-1.87-.29-.04-.58-.06-.89-.07-.96-.04-2.01.07-3.15.33-4.04.95-7.92,2.55-11.46,4.71-4.05,2.47-9.36,3.99-14.08,2.18-.54-.21-1.08-.46-1.6-.76-.03-.01-.05-.03-.08-.04-.9-.52-5.64-5.45-4.54-6.6-.07.07-.15.15-.21.23-.44.48-.84,1-1.2,1.54-.57.84-1.03,1.73-1.4,2.67h0c-.24.61-.43,1.22-.58,1.84-.95,3.82-.35,8,2.06,11.14.92,1.19,1.97,2.23,3.12,3.15.65.53,1.34,1.01,2.06,1.45,5.04,3.09,11.48,4.19,17.47,3.82h0c.9-.05,1.77-.13,2.64-.26h0c1.17-.15,2.31-.37,3.39-.64,4.43-1.09,8.82-3.16,11.87-6.61.29-.31.55-.63.81-.97.04-.06.09-.12.13-.18,1.03-1.4,1.74-2.96,2.15-4.56.41,1.6,1.12,3.16,2.15,4.56.04.07.09.12.13.18.26.34.52.66.81.97,3.05,3.44,7.44,5.52,11.87,6.61,1.09.26,2.22.48,3.39.64h0c.87.12,1.74.21,2.64.26h0c5.99.37,12.43-.73,17.47-3.82.71-.44,1.4-.92,2.06-1.45,1.15-.92,2.2-1.96,3.12-3.15,2.42-3.14,3.02-7.32,2.06-11.14Z" transform="translate(5.806 .5)"/></svg>