<svg xmlns="http://www.w3.org/2000/svg" id="Loadingwebpage" viewBox="0 0 1080 1080">
  <path d="M945.223,561.93c-10.09,47.62-37.18,89.75-74.79,125.34-80.65,76.31-209.71,122.53-323.52,128.16q-3.135.15-6.24.27c-14.05.51-28.74.43-43.86-.27-95.76-4.45-208.41-33.78-279.52-94.5-28.88-24.65-50.91-54.48-62.18-89.92-1.02-3.23-1.97-6.51-2.82-9.86-15.91-62.04-2.76-143.1,46.29-184.17,19.8-16.58,44.52-25.87,69.49-30.72h.01a281.92,281.92,0,0,1,58.21-4.66,366.94,366.94,0,0,1,57.95,5.65c10.38,1.91,20.5,4.41,30.88,6.92h.01c5.94,1.43,11.96,2.87,18.17,4.2h.01a260.587,260.587,0,0,0,48.19,6.21,242.226,242.226,0,0,0,34.37-1.49c4.76-.54,21.35-2.54,51.72-10.99,89.72-24.98,108.58-53.14,159.05-65.97,35.62-9.06,83.72-9.67,125.78,6.45a149.6,149.6,0,0,1,42.15,24.24h.01c1.92,1.59,3.8,3.22,5.64,4.93,39.03,36.13,48.44,88.39,49.18,127.36C949.953,538.22,945.653,559.91,945.223,561.93Z" fill="#eb5e28" class="colore6edfa svgShape"></path>
  <path d="M944.585,561.927C912.446,713.514,708.137,809.561,540.028,815.7c-139.163,5.084-342.165-48.211-385.56-184.7q-1.535-4.837-2.823-9.852c141.874,38.461,294.243,38.707,435.013-3.954,120.638-36.558,239.561-102.888,362.1-108.085C949.31,538.216,945.014,559.908,944.585,561.927Z" fill="#252422" class="colord8dff3 svgShape"></path>
  <path d="M423.337,378.061c-33.648-7.246-69.282-21.178-85.846-51.35-5.949-10.835-8.949-24.074-4.576-35.635,5.872-15.526,23.177-23.726,39.6-26.115a97.959,97.959,0,0,1,59.846,10.491C457.3,288.8,477.3,313.3,505.308,317.248c21.426,3.017,42.227-6.89,62.865-13.392s45.881-8.692,61.395,6.391c3.709,3.606,4.328,8.4,4.686,10.358,3.027,16.5-13.317,31.641-19.227,37.116-8.067,7.474-26.8,21.594-85.435,26.323C498.04,386.588,465.868,387.22,423.337,378.061Z" fill="#eb5e28" class="colore6edfa svgShape"></path>
  <path d="M869.79,598.14v89.13C789.14,763.58,660.08,809.8,546.27,815.43h-50.1c-95.76-4.45-208.41-33.78-279.52-94.5V598.14Z" fill="#ebd9ba" class="colorbac7eb svgShape"></path>
  <rect width="653.143" height="7.071" x="216.646" y="598.144" fill="#c0a372" class="color7287c0 svgShape"></rect>
  <rect width="673.714" height="36" x="206.36" y="562.144" rx="10.071" fill="#efe1ca" class="colorcad4ef svgShape"></rect>
  <path d="M494.36,562.144H282.734l-16.8-171.16c-1.594-16.243,11.007-29.411,28.145-29.411H443.642c17.139,0,32.324,13.168,33.919,29.411Z" fill="#e2c79a" class="color9aade2 svgShape"></path>
  <path d="M341.406,562.144H282.734L265.777,389.376c-1.507-15.355,10.405-27.8,26.607-27.8h0c16.2,0,30.558,12.448,32.065,27.8Z" fill="#c0a372" class="color7287c0 svgShape"></path>
  <path d="M829.438,425.06c4.628-9.848.192-21.751-.561-23.437-2.106-4.718-5.4-9.312-5.666-14.157-.166-3.039,1.47-5.693,4.2-11,3.189-6.206,4.114-5.976,4.685-8.88a19.817,19.817,0,0,0-3.16-14.188,22.5,22.5,0,0,0-10.947-8.566,20.862,20.862,0,0,0-22.5,5.147c-1.507,1.575-7.084,7.4-5.986,15.833,1.184,9.087,9.028,12.984,8.377,21.583-.074.976-.177.977-2.884,7.837-6.211,15.742-6.423,17.614-6.328,19.58.37,7.7,5.236,13.368,6.648,14.9,1.826,1.981,6.475,6.387,13.157,7.335C817.726,438.357,826.022,432.327,829.438,425.06Z" fill="#caab77" class="color77bbca svgShape"></path>
  <path d="M738.105 394.139c1.838 11.04 11.458 17.578 12.918 18.421 4.092 2.365 8.987 3.8 11.842 7.581 1.8 2.385 2.087 5.753 3.066 12.153 1.156 7.564.351 8.05 1.57 10.942a18.079 18.079 0 0 0 10.4 9.823 17.3 17.3 0 0 0 12.888-.833c8.307-3.687 12.472-12.936 12.926-20.912.136-2.393.636-11.167-4.932-17.255-5.948-6.5-13.577-4.2-17.9-11.547-.488-.828-.417-.9-2.307-8.171-4.253-16.36-5.113-17.932-6.232-19.372a19.422 19.422 0 0 0-12.489-7 18.489 18.489 0 0 0-13.025 2.95C739.585 375.953 736.769 386.122 738.105 394.139ZM894.011 381A32.365 32.365 0 0 1 878.7 404.6c-4.988 3.013-11 4.889-14.187 9.491-2.9 4.187-2.656 9.5-2.618 14.393.042 5.523-.348 11.139-2.539 16.184-2.169 5-6.357 9.37-11.741 10.681-3.687.9-7.585.315-11.252-.58-11.282-2.752-22.2-9.063-27.267-19.17-5.077-10.124-2.394-24.607 7.781-30.054 7.941-4.251 19.709-3.46 24.061-11.758 1.58-3.013 1.646-6.512 1.894-9.882a83.061 83.061 0 0 1 5.543-24.1c2-5.1 4.606-10.23 8.728-14.092 4.17-3.908 10.165-6.308 15.345-4.892C883.5 343.838 895.179 370.063 894.011 381Z" fill="#caab77" class="color77bbca svgShape"></path>
  <path d="M814.323,478.43l-2.826-.592c.6-2.876,15.205-70.654,52.939-90.985l1.369,2.542C829.242,409.1,814.467,477.739,814.323,478.43Z" fill="#a58753" class="color5394a5 svgShape"></path>
  <path d="M813.911,485.592l-2.173-7.026c-.2-.63-19.839-63.159-51.616-78.562l1.26-2.6c26.75,12.966,44.575,56.192,50.742,73.318,1.208-30.928-3.916-83.872-3.971-84.448l2.873-.281c.061.627,6.1,63.06,3.53,92.271Z" fill="#a58753" class="color5394a5 svgShape"></path>
  <path d="M833.973,562.144H778.7a6.3,6.3,0,0,1-6.27-5.657l-8.845-85.945a6.3,6.3,0,0,1,6.27-6.948h72.964a6.3,6.3,0,0,1,6.27,6.948l-8.845,85.945A6.3,6.3,0,0,1,833.973,562.144Z" fill="#fee6bc" class="colorfebccc svgShape"></path>
  <polygon points="765.767 485.836 847.514 485.836 845.542 504.996 767.13 504.996 765.767 485.836" fill="#fffcf2" class="colorffffff svgShape"></polygon>
  <path d="M608.43,529.424c-6.05,13.16-18.44,23.51-37.02,25.08l-47.96,4.04-52.11,4.39L336.98,493.5a11.647,11.647,0,0,1,9.62-11.47l111.55-19.72a275.675,275.675,0,0,1,85.86-1.59l29.81,4.14C608.66,469.7,619.84,504.574,608.43,529.424Z" fill="#dbc39a" class="color9acedb svgShape"></path>
  <polygon points="342.741 493.111 351.741 485.764 423.002 484.209 429.048 492.493 342.741 493.111" fill="#ae8e57" class="color579fae svgShape"></polygon>
  <path d="M608.43 529.424c-6.05 13.16-18.44 23.51-37.02 25.08l-47.96 4.04 4.43-12.43ZM543.217 489.287l-77.476 3.206a23.906 23.906 0 0 1 17.905 7.667Z" fill="#ae8e57" class="color579fae svgShape"></path>
  <path d="M394.4,463.509l-3.918,1.871a14.881,14.881,0,0,0-7.013,19.842q.291.612.639,1.195h0a12.457,12.457,0,0,0,17.074,4.337h0l7.06-4.2,24.068,40.456a22.879,22.879,0,0,0,31.36,7.965h0a22.881,22.881,0,0,0,6.168-33.957l-6.819-8.523s25.814-16.443-27.136-65.525L393.116,439.8Z" fill="#ccc5b9" class="colorffc1c2 svgShape"></path>
  <path d="M378.544,427.587s-12.307-32.845-40.254,2.5,14.449,105.435-8.638,121.379c0,0,57.027-20.921,38.525-83.624Z" fill="#403d39" class="color32477b svgShape"></path>
  <ellipse cx="376.649" cy="446.738" rx="22.741" ry="9.47" transform="rotate(-67.588 376.652 446.739)" fill="#fee6bc" class="colorfebccc svgShape"></ellipse>
  <path d="M443.06,433.894a12.393,12.393,0,0,1-13.166-1.61c-5.326,20.169-18.469,32.773-22.718,37.516a4.848,4.848,0,0,1-7.246-.033l-3.1-3.514a4.852,4.852,0,0,0-5.734-1.163l-.613.294a14.883,14.883,0,0,0-7.01,19.84c.19.41.41.8.64,1.19a12.327,12.327,0,0,0,4.64,4.52c-18.221-9.55-25.96-45.24,4.61-68.29C424.04,399.5,450.42,430.354,443.06,433.894Z" fill="#403d39" class="color32477b svgShape"></path>
  <path d="M389.294,485.764c-.175-.148-4.267-3.675-3.723-8.123.362-2.95,2.637-5.479,6.757-7.518l1.028,2.077c-3.375,1.669-5.218,3.589-5.485,5.715-.4,3.2,2.889,6.057,2.922,6.084Z" fill="#eed09c" class="coloree9c9e svgShape"></path>
  <polygon points="443.411 472.252 441.559 470.859 447.458 463.021 435.47 453.261 436.934 451.465 450.65 462.631 443.411 472.252" fill="#eed09c" class="coloree9c9e svgShape"></polygon>
  <path d="m412.734 455.381 13.111-5.844a1.855 1.855 0 0 0 .4-3.147l-.511-.41a2.9 2.9 0 0 0-3.659.03l-10.025 8.27a.653.653 0 0 0 .682 1.1ZM447.811 435l-9.943 7.7a1.622 1.622 0 0 1-2.6-.993l-.1-.564a2.545 2.545 0 0 1 1.539-2.812l10.536-4.31a.572.572 0 0 1 .567.982ZM440.615 449.994l.069-.036 10.442-6.122a.825.825 0 1 0-.834-1.423l-10.442 6.121a.825.825 0 0 0 .765 1.46ZM419.013 461.782a.67.67 0 0 0 .07-.037l10.441-6.121a.825.825 0 1 0-.834-1.424l-10.442 6.122a.825.825 0 0 0 .765 1.46Z" fill="#403d39" class="color32477b svgShape"></path>
  <path d="M487.36,511.311h1.333a50.834,50.834,0,0,1,50.834,50.833H468.765Z" fill="#ccc5b9" class="colorffc1c2 svgShape"></path>
  <path d="M487.18,513.93l3.383,23.023a22.457,22.457,0,0,0,17.676,18.728l31.288,6.463H468.77Z" fill="#eed09c" class="coloree9c9e svgShape"></path>
  <path d="M490.074,549.287H675.646a0,0,0,0,1,0,0v12.857a0,0,0,0,1,0,0H490.074a6.429,6.429,0,0,1-6.429-6.429v0A6.429,6.429,0,0,1,490.074,549.287Z" fill="#c0a372" class="color7287c0 svgShape"></path>
  <path d="M766.837,562.144H611.232a9.64,9.64,0,0,1-9.3-12.164l29.4-108.328a9.639,9.639,0,0,1,9.3-7.115H796.238a9.64,9.64,0,0,1,9.3,12.165L776.14,555.03A9.64,9.64,0,0,1,766.837,562.144Z" fill="#c0a372" class="color7287c0 svgShape"></path>
  <path d="M776.837,562.144H621.232a9.64,9.64,0,0,1-9.3-12.164l29.4-108.328a9.639,9.639,0,0,1,9.3-7.115H806.238a9.64,9.64,0,0,1,9.3,12.165L786.14,555.03A9.64,9.64,0,0,1,776.837,562.144Z" fill="#e2c79a" class="color9aade2 svgShape"></path>
  <circle cx="718.195" cy="498.341" r="17.96" fill="#fffcf2" class="colorffffff svgShape"></circle>
  <path d="M487.36,511.314v32.23a18.186,18.186,0,0,1-.18,2.57,18.586,18.586,0,0,1-18.41,16.03H345.38a34.715,34.715,0,0,1,0-69.43H468.77A18.6,18.6,0,0,1,487.36,511.314Z" fill="#dbc39a" class="color9acedb svgShape"></path>
  <rect width="66.561" height="3" x="483.198" y="493.223" transform="rotate(-9.404 516.48 494.729)" fill="#ae8e57" class="color579fae svgShape"></rect>
  <rect width="51.999" height="3" x="336.974" y="491.612" transform="rotate(-.858 363 493.156)" fill="#ae8e57" class="color579fae svgShape"></rect>
  <path d="M488.86 511.311h-3a17.337 17.337 0 0 0-17.318-17.318h-5.523v-3h5.523A20.341 20.341 0 0 1 488.86 511.311ZM487.18 546.114a18.586 18.586 0 0 1-18.41 16.03H345.38a34.69 34.69 0 0 1-29.26-16.03Z" fill="#ae8e57" class="color579fae svgShape"></path>
  <path d="M440.854,487.118h0a.992.992,0,0,1-.622-1.2,7.305,7.305,0,0,0,.324-3.017,3.4,3.4,0,0,0-.47-1.33c.33-.2.93-.56,1.74-1a5.468,5.468,0,0,1,.69,1.9,9.142,9.142,0,0,1-.352,3.969A1.011,1.011,0,0,1,440.854,487.118Z" fill="#fffcf2" class="colorffffff svgShape"></path>
  <path d="M453.576,478.38a37.075,37.075,0,0,0-11.06,4.09c-1.011.56-1.61.94-1.63.95l-.33-.52-.75-1.16c.03-.02.12-.08.28-.17.33-.2.93-.56,1.74-1a38.537,38.537,0,0,1,11.429-4.16Z" fill="#eed09c" class="coloree9c9e svgShape"></path>
  <path d="m475.137 437.124 4.15-11.86-5.587 1.781a.969.969 0 0 1-1.245-.566h0a.969.969 0 0 1 .687-1.182l7.618-2.428a.971.971 0 0 1 1.247.568h0a.861.861 0 0 1-.01.547l-4.153 11.86 6.651-2.12a.969.969 0 0 1 1.244.567h0a.969.969 0 0 1-.687 1.182l-8.678 2.766a.972.972 0 0 1-1.248-.568h0A.861.861 0 0 1 475.137 437.124ZM494.205 415.5l17.584-.874-5.262-6.312a1.358 1.358 0 0 1 .079-1.914h0a1.358 1.358 0 0 1 1.9.267l7.173 8.606a1.363 1.363 0 0 1-.079 1.92h0a1.217 1.217 0 0 1-.716.275l-17.587.871 6.262 7.513a1.358 1.358 0 0 1-.078 1.914h0a1.358 1.358 0 0 1-1.9-.268l-8.171-9.8a1.361 1.361 0 0 1 .078-1.919h0A1.2 1.2 0 0 1 494.205 415.5ZM499.853 386.4l20.935-11.548-10.183-4.566a1.846 1.846 0 0 1-1.045-2.383h0a1.845 1.845 0 0 1 2.474-.8l13.883 6.225a1.85 1.85 0 0 1 1.048 2.389h0a1.639 1.639 0 0 1-.71.763l-20.94 11.546 12.119 5.435a1.843 1.843 0 0 1 1.045 2.382h0a1.843 1.843 0 0 1-2.473.8l-15.815-7.091a1.85 1.85 0 0 1-1.048-2.39h0A1.631 1.631 0 0 1 499.853 386.4Z" fill="#403d39" class="color32477b svgShape"></path>
</svg>
