<svg xmlns="http://www.w3.org/2000/svg" id="NoResultSearch" viewBox="0 0 1080 1080">
  <path d="M942.68,596.73c-.72,4.92-1.33,7.98-1.48,8.68a208.775,208.775,0,0,1-18.1,51.03v.01q-3.51,6.945-7.51,13.69a261.882,261.882,0,0,1-26.61,36.95q-9.045,10.575-19.28,20.5c-29.54,28.74-65.93,53.32-105.86,73.2q-11.25,5.61-22.86,10.7a574.257,574.257,0,0,1-75.46,26.97q-7.995,2.25-16.02,4.26c-9.29,2.34-18.62,4.44-27.93,6.29q-18.87,3.765-37.6,6.2c-15.97,2.08-31.8,3.4-47.32,3.97a538.616,538.616,0,0,1-55.58-.94c-9.49-.62-19.12-1.5-28.83-2.63a.085.085,0,0,1-.07,0q-12.915-1.485-26-3.56c-2.38-.38-4.76-.78-7.15-1.18-16.15-2.77-32.35-6.23-48.38-10.4-.29-.07-.58-.14-.87-.23a4.209,4.209,0,0,1-.48-.12q-.675-.165-1.35-.36c-14.28-3.78-28.39-8.13-42.19-13.07-9.71-3.47-19.27-7.24-28.6-11.31q-6.66-2.895-13.15-6-5.94-2.835-11.74-5.85c-22.81-11.84-43.79-25.69-61.92-41.65a231.737,231.737,0,0,1-23.02-23.27,191.362,191.362,0,0,1-27.17-41.34,172.869,172.869,0,0,1-9.06-22.78q-1.545-4.845-2.83-9.86a210.678,210.678,0,0,1-6.32-46.62q-.15-5.655,0-11.36a217.931,217.931,0,0,1,4.55-39.38c7.19-34.15,22.9-65.74,48.07-86.81,43.34-36.3,110.25-37.62,151.7-34.16,16.15,1.35,28.44,3.42,33.96,4.44,8.21,1.51,16.25,3.38,24.38,5.34,30.13,7.25,61.53,15.63,107.25,10.49,4.76-.54,21.35-2.54,51.72-10.99a448.98,448.98,0,0,0,66.31-23.71c.96-.44,1.91-.87,2.85-1.3,2.43-1.13,4.77-2.24,7.06-3.35.58-.28,1.17-.57,1.74-.85,4.61-2.26,8.96-4.49,13.12-6.67h.02c.15-.08.29-.16.44-.24.57-.3,1.13-.59,1.69-.89a.827.827,0,0,0,.16-.09c6.06-3.19,11.75-6.28,17.31-9.21,1.15-.61,2.3-1.21,3.44-1.8.8-.41,1.6-.83,2.4-1.23.55-.28,1.1-.56,1.64-.84h.01c3.34-1.68,6.66-3.3,10.05-4.84,5.27-2.41,10.68-4.63,16.44-6.63,4.54-1.59,9.29-3.03,14.37-4.32,50.36-12.81,125.67-8.72,173.58,35.62,39.02,36.13,48.44,88.39,49.18,127.37A277.126,277.126,0,0,1,942.68,596.73Z" fill="#eb5e28" class="colore6edfa svgShape"></path>
  <path d="M621.566 569.17V849.01a533.833 533.833 0 0 1-84.92 10.17c-73.02 2.67-163.61-10.73-239.5-43.79a389.493 389.493 0 0 1-36.87-18.36c-.01 0-.01-.01-.02-.01q-10.845-6.165-21.01-12.98-9.285-6.225-17.91-13.01-5.655-4.47-11-9.17c-27.44-24.15-48.37-53.14-59.25-87.37-1.02-3.23-1.97-6.51-2.82-9.85a210.252 210.252 0 0 1-6.33-46.62V606.65a217.822 217.822 0 0 1 4.55-39.37h73.3V668.35h12.55V466.83h77.85V770.05H357.9V519.57l185.83 92.91V569.17a36.419 36.419 0 0 1 36.42-36.42h5A36.419 36.419 0 0 1 621.566 569.17ZM942.675 566.965v29.771c-.712 4.913-1.323 7.972-1.473 8.674C916.065 723.974 785.6 808.561 649.5 842.725V496.966h77.843V758.122H739.9V601.456l77.842-34.18v-.311a62.465 62.465 0 1 1 124.929 0Z" fill="#252422" class="colord8dff3 svgShape"></path>
  <path d="M915.593 670.137a261.62 261.62 0 0 1-26.615 36.95V685c0-8.213 11.245-14.867 25.121-14.867ZM426.171 852.046q-3.569-.562-7.147-1.179A559.013 559.013 0 0 1 325.752 826.7L371.237 704.67Z" fill="#ccc5b9" class="colorbdcfd3 svgShape"></path>
  <path d="M284 809.385c-38.074-18.178-71.762-41.611-96.679-70.776l35.15-94.3ZM923.1 656.448q-3.5 6.951-7.506 13.688a261.765 261.765 0 0 1-26.616 36.95q-9.048 10.575-19.275 20.5c-52.583 51.147-126.831 89.12-204.186 110.877q-7.988 2.241-16.013 4.259-13.943 3.5-27.939 6.289-18.861 3.762-37.6 6.2a50.389 50.389 0 0 1 5.727-4.072c11.524-7.013 24.987-10.73 35.632-19.013-5.518-4.211-1.157-13 3.82-17.835a116.324 116.324 0 0 1 41.6-25.924c-2.5-19.522 18.932-37.92 37.849-32.5a20.154 20.154 0 0 1 39.425-5.363 63.076 63.076 0 0 1 5.69-19.747c2.587-5.443 10.683-5.026 12.59.7a.827.827 0 0 0 .037.113c6.274-12.622 26-15.558 35.675-5.3-3.375-12.568 11.765-25.683 23.723-20.551-5.738-8.422-7.287-20.186-1.876-28.822s18.558-12.07 26.434-5.6c-5.593-9.536 1.451-23.765 12.429-25.1 5.6-.681 11.159 1.478 16.806 1.623a15.335 15.335 0 0 0 8.288-2.218c6.246-3.949 14.416-3.359 19.4 2.095a40.449 40.449 0 0 1 7.752 12.986C917.774 659.352 920.459 657.884 923.1 656.448Z" fill="#efe1ca" class="colorcad4ef svgShape"></path>
  <path d="M413.067,410.655c-33.649-7.246-69.282-21.178-85.847-51.35-5.949-10.835-8.949-24.074-4.576-35.635,5.873-15.526,23.178-23.726,39.6-26.115a97.966,97.966,0,0,1,59.846,10.491c24.937,13.348,44.935,37.852,72.943,41.8,21.426,3.017,42.227-6.89,62.865-13.391s45.881-8.693,61.395,6.39c3.709,3.606,4.328,8.4,4.687,10.358,3.026,16.5-13.317,31.641-19.228,37.116-8.066,7.474-26.8,21.594-85.435,26.323C487.77,419.182,455.6,419.814,413.067,410.655Z" fill="#eb5e28" class="colore6edfa svgShape"></path>
  <path d="M332.171,411.3H135.29a30.984,30.984,0,0,1,41.163-42.952,47.658,47.658,0,1,1,91.107,23.021C289.072,398.2,310.17,406.545,332.171,411.3Z" fill="#ebe7da" class="colordae8eb svgShape"></path>
  <path d="M754.3,472.925H860.246A16.673,16.673,0,0,0,838.1,449.811,25.647,25.647,0,1,0,789.067,462.2C777.491,465.871,766.137,470.364,754.3,472.925Z" fill="#252422" class="colord8dff3 svgShape"></path>
  <path d="M657.553,339H926.174a42.275,42.275,0,0,0-56.162-58.6,65.024,65.024,0,1,0-124.3,31.41C716.357,321.117,687.571,332.509,657.553,339Z" fill="#ebe7da" class="colordae8eb svgShape"></path>
  <path d="M501.28,859.17l-.28.06c-3.09-.1-6.21-.22-9.34-.37-1.43-.07-2.87-.15-4.31-.23-1.27-.07-2.54-.14-3.81-.22-1.8-.11-3.61-.23-5.42-.36q-3.255-.24-6.52-.51c-1.14-.09-2.28-.19-3.43-.29-2.06-.18-4.12-.38-6.19-.58-1.38-.14-2.76-.28-4.15-.43q-3.465-.36-6.93-.77-6.945-.81-13.94-1.81c-1.03-.14-2.05-.29-3.07-.44q-3.855-.555-7.72-1.17c-1.19-.19-2.38-.39-3.57-.58s-2.38-.4-3.58-.6c-1.04-.18-2.07-.36-3.11-.55q-7.86-1.38-15.71-2.99l-1.13-.24c-.83-.17-1.67-.34-2.5-.52q-4.23-.885-8.46-1.85c-1.67-.38-3.33-.76-4.99-1.16-1.15-.26-2.3-.54-3.45-.82-1.41-.34-2.81-.68-4.22-1.04s-2.8-.7-4.2-1.07-2.8-.73-4.2-1.1c-2.8-.75-5.59-1.51-8.37-2.31-1.36-.38-2.73-.78-4.09-1.18q-2.13-.615-4.26-1.26-10.35-3.12-20.53-6.67c-.62-.21-1.24-.43-1.86-.64l-2.19-.78q-6.915-2.475-13.71-5.14v-.01c-1.02-.39-2.03-.79-3.04-1.2-.24-.1-.47-.19-.7-.29-1.4-.56-2.79-1.13-4.18-1.7q-2.475-1.035-4.93-2.08c-.27-.11-.54-.23-.8-.35l12.48-.01h.55l.23.01h.01l84.74-.02h.01l1.39-.01h2.25l15.45-.01h.03l1.44.01h.24l51.12-.01,11.5-.01h2.51l1.11.01h.61l11.46-.01h1.28v.05l1.81,17.4,1.8,17.41.01.07v.04l.16,1.63v.01Z" fill="#7b5c32" class="color32477b svgShape"></path>
  <path d="M496.79,815.87l-5.46.4-7.89.58-3.62.26-61.91,4.54-3.63.27-14.2,1.04-3.63.27-66.65,4.88c-.62-.21-1.24-.43-1.86-.64l-2.19-.78q-6.915-2.475-13.71-5.14v-.01c-1.02-.39-2.03-.79-3.04-1.2-.24-.1-.47-.19-.7-.29-1.4-.56-2.79-1.13-4.18-1.7q-2.475-1.035-4.93-2.08c-.27-.11-.54-.23-.8-.35l12.48-.01h.78l84.76-.02h20.8l51.12-.01,11.5-.01Z" fill="#403d39" class="color1b2c58 svgShape"></path>
  <path d="M400.2,847.33c-1.21-.25-2.42-.5-3.63-.76l-.12-23.34-.04-6.96v-.46l3.63.02v.44l.04,6.69.07,14.28.02,3.72Z" fill="#403d39" class="color1b2c58 svgShape"></path>
  <path d="M404.37 841.4a12.336 12.336 0 0 0 8.943-3.239c7.163-6.849 3.966-21.979 3.827-22.62l-3.549.747c.03.137 2.9 13.779-2.8 19.224-2.518 2.4-6.552 2.874-11.99 1.395l-.919 3.521A25.283 25.283 0 0 0 404.37 841.4ZM312.04 821.54c-1.25-.48-2.5-.98-3.74-1.49-.1-2.13-.26-3.54-.28-3.78a.1.1 0 0 1-.01-.04l2.86-.32h.04l.73-.08c0 .02.01.05.01.08v.01c.01.08.03.19.04.35C311.79 817.1 311.97 819 312.04 821.54ZM497.559 852.776a15.475 15.475 0 0 0 3.2-.335l-.737-3.554a9.118 9.118 0 0 1-8.195-1.868c-8.816-7.436-8.386-30.944-8.381-31.181l-3.611-.108c-.023 1.038-.457 25.517 9.689 34.068A12.223 12.223 0 0 0 497.559 852.776Z" fill="#403d39" class="color1b2c58 svgShape"></path>
  <path d="M558.356,695.26h-60.5l-.07,7.37-.1,11.72-.02,2.47-.07,7.56-.01,1.38-.16,18.34-.03,2.48-.11,12.76v.01l-.05,6.34-.07,8.17-.02,2.47-.07,7.39-.14,15.83v.15l-.04,3.92-.02,2.47-.07,8.07-.01,1.71v.4H299.186c-.27-.11-.54-.23-.8-.35h-.01q-4.335-1.86-8.58-3.82V698.44h-83.86l.26-2.75.26-2.63,2.78-29.11.26-2.65,2.78-29.1.25-2.64.79-8.2a110.261,110.261,0,0,1,4.62-22.77c.34-1.08.69-2.16,1.07-3.23q.375-1.08.78-2.16a109.6,109.6,0,0,1,12.55-24.09q2.565-3.72,5.42-7.21c.42-.52.85-1.03,1.29-1.54A109.516,109.516,0,0,1,255.2,544.8c.54-.44,1.09-.86,1.65-1.28a110.082,110.082,0,0,1,30.78-16.38c.5-.18,1.01-.35,1.52-.51a111.1,111.1,0,0,1,34.43-5.47h157.34a68.635,68.635,0,0,1,29.52,6.64c.68.32,1.36.66,2.03,1.01a.086.086,0,0,1,.06.03,69.02,69.02,0,0,1,31.72,34.1,66.474,66.474,0,0,1,2.9,8.17c.2.68.38,1.37.56,2.06a69.314,69.314,0,0,1,1.88,11.44l1.08,13.56.18,2.33.19,2.37v.07l1.84,23.21.19,2.33.24,3.09v.01l.05.56,1.74,22,.19,2.32,2.03,25.67.18,2.32Z" fill="#cbac77" class="color77bbcb svgShape"></path>
  <path d="M496.81,814.16l-12.7,1.71-.05.01-.61.08-2.28.31H299.19c-.27-.11-.54-.23-.8-.35h-.01q-4.335-1.86-8.58-3.82V751.66l6.26-8.3,2.75,20.19a44.033,44.033,0,0,0,40.09,37.93Z" fill="#ae8e57" class="color579fae svgShape"></path>
  <path d="M399.3,406.244,448.921,426.3c12.747,85.594-23.723,81.629-23.723,81.629l-.009,13.084a27.42,27.42,0,0,1-31.218,27.141h0A27.423,27.423,0,0,1,370.6,517.2l7.805-55.88-9.751-1.362h0A14.931,14.931,0,0,1,355.936,443.1h0q.113-.8.3-1.6a17.835,17.835,0,0,1,21.43-13.3l5.068,1.185Z" fill="#ffe8c1" class="colorffc1c2 svgShape"></path>
  <path d="M364,445.852c-.011-.051-.947-5.187,1.826-7.882,1.842-1.788,5.006-2.2,9.413-1.234l.6-2.714c-5.381-1.179-9.405-.519-11.954,1.969-3.842,3.753-2.658,10.118-2.605,10.388Z" fill="#eed09c" class="coloree9c9e svgShape"></path>
  <polygon points="440.147 470.45 433.077 450.464 430.459 451.389 436.637 468.856 425.71 473.198 426.735 475.778 440.147 470.45" fill="#eed09c" class="coloree9c9e svgShape"></polygon>
  <path d="M442.445 451.191c.006 1.969.945 3.567 2.092 3.566s2.075-1.611 2.07-3.58a5.408 5.408 0 0 0-.121-1.156 4 4 0 0 0-.605-1.541 19.636 19.636 0 0 0-2.55-.214 3.571 3.571 0 0 0-.69 1.395A5.793 5.793 0 0 0 442.445 451.191ZM404.818 437.106a.782.782 0 0 1 .7-.858L421 434.54a3.48 3.48 0 0 1 3.689 2.372l.243.746a2.224 2.224 0 0 1-2.47 2.892l-16.984-2.75A.783.783 0 0 1 404.818 437.106ZM454.657 439.841a.684.684 0 0 0-.544-.8l-13.4-2.6a3.049 3.049 0 0 0-3.389 1.808l-.267.634a1.944 1.944 0 0 0 1.951 2.7l15.024-1.188A.684.684 0 0 0 454.657 439.841Z" fill="#7b5c32" class="color32477b svgShape"></path>
  <path d="M425.19,521.18a46.771,46.771,0,0,1-26.667-16.98c7.918,3.929,26.675,3.726,26.675,3.726Z" fill="#eed09c" class="coloree9c9e svgShape"></path>
  <path d="M527.35,372.17a20.057,20.057,0,0,0-13.37-1.22,3.825,3.825,0,0,0-2.63,5.19l.03.07a3.888,3.888,0,0,0,4.44,2.24,10.761,10.761,0,0,1,6.96.66c4.09,1.9,5.27,5.57,3.53,9.33-2.81,6.06-13.39,6.2-18.85,13.56a4.506,4.506,0,0,0,1.74,6.77,4.437,4.437,0,0,0,5.5-1.39c5.09-7.21,16.58-6.54,20.74-15.48C539.44,383.3,535.64,376.02,527.35,372.17ZM506.52,414.4a6.826,6.826,0,1,0,3.01,8.96A6.538,6.538,0,0,0,506.52,414.4Z" fill="#7b5c32" class="color32477b svgShape"></path>
  <path d="M429.218,488.783l.833-2.359a86.037,86.037,0,0,0-18.674-4.329l-.29,2.485a83.281,83.281,0,0,1,18.131,4.2Z" fill="#eed09c" class="coloree9c9e svgShape"></path>
  <path d="M436.84 448.974c.031 0 .062.008.094.01l14.49.719a.989.989 0 1 0 .1-1.976l-14.49-.719a.989.989 0 0 0-.192 1.966ZM412.781 448.617c0 1.968.945 3.566 2.091 3.565s2.075-1.61 2.07-3.579a5.4 5.4 0 0 0-.121-1.156 4.016 4.016 0 0 0-.6-1.542 20.009 20.009 0 0 0-2.551-.214 3.6 3.6 0 0 0-.69 1.4A5.753 5.753 0 0 0 412.781 448.617Z" fill="#7b5c32" class="color32477b svgShape"></path>
  <path d="M407.439,446.607c.031,0,.063.008.094.01l14.49.719a.989.989,0,1,0,.1-1.976l-14.489-.719a.989.989,0,0,0-.193,1.966Z" fill="#7b5c32" class="color32477b svgShape"></path>
  <polygon points="292.273 618.119 269.096 687.826 292.273 662.349 292.273 618.119" fill="#ae8e57" class="color579fae svgShape"></polygon>
  <path d="M552.876,626.15l-12.44,8.9-27.96-20-27.97,20-27.97-20-27.97,20-27.96-20-27.96,20-27.97-20-27.96,20-27.97-20-27.96,20-27.97-20-20.29,14.51-.25,2.64,20.54-14.69,27.97,20,27.96-20,27.97,20,27.96-20,27.97,20,27.96-20,27.96,20,27.97-20,27.97,20,27.97-20,27.96,20,12.63-9.03Zm2.22,27.99-14.66,10.48-27.96-20-27.97,20-27.97-20-27.97,20-27.96-20-27.96,20-27.97-20-27.96,20-27.97-20-27.96,20-27.97-20L209.5,661.3l-.26,2.65,23.58-16.87,27.97,20,27.96-20,27.97,20,27.96-20,27.97,20,27.96-20,27.96,20,27.97-20,27.97,20,27.97-20,27.96,20,14.85-10.62Zm2.22,27.99-16.88,12.07-27.96-20-27.97,20-27.97-20-27.97,20-27.96-20-27.96,20-27.97-20-27.96,20-27.97-20-27.96,20-27.97-20-26.36,18.86-.26,2.63,26.62-19.04,27.97,20,27.96-20,27.97,20,27.96-20,27.97,20,27.96-20,27.96,20,27.97-20,27.97,20,27.97-20,26.02,18.61,1.94,1.39,1.94-1.39,15.12-10.81Zm-10.17-111.02-6.71,4.8-27.96-20-27.97,20-27.97-20-27.97,20-27.96-20-27.96,20-27.97-20-27.96,20-27.97-20-27.96,20-21.74-15.55c-.44.51-.87,1.02-1.29,1.54l23.03,16.47,27.96-20,27.97,20,27.96-20,27.97,20,27.96-20,27.96,20,27.97-20,27.97,20,27.97-20,27.96,20,7.27-5.2C547.526,572.48,547.346,571.79,547.146,571.11Zm3.52,27.06-10.23,7.31-27.96-20-27.97,20-27.97-20-27.97,20-27.96-20-27.96,20-27.97-20-27.96,20-27.97-20-27.96,20-27.97-20-13.81,9.88c-.38,1.07-.73,2.15-1.07,3.23l14.88-10.65,27.97,20,27.96-20,27.97,20,27.96-20,27.97,20,27.96-20,27.96,20,27.97-20,27.97,20,27.97-20,27.96,20,10.41-7.44Zm-66.16,155.17-27.97-20-27.97,20-27.96-20-27.96,20-27.97-20-27.96,20L289.8,734.09v2.46l26.92,19.25,27.96-20,27.97,20,27.96-20,27.96,20,27.97-20,27.97,20,12.89-9.22.03-2.48Zm28.02-224.5,16.02,11.45A69.2,69.2,0,0,0,512.526,528.84Zm-28.02,17.5-27.97-20-27.97,20-27.96-20-27.96,20-27.97-20-27.96,20-27.57-19.71-.4-.29-1.12.8-26.84,19.2-3.94-2.82c-.56.42-1.11.84-1.65,1.28l5.59,4,27.96-20,27.97,20,27.96-20,27.97,20,27.96-20,27.96,20,27.97-20,27.97,20,27.96-19.99c-.67-.35-1.35-.69-2.03-1.01Zm0,266.14-27.97-20-27.97,20-27.96-20-27.96,20-27.97-20-27.96,20L289.8,793.23v2.46l26.92,19.25,27.96-20,27.97,20,27.96-20,27.96,20,27.97-20,27.97,20,12.37-8.85.02-2.47Zm0-29.57-27.97-20-27.97,20-27.96-20-27.96,20-27.97-20-27.96,20L289.8,763.66v2.46l26.92,19.25,27.96-20,27.97,20,27.96-20,27.96,20,27.97-20,27.97,20,12.64-9.04.02-2.47Zm0-59.14-27.97-20-27.97,20-27.96-20-27.96,20-27.97-20-27.96,20L289.8,704.52v2.46l26.92,19.25,27.96-20,27.97,20,27.96-20,27.96,20,27.97-20,27.97,20,13.16-9.41.02-2.47Z" fill="#ae8e57" class="color579fae svgShape"></path>
  <rect width="2.202" height="55.509" x="291.171" y="608.211" fill="#ae8e57" class="color579fae svgShape"></rect>
  <path d="M558.365,695.257H497.857l-.915,104.3a16.573,16.573,0,0,0,16.573,16.718h0a44.85,44.85,0,0,0,44.85-44.85Z" fill="#ffe8c1" class="colorffc1c2 svgShape"></path>
  <polygon points="558.365 695.257 522.895 704.64 526.838 695.257 558.365 695.257" fill="#eed09c" class="coloree9c9e svgShape"></polygon>
  <path d="M532,729.914a82.825,82.825,0,0,1-23.844,54.421,19.475,19.475,0,0,1-11.124,5.647l.391-38.376c.445.105.715.166.781.182-.264-.132-.523-.259-.781-.38l.2-19.809c4.6.913,7.877,1.667,8.136,1.722q-4.394-1.742-8.119-3.324l.214-21.329c9.33.132,17.658.869,17.658.869l3.374,1.173A19.426,19.426,0,0,1,532,729.914Z" fill="#eed09c" class="coloree9c9e svgShape"></path>
  <rect width="12.434" height="119.646" x="351.905" y="567.469" rx="5.006" transform="rotate(10.767 358.113 627.268)" fill="#dcc49b" class="color9bcfdc svgShape"></rect>
  <rect width="21.687" height="82.633" x="343.822" y="604.156" rx="5.494" transform="rotate(10.767 354.656 645.451)" fill="#7b5c32" class="color32477b svgShape"></rect>
  <circle cx="373.668" cy="545.541" r="41.005" fill="#dcc49b" class="color9bcfdc svgShape"></circle>
  <circle cx="373.668" cy="545.541" r="33.661" fill="#7b5c32" class="color32477b svgShape"></circle>
  <path d="M349.054 555.526a2.279 2.279 0 0 1-1.76-1.584 27.978 27.978 0 0 1 16.688-34.217 2.282 2.282 0 0 1 1.65 4.256 23.414 23.414 0 0 0-13.969 28.642 2.284 2.284 0 0 1-2.609 2.9ZM361.488 570.514c-.057-.01-.114-.023-.17-.038a16.31 16.31 0 0 1-10.245-8.609 2.282 2.282 0 0 1 4.186-1.82 11.642 11.642 0 0 0 7.245 6.021 2.282 2.282 0 0 1-1.016 4.446Z" fill="#fffcf2" class="colorffffff svgShape"></path>
  <path d="M370.617,633.689A10.277,10.277,0,0,1,368,645.363s2.119,7.431-3.891,9.556c0,0,1.585,4.964-2.125,7.078a19.138,19.138,0,0,1-6.176,1.723l.16.209-.022.033-21.461,28.452v0l-70.84,93.919c-20.856,24.946-61.472,9.308-60.211-23.183l2.5-64.714h54.14l53.075-59.8a43.629,43.629,0,0,1,21.938-14.862l35.529-3.891S377.481,625.548,370.617,633.689Z" fill="#ffe8c1" class="colorffc1c2 svgShape"></path>
  <rect width="43.686" height="2.753" x="225.669" y="714.934" transform="rotate(-54.895 247.509 716.308)" fill="#eed09c" class="coloree9c9e svgShape"></rect>
  <polygon points="205.934 698.442 255.321 705.201 258.834 698.442 205.934 698.442" fill="#eed09c" class="coloree9c9e svgShape"></polygon>
  <path d="M559.154,618.26,490.407,775.037a11.028,11.028,0,0,1-8.033,6.416A319.435,319.435,0,0,1,371.629,782.9a11.048,11.048,0,0,1-8.315-15.356q35.151-79.984,70.3-159.97a11.035,11.035,0,0,1,11.953-6.454,335.088,335.088,0,0,0,101.943,1.752A11.057,11.057,0,0,1,559.154,618.26Z" fill="#f6f3e8" class="colore8ebf6 svgShape"></path>
  <path d="M559.194,618.26,493.313,775.037a10.667,10.667,0,0,1-7.7,6.416A293.557,293.557,0,0,1,379.487,782.9c-6.825-1.158-10.751-8.75-7.969-15.356q33.687-79.984,67.373-159.97a10.491,10.491,0,0,1,11.455-6.454,307.905,307.905,0,0,0,97.693,1.752C556.248,601.7,562.521,610.342,559.194,618.26Z" fill="#fffcf2" class="colorffffff svgShape"></path>
  <path d="M514.414,703.483s-89.923-7.972-9.737,23.791c0,0-87.113-20.111-7.557,18.466,0,0-83.935-20.072-7.624,18.628,0,0-83.311-18.522-6.981,17.058l3.548,1.379a19.5,19.5,0,0,0,21-4.524A82.831,82.831,0,0,0,530.9,723.857a19.433,19.433,0,0,0-13.114-19.2Z" fill="#ffe8c1" class="colorffc1c2 svgShape"></path>
  <rect width="11.82" height="2.752" x="358.795" y="631.132" fill="#eed09c" class="coloree9c9e svgShape"></rect>
  <rect width="8.021" height="2.752" x="359.975" y="643.989" fill="#eed09c" class="coloree9c9e svgShape"></rect>
  <rect width="7.431" height="2.752" x="356.672" y="653.542" fill="#eed09c" class="coloree9c9e svgShape"></rect>
  <path d="M355.943,663.962l-21.461,28.452L337,678.551a18.055,18.055,0,0,1,17.765-14.831h1.043C355.855,663.8,355.9,663.885,355.943,663.962Z" fill="#eed09c" class="coloree9c9e svgShape"></path>
  <path d="m368.656 459.96 9.75 1.36-2.57 18.42a169.815 169.815 0 0 1-8.96-20.14A14.758 14.758 0 0 0 368.656 459.96ZM449.9 425.126c-.539 1.1-.8 3.114-2.517 3.434-13.985 2.615-37.726-2.863-45.864-5.024a3.631 3.631 0 0 0-4.145 1.762c-3.14 5.882-9.889 12.809-13.808 16.57a1.436 1.436 0 0 1-2.418-1.235l1.409-9.944a1.436 1.436 0 0 0-1.094-1.6l-3.792-.89a17.815 17.815 0 0 0-16.71 4.79c-.4-1.911-3.877-19.988 8.14-32.049a30.5 30.5 0 0 1 12.6-7.5c17.744-11.182 38.168-12.716 51.805-3.3C444.176 397.516 455.029 414.6 449.9 425.126Z" fill="#7b5c32" class="color32477b svgShape"></path>
</svg>
