<svg xmlns="http://www.w3.org/2000/svg" id="NotBalance" viewBox="0 0 1080 1080">
  <path d="M942.68,596.73c-.72,4.92-1.33,7.98-1.48,8.68a208.775,208.775,0,0,1-18.1,51.03v.01q-3.51,6.945-7.51,13.69a261.882,261.882,0,0,1-26.61,36.95q-9.045,10.575-19.28,20.5c-29.54,28.74-65.93,53.32-105.86,73.2q-11.25,5.61-22.86,10.7a574.257,574.257,0,0,1-75.46,26.97q-7.995,2.25-16.02,4.26c-9.29,2.34-18.62,4.44-27.93,6.29q-18.87,3.765-37.6,6.2c-15.97,2.08-31.8,3.4-47.32,3.97a538.616,538.616,0,0,1-55.58-.94c-9.49-.62-19.12-1.5-28.83-2.63a.085.085,0,0,1-.07,0q-12.915-1.485-26-3.56c-2.38-.38-4.76-.78-7.15-1.18-16.15-2.77-32.35-6.23-48.38-10.4-.29-.07-.58-.14-.87-.23a4.209,4.209,0,0,1-.48-.12q-.675-.165-1.35-.36c-14.28-3.78-28.39-8.13-42.19-13.07-9.71-3.47-19.27-7.24-28.6-11.31q-6.66-2.895-13.15-6-5.94-2.835-11.74-5.85c-22.81-11.84-43.79-25.69-61.92-41.65a231.737,231.737,0,0,1-23.02-23.27,191.362,191.362,0,0,1-27.17-41.34,172.869,172.869,0,0,1-9.06-22.78q-1.545-4.845-2.83-9.86a210.678,210.678,0,0,1-6.32-46.62q-.15-5.655,0-11.36a217.931,217.931,0,0,1,4.55-39.38c7.19-34.15,22.9-65.74,48.07-86.81,43.34-36.3,110.25-37.62,151.7-34.16,16.15,1.35,28.44,3.42,33.96,4.44,8.21,1.51,16.25,3.38,24.38,5.34,30.13,7.25,61.53,15.63,107.25,10.49,4.76-.54,21.35-2.54,51.72-10.99a448.98,448.98,0,0,0,66.31-23.71c.96-.44,1.91-.87,2.85-1.3,2.43-1.13,4.77-2.24,7.06-3.35.58-.28,1.17-.57,1.74-.85,4.61-2.26,8.96-4.49,13.12-6.67h.02c.15-.08.29-.16.44-.24.57-.3,1.13-.59,1.69-.89a.827.827,0,0,0,.16-.09c6.06-3.19,11.75-6.28,17.31-9.21,1.15-.61,2.3-1.21,3.44-1.8.8-.41,1.6-.83,2.4-1.23.55-.28,1.1-.56,1.64-.84h.01c3.34-1.68,6.66-3.3,10.05-4.84,5.27-2.41,10.68-4.63,16.44-6.63,4.54-1.59,9.29-3.03,14.37-4.32,50.36-12.81,125.67-8.72,173.58,35.62,39.02,36.13,48.44,88.39,49.18,127.37A277.126,277.126,0,0,1,942.68,596.73Z" fill="#eb5e28" class="colore6edfa svgShape"></path>
  <path d="M621.566 569.17V849.01a533.833 533.833 0 0 1-84.92 10.17c-73.02 2.67-163.61-10.73-239.5-43.79a389.493 389.493 0 0 1-36.87-18.36c-.01 0-.01-.01-.02-.01q-10.845-6.165-21.01-12.98-9.285-6.225-17.91-13.01-5.655-4.47-11-9.17c-27.44-24.15-48.37-53.14-59.25-87.37-1.02-3.23-1.97-6.51-2.82-9.85a210.252 210.252 0 0 1-6.33-46.62V606.65a217.822 217.822 0 0 1 4.55-39.37h73.3V668.35h12.55V466.83h77.85V770.05H357.9V519.57l185.83 92.91V569.17a36.419 36.419 0 0 1 36.42-36.42h5A36.419 36.419 0 0 1 621.566 569.17ZM942.675 566.965v29.771c-.712 4.913-1.323 7.972-1.473 8.674C916.065 723.974 785.6 808.561 649.5 842.725V496.966h77.843V758.122H739.9V601.456l77.842-34.18v-.311a62.465 62.465 0 1 1 124.929 0Z" fill="#f3edd8" class="colord8dff3 svgShape"></path>
  <path d="M915.593 670.137a261.62 261.62 0 0 1-26.615 36.95V685c0-8.213 11.245-14.867 25.121-14.867ZM426.171 852.046q-3.569-.562-7.147-1.179A559.013 559.013 0 0 1 325.752 826.7L371.237 704.67Z" fill="#ccc5b9" class="colorbdcfd3 svgShape"></path>
  <path d="M284 809.385c-38.074-18.178-71.762-41.611-96.679-70.776l35.15-94.3ZM923.1 656.448q-3.5 6.951-7.506 13.688a261.765 261.765 0 0 1-26.616 36.95q-9.048 10.575-19.275 20.5c-52.583 51.147-126.831 89.12-204.186 110.877q-7.988 2.241-16.013 4.259-13.943 3.5-27.939 6.289-18.861 3.762-37.6 6.2a50.389 50.389 0 0 1 5.727-4.072c11.524-7.013 24.987-10.73 35.632-19.013-5.518-4.211-1.157-13 3.82-17.835a116.324 116.324 0 0 1 41.6-25.924c-2.5-19.522 18.932-37.92 37.849-32.5a20.154 20.154 0 0 1 39.425-5.363 63.076 63.076 0 0 1 5.69-19.747c2.587-5.443 10.683-5.026 12.59.7a.827.827 0 0 0 .037.113c6.274-12.622 26-15.558 35.675-5.3-3.375-12.568 11.765-25.683 23.723-20.551-5.738-8.422-7.287-20.186-1.876-28.822s18.558-12.07 26.434-5.6c-5.593-9.536 1.451-23.765 12.429-25.1 5.6-.681 11.159 1.478 16.806 1.623a15.335 15.335 0 0 0 8.288-2.218c6.246-3.949 14.416-3.359 19.4 2.095a40.449 40.449 0 0 1 7.752 12.986C917.774 659.352 920.459 657.884 923.1 656.448Z" fill="#efe1ca" class="colorcad4ef svgShape"></path>
  <path d="M413.067,410.655c-33.649-7.246-69.282-21.178-85.847-51.35-5.949-10.835-8.949-24.074-4.576-35.635,5.873-15.526,23.178-23.726,39.6-26.115a97.966,97.966,0,0,1,59.846,10.491c24.937,13.348,44.935,37.852,72.943,41.8,21.426,3.017,42.227-6.89,62.865-13.391s45.881-8.693,61.395,6.39c3.709,3.606,4.328,8.4,4.687,10.358,3.026,16.5-13.317,31.641-19.228,37.116-8.066,7.474-26.8,21.594-85.435,26.323C487.77,419.182,455.6,419.814,413.067,410.655Z" fill="#eb5e28" class="colore6edfa svgShape"></path>
  <path d="M332.171,411.3H135.29a30.984,30.984,0,0,1,41.163-42.952,47.658,47.658,0,1,1,91.107,23.021C289.072,398.2,310.17,406.545,332.171,411.3Z" fill="#ebe7da" class="colordae8eb svgShape"></path>
  <path d="M754.3,472.925H860.246A16.673,16.673,0,0,0,838.1,449.811,25.647,25.647,0,1,0,789.067,462.2C777.491,465.871,766.137,470.364,754.3,472.925Z" fill="#f3edd8" class="colord8dff3 svgShape"></path>
  <path d="M657.553,339H926.174a42.275,42.275,0,0,0-56.162-58.6,65.024,65.024,0,1,0-124.3,31.41C716.357,321.117,687.571,332.509,657.553,339Z" fill="#ebe7da" class="colordae8eb svgShape"></path>
  <path d="M224.536,366.629l-.791-4.088c38.046-7.366,64.546-16.4,79.463-23.63a30.652,30.652,0,0,1-9.783-11.972c-2.712-5.947-3.582-13.022-2.737-22.268,1.183-12.958,5.206-22.727,11.956-29.036a25.548,25.548,0,0,1,15.156-6.622c6.08-.487,11.539,1.339,15.375,5.145,5.931,5.887,8.057,15,6.317,27.1-1.436,9.983-6.264,16.853-8.858,20.543a69.035,69.035,0,0,1-15.089,14.856q-1.737,1.235-3.869,2.492c9.736,4.661,22.052,5.883,32.56,5.835a303.893,303.893,0,0,0,110.148-21.431l1.543,3.867a305.961,305.961,0,0,1-111.672,21.728c-11.961.056-26.143-1.5-36.965-7.591C289.788,350.537,258.96,359.964,224.536,366.629ZM320.1,273.1a21.541,21.541,0,0,0-14.617,5.58c-5.981,5.591-9.565,14.464-10.653,26.373-.776,8.5-.02,14.9,2.379,20.162a27.17,27.17,0,0,0,10.2,11.551,56.763,56.763,0,0,0,5.724-3.5,65.988,65.988,0,0,0,14.1-13.857c2.393-3.4,6.848-9.744,8.143-18.741,1.542-10.718-.184-18.641-5.129-23.549A14.492,14.492,0,0,0,320.1,273.1Z" fill="#7b5c32" class="color32477b svgShape"></path>
  <path d="M492.21,320.027c6.3,5.14,35.98,24.425,53.269-33.774.928-3.123-1.472-5.643-5.066-5.483-15.656.694-46.373,4.878-49.574,35.649A4.12,4.12,0,0,0,492.21,320.027Z" fill="#cbac77" class="color77bbcb svgShape"></path>
  <path d="M473.772,323.741l-.6-4.12c.3-.044,30.568-4.62,48.73-21.512l2.836,3.049C505.611,318.948,475.063,323.554,473.772,323.741Z" fill="#ae8e57" class="color579fae svgShape"></path>
  <path d="M755.729,686.7a176.233,176.233,0,0,1-28.238,7.11c-5.6.926-11.562,1.572-17.167.036a23.019,23.019,0,0,1-9.826-5.669,95.4,95.4,0,0,1-23.7,15.319,280.408,280.408,0,0,1-26.974,10.365c-9.527,3.287-19.379,6.687-28.552,11.136l-1.3-2.7c9.333-4.526,19.27-7.955,28.879-11.271a278.2,278.2,0,0,0,26.689-10.25,94.68,94.68,0,0,0,22.922-14.82,23.644,23.644,0,0,1-5.35-13.526,23.923,23.923,0,0,1,14.817-23.065c2.519-.977,4.6-1.12,6.363-.431,4.35,1.7,4.978,7.365,3.669,12.226-2.438,9.059-7.578,17.461-15.283,24.983a20.048,20.048,0,0,0,8.43,4.812c4.772,1.307,9.806.9,15.9-.1A173.255,173.255,0,0,0,767.338,679l1.185,2.757Q762.224,684.478,755.729,686.7Zm-46.191-34.734q-.26.088-.533.195a20.861,20.861,0,0,0-12.921,20.113,20.6,20.6,0,0,0,4.544,11.644c6.395-6.248,11.886-14.046,14.444-23.553.928-3.448.741-7.622-1.861-8.638A5.394,5.394,0,0,0,709.538,651.964Z" fill="#a59d8e" class="color8ea2a5 svgShape"></path>
  <path d="M790.448,674.144c5.35,2.539,22.716,8.722,37.434-29.326,1.185-3.064.2-5.918-2.186-6.055-11.611-.667-41.3,1.75-36.985,33.022A3.12,3.12,0,0,0,790.448,674.144Z" fill="#cbac77" class="color77bbcb svgShape"></path>
  <path d="M779.915,677.54c-2.775.948-4.594,1.444-4.859,1.515l-.777-2.9c.241-.065,24.313-6.646,36.669-20.493l2.225,2.008C803.578,668.423,787.844,674.829,779.915,677.54Z" fill="#ae8e57" class="color579fae svgShape"></path>
  <path d="M531.836,780.68l-61.63,8.1a.13.13,0,0,1-.13-.05l-29.21-35.56a.154.154,0,0,0-.27.11l6.98,76.49a.153.153,0,0,1-.15.17h-47.6a.15.15,0,0,0-.14.1l-9.78,33.17a.14.14,0,0,1-.19.1l-147.4-65.1a48.2,48.2,0,0,1-7.21-3.94,49.772,49.772,0,0,1-21.74-50.03l1.01-5.88L239.9,589.63a53.586,53.586,0,0,1,52.92-44.56c11.71.02,24.939.01,38.7-.01,24.34-.05,50.4-.15,72.84-.25h.01c2.95-.01,5.82-.03,8.63-.04.89,0,1.78.01,2.66.05a57.266,57.266,0,0,1,54.33,49.35l17.03,122.59.029.06,44.9,63.63A.151.151,0,0,1,531.836,780.68Z" fill="#cbac77" class="color77bbcb svgShape"></path>
  <polygon points="435.006 643.069 449.799 745.508 475.942 777.805 450.657 777.805 440.38 749.343 435.006 643.069" fill="#ae8e57" class="color579fae svgShape"></polygon>
  <path d="m315.324 639.91 3.361 91.294a20.805 20.805 0 0 0 9.561 16.749l73.769 47.3-102-47.6ZM345.674 826.44H350.9a.622.622 0 0 0 .539-.932l-2.613-4.525a.621.621 0 0 0-1.076 0l-2.613 4.525A.621.621 0 0 0 345.674 826.44Z" fill="#ae8e57" class="color579fae svgShape"></path>
  <path d="m351.438 716.56-2.613-4.525a.621.621 0 0 0-1.076 0l-2.613 4.525a.621.621 0 0 0 .538.932H350.9A.622.622 0 0 0 351.438 716.56ZM351.438 771.034l-2.613-4.525a.621.621 0 0 0-1.076 0l-2.613 4.525a.621.621 0 0 0 .538.932H350.9A.622.622 0 0 0 351.438 771.034ZM346.628 817.583l-2.612-4.524a.621.621 0 0 0-1.077 0l-2.612 4.524a.621.621 0 0 0 .538.933h5.225A.622.622 0 0 0 346.628 817.583ZM324.872 799.2H330.1a.621.621 0 0 0 .538-.932l-2.612-4.525a.622.622 0 0 0-1.077 0l-2.612 4.525A.621.621 0 0 0 324.872 799.2ZM335.171 790.347l-2.612-4.525a.621.621 0 0 0-1.077 0l-2.612 4.525a.621.621 0 0 0 .538.932h5.225A.621.621 0 0 0 335.171 790.347ZM334.218 799.2h5.225a.621.621 0 0 0 .538-.932l-2.612-4.525a.622.622 0 0 0-1.077 0l-2.613 4.525A.622.622 0 0 0 334.218 799.2ZM336.329 826.44h5.225a.621.621 0 0 0 .538-.932l-2.612-4.525a.622.622 0 0 0-1.077 0l-2.612 4.525A.621.621 0 0 0 336.329 826.44ZM351.438 662.086l-2.613-4.525a.621.621 0 0 0-1.076 0l-2.613 4.525a.621.621 0 0 0 .538.932H350.9A.622.622 0 0 0 351.438 662.086ZM299.9 704.732l2.612 4.525a.622.622 0 0 0 1.077 0l2.612-4.525a.621.621 0 0 0-.538-.932h-5.225A.621.621 0 0 0 299.9 704.732ZM340.327 545.213a.621.621 0 0 0 .538.932h5.225a.621.621 0 0 0 .538-.932l-.112-.194-6.086.015ZM303.549 676.563h-5.225a.621.621 0 0 0-.538.932l2.613 4.525a.621.621 0 0 0 1.076 0l2.612-4.525A.621.621 0 0 0 303.549 676.563ZM351.438 553.137l-2.613-4.525a.621.621 0 0 0-1.076 0l-2.613 4.525a.622.622 0 0 0 .538.933H350.9A.622.622 0 0 0 351.438 553.137ZM329.408 682.331h5.225a.621.621 0 0 0 .538-.933l-2.612-4.525a.622.622 0 0 0-1.077 0L328.87 681.4A.622.622 0 0 0 329.408 682.331ZM334.218 744.729h5.225a.621.621 0 0 0 .538-.932l-2.612-4.525a.622.622 0 0 0-1.077 0l-2.613 4.525A.622.622 0 0 0 334.218 744.729ZM346.628 763.109l-2.612-4.525a.622.622 0 0 0-1.077 0l-2.612 4.525a.621.621 0 0 0 .538.933h5.225A.622.622 0 0 0 346.628 763.109ZM346.628 708.635l-2.612-4.525a.622.622 0 0 0-1.077 0l-2.612 4.525a.621.621 0 0 0 .538.933h5.225A.622.622 0 0 0 346.628 708.635ZM346.628 654.161l-2.612-4.525a.622.622 0 0 0-1.077 0l-2.612 4.525a.621.621 0 0 0 .538.932h5.225A.621.621 0 0 0 346.628 654.161ZM346.628 599.687l-2.612-4.525a.622.622 0 0 0-1.077 0l-2.612 4.525a.621.621 0 0 0 .538.932h5.225A.621.621 0 0 0 346.628 599.687ZM329.408 736.805h5.225a.621.621 0 0 0 .538-.933l-2.612-4.525a.622.622 0 0 0-1.077 0l-2.612 4.525A.622.622 0 0 0 329.408 736.805ZM336.329 771.966h5.225a.621.621 0 0 0 .538-.932l-2.612-4.525a.622.622 0 0 0-1.077 0l-2.612 4.525A.621.621 0 0 0 336.329 771.966ZM305.66 649.325h-5.225a.622.622 0 0 0-.538.933l2.612 4.525a.622.622 0 0 0 1.077 0l2.612-4.525A.621.621 0 0 0 305.66 649.325ZM326.946 575.849l-2.612 4.526a.621.621 0 0 0 .538.932H330.1a.621.621 0 0 0 .538-.932l-2.612-4.526A.622.622 0 0 0 326.946 575.849ZM324.872 744.729H330.1a.621.621 0 0 0 .538-.932l-2.612-4.525a.622.622 0 0 0-1.077 0l-2.612 4.525A.621.621 0 0 0 324.872 744.729ZM324.872 635.781H330.1a.621.621 0 0 0 .538-.932l-2.612-4.525a.621.621 0 0 0-1.077 0l-2.612 4.525A.621.621 0 0 0 324.872 635.781ZM324.872 690.255H330.1a.621.621 0 0 0 .538-.932l-2.612-4.525a.621.621 0 0 0-1.077 0l-2.612 4.525A.621.621 0 0 0 324.872 690.255ZM334.218 581.307h5.225a.621.621 0 0 0 .538-.932l-2.612-4.526a.622.622 0 0 0-1.077 0l-2.613 4.526A.622.622 0 0 0 334.218 581.307ZM339.48 548.612a.622.622 0 0 0-1.077 0l-2.612 4.525a.621.621 0 0 0 .538.933h5.225a.622.622 0 0 0 .538-.933ZM332.559 567.925a.622.622 0 0 0-1.077 0l-2.612 4.525a.621.621 0 0 0 .538.932h5.225a.621.621 0 0 0 .538-.932ZM351.438 607.611l-2.613-4.525a.621.621 0 0 0-1.076 0l-2.613 4.525a.622.622 0 0 0 .538.933H350.9A.622.622 0 0 0 351.438 607.611ZM307.045 826.13a.622.622 0 0 0 1.077 0l2.612-4.525a.622.622 0 0 0-.538-.933h-5.225a.622.622 0 0 0-.538.933ZM302.509 818.205a.622.622 0 0 0 1.077 0l2.612-4.525a.621.621 0 0 0-.538-.932h-5.225a.621.621 0 0 0-.538.932ZM312.931 818.205l2.613-4.525a.622.622 0 0 0-.539-.932h-5.224a.622.622 0 0 0-.539.932l2.613 4.525A.621.621 0 0 0 312.931 818.205ZM315.005 758.274h-5.224a.622.622 0 0 0-.539.932l2.613 4.525a.621.621 0 0 0 1.076 0l2.613-4.525A.622.622 0 0 0 315.005 758.274ZM288.44 786.443l2.613 4.525a.621.621 0 0 0 1.076 0l2.613-4.525a.621.621 0 0 0-.538-.932h-5.225A.622.622 0 0 0 288.44 786.443ZM301.475 790.968l2.612-4.525a.621.621 0 0 0-.538-.932h-5.225a.621.621 0 0 0-.538.932l2.613 4.525A.621.621 0 0 0 301.475 790.968ZM288.44 731.969l2.613 4.525a.621.621 0 0 0 1.076 0l2.613-4.525a.621.621 0 0 0-.538-.932h-5.225A.622.622 0 0 0 288.44 731.969ZM295.589 798.893a.622.622 0 0 0 1.077 0l2.612-4.525a.622.622 0 0 0-.538-.933h-5.225a.621.621 0 0 0-.538.933ZM302.509 545.834a.621.621 0 0 0 1.077 0l.436-.755h-1.949ZM304.433 549.234l2.612 4.525a.622.622 0 0 0 1.077 0l2.612-4.525a.621.621 0 0 0-.538-.932h-5.225A.621.621 0 0 0 304.433 549.234ZM315.005 703.8h-5.224a.621.621 0 0 0-.539.932l2.613 4.525a.621.621 0 0 0 1.076 0l2.613-4.525A.621.621 0 0 0 315.005 703.8ZM288.44 568.546l2.613 4.525a.621.621 0 0 0 1.076 0l2.613-4.525a.621.621 0 0 0-.538-.932h-5.225A.622.622 0 0 0 288.44 568.546ZM315.005 649.325h-5.224a.622.622 0 0 0-.539.933l2.613 4.525a.621.621 0 0 0 1.076 0l2.613-4.525A.622.622 0 0 0 315.005 649.325ZM311.855 545.834a.621.621 0 0 0 1.076 0l.438-.757h-1.951ZM310.2 711.724h-5.225a.621.621 0 0 0-.538.932l2.612 4.525a.621.621 0 0 0 1.077 0l2.612-4.525A.621.621 0 0 0 310.2 711.724ZM302.509 763.731a.622.622 0 0 0 1.077 0l2.612-4.525a.621.621 0 0 0-.538-.932h-5.225a.621.621 0 0 0-.538.932ZM303.549 622.088h-5.225a.622.622 0 0 0-.538.933l2.613 4.525a.621.621 0 0 0 1.076 0l2.612-4.525A.622.622 0 0 0 303.549 622.088ZM301.475 736.494l2.612-4.525a.621.621 0 0 0-.538-.932h-5.225a.621.621 0 0 0-.538.932l2.613 4.525A.621.621 0 0 0 301.475 736.494ZM307.045 771.656a.622.622 0 0 0 1.077 0l2.612-4.526a.621.621 0 0 0-.538-.932h-5.225a.621.621 0 0 0-.538.932ZM292.977 630.945l2.612 4.525a.622.622 0 0 0 1.077 0l2.612-4.525a.621.621 0 0 0-.538-.932h-5.225A.621.621 0 0 0 292.977 630.945ZM292.977 739.894l2.612 4.524a.621.621 0 0 0 1.077 0l2.612-4.524a.622.622 0 0 0-.538-.933h-5.225A.621.621 0 0 0 292.977 739.894ZM292.977 685.419l2.612 4.525a.621.621 0 0 0 1.077 0l2.612-4.525a.621.621 0 0 0-.538-.932h-5.225A.621.621 0 0 0 292.977 685.419ZM303.549 567.614h-5.225a.621.621 0 0 0-.538.932l2.613 4.525a.621.621 0 0 0 1.076 0l2.612-4.525A.621.621 0 0 0 303.549 567.614ZM292.977 576.471 295.589 581a.622.622 0 0 0 1.077 0l2.612-4.525a.621.621 0 0 0-.538-.932h-5.225A.621.621 0 0 0 292.977 576.471ZM288.44 677.5l2.613 4.525a.621.621 0 0 0 1.076 0l2.613-4.525a.621.621 0 0 0-.538-.932h-5.225A.622.622 0 0 0 288.44 677.5ZM288.44 623.021l2.613 4.525a.621.621 0 0 0 1.076 0l2.613-4.525a.622.622 0 0 0-.538-.933h-5.225A.622.622 0 0 0 288.44 623.021ZM305.66 594.851h-5.225a.622.622 0 0 0-.538.933l2.612 4.525a.622.622 0 0 0 1.077 0l2.612-4.525A.621.621 0 0 0 305.66 594.851ZM310.2 602.776h-5.225a.621.621 0 0 0-.538.932l2.612 4.525a.622.622 0 0 0 1.077 0l2.612-4.525A.621.621 0 0 0 310.2 602.776ZM310.2 657.25h-5.225a.621.621 0 0 0-.538.932l2.612 4.525a.621.621 0 0 0 1.077 0l2.612-4.525A.621.621 0 0 0 310.2 657.25ZM361.128 739.894l2.613 4.524a.621.621 0 0 0 1.076 0l2.613-4.524a.622.622 0 0 0-.538-.933h-5.225A.622.622 0 0 0 361.128 739.894ZM246.854 594.851h-5.226a.622.622 0 0 0-.538.933l2.613 4.525a.621.621 0 0 0 1.076 0l2.613-4.525A.622.622 0 0 0 246.854 594.851ZM226.051 676.563h-1.072l-.91 5.3 2.521-4.365A.622.622 0 0 0 226.051 676.563ZM226.59 786.443a.622.622 0 0 0-.539-.932h-1.019q.627.716 1.283 1.407ZM244.779 763.731l2.613-4.525a.621.621 0 0 0-.538-.932h-5.226a.621.621 0 0 0-.538.932l2.613 4.525A.621.621 0 0 0 244.779 763.731ZM373.812 703.8h-5.225a.621.621 0 0 0-.538.932l2.613 4.525a.621.621 0 0 0 1.076 0l2.613-4.525A.622.622 0 0 0 373.812 703.8ZM242.044 766.2h-5.225a.621.621 0 0 0-.538.932l2.613 4.526a.621.621 0 0 0 1.076 0l2.613-4.526A.622.622 0 0 0 242.044 766.2ZM246.854 703.8h-5.226a.621.621 0 0 0-.538.932l2.613 4.525a.621.621 0 0 0 1.076 0l2.613-4.525A.621.621 0 0 0 246.854 703.8ZM246.854 649.325h-5.226a.622.622 0 0 0-.538.933l2.613 4.525a.621.621 0 0 0 1.076 0l2.613-4.525A.622.622 0 0 0 246.854 649.325ZM273.94 662.086l-2.612-4.525a.621.621 0 0 0-1.077 0l-2.613 4.525a.622.622 0 0 0 .539.932H273.4A.621.621 0 0 0 273.94 662.086ZM368.55 790.968a.622.622 0 0 0 1.077 0l2.612-4.525a.621.621 0 0 0-.538-.932h-5.225a.621.621 0 0 0-.538.932ZM373.812 758.274h-5.225a.621.621 0 0 0-.538.932l2.613 4.525a.621.621 0 0 0 1.076 0l2.613-4.525A.622.622 0 0 0 373.812 758.274ZM332.559 622.4a.622.622 0 0 0-1.077 0l-2.612 4.525a.621.621 0 0 0 .538.932h5.225a.621.621 0 0 0 .538-.932ZM371.7 676.563h-5.225a.621.621 0 0 0-.538.932l2.612 4.525a.622.622 0 0 0 1.077 0l2.612-4.525A.621.621 0 0 0 371.7 676.563ZM366.892 630.013h-5.225a.622.622 0 0 0-.539.932l2.613 4.525a.621.621 0 0 0 1.076 0l2.613-4.525A.621.621 0 0 0 366.892 630.013ZM361.128 685.419l2.613 4.525a.621.621 0 0 0 1.076 0l2.613-4.525a.621.621 0 0 0-.538-.932h-5.225A.622.622 0 0 0 361.128 685.419ZM220.288 731.969l2.613 4.525a.621.621 0 0 0 1.076 0l2.613-4.525a.622.622 0 0 0-.539-.932h-5.224A.622.622 0 0 0 220.288 731.969ZM235.434 709.257l2.612-4.525a.621.621 0 0 0-.538-.932h-5.225a.621.621 0 0 0-.538.932l2.612 4.525A.622.622 0 0 0 235.434 709.257ZM239.97 717.181l2.613-4.525a.622.622 0 0 0-.539-.932h-5.225a.621.621 0 0 0-.538.932l2.613 4.525A.621.621 0 0 0 239.97 717.181ZM229.634 731.969l2.612 4.525a.622.622 0 0 0 1.077 0l2.612-4.525a.621.621 0 0 0-.538-.932h-5.225A.621.621 0 0 0 229.634 731.969ZM242.044 657.25h-5.225a.621.621 0 0 0-.538.932l2.613 4.525a.621.621 0 0 0 1.076 0l2.613-4.525A.622.622 0 0 0 242.044 657.25ZM392.486 852.745a.616.616 0 0 0 .254.855l.781-2.647ZM237.508 758.274h-5.225a.621.621 0 0 0-.538.932l2.612 4.525a.622.622 0 0 0 1.077 0l2.612-4.525A.621.621 0 0 0 237.508 758.274ZM230.172 785.511a.621.621 0 0 0-.538.932l2.612 4.525a.622.622 0 0 0 1.077 0l2.612-4.525a.621.621 0 0 0-.538-.932ZM242.044 602.776h-4.405l-.435 2.531 1.69 2.926a.621.621 0 0 0 1.076 0l2.613-4.525A.622.622 0 0 0 242.044 602.776ZM237.508 649.325h-5.225a.622.622 0 0 0-.538.933l2.612 4.525a.622.622 0 0 0 1.077 0l2.612-4.525A.622.622 0 0 0 237.508 649.325ZM224.824 685.419l2.613 4.525a.621.621 0 0 0 1.076 0l2.613-4.525a.622.622 0 0 0-.539-.932h-5.224A.622.622 0 0 0 224.824 685.419ZM375.2 771.656a.621.621 0 0 0 1.076 0l2.612-4.526a.621.621 0 0 0-.538-.932h-5.224a.622.622 0 0 0-.539.932ZM232.246 682.02a.622.622 0 0 0 1.077 0l2.612-4.525a.621.621 0 0 0-.538-.932h-5.225a.621.621 0 0 0-.538.932ZM227.437 744.418a.621.621 0 0 0 1.076 0l2.613-4.524a.622.622 0 0 0-.539-.933h-5.224a.622.622 0 0 0-.539.933ZM235.4 622.088h-1.072l-.908 5.3 2.518-4.363A.622.622 0 0 0 235.4 622.088ZM366.476 731.037a.621.621 0 0 0-.538.932l2.612 4.525a.622.622 0 0 0 1.077 0l2.612-4.525a.621.621 0 0 0-.538-.932ZM383.158 703.8h-5.225a.621.621 0 0 0-.538.932l2.612 4.525a.622.622 0 0 0 1.077 0l2.612-4.525A.621.621 0 0 0 383.158 703.8ZM383.158 649.325h-5.225a.621.621 0 0 0-.538.933l2.612 4.525a.622.622 0 0 0 1.077 0l2.612-4.525A.622.622 0 0 0 383.158 649.325ZM378.348 602.776h-5.224a.622.622 0 0 0-.539.932l2.613 4.525a.621.621 0 0 0 1.076 0l2.612-4.525A.621.621 0 0 0 378.348 602.776ZM381.084 818.205l2.612-4.525a.621.621 0 0 0-.538-.932h-5.225a.621.621 0 0 0-.538.932l2.612 4.525A.622.622 0 0 0 381.084 818.205ZM375.2 826.13a.621.621 0 0 0 1.076 0l2.612-4.525a.621.621 0 0 0-.538-.933h-5.224a.622.622 0 0 0-.539.933ZM378.348 548.3h-5.224a.622.622 0 0 0-.539.932l2.613 4.525a.621.621 0 0 0 1.076 0l2.612-4.525A.621.621 0 0 0 378.348 548.3ZM383.158 758.274h-5.225a.621.621 0 0 0-.538.932l2.612 4.525a.622.622 0 0 0 1.077 0l2.612-4.525A.621.621 0 0 0 383.158 758.274ZM334.218 635.781h5.225a.621.621 0 0 0 .538-.932l-2.612-4.525a.621.621 0 0 0-1.077 0l-2.613 4.525A.622.622 0 0 0 334.218 635.781ZM338.4 712.035l-2.612 4.525a.621.621 0 0 0 .538.932h5.225a.621.621 0 0 0 .538-.932l-2.612-4.525A.622.622 0 0 0 338.4 712.035ZM342.092 662.086l-2.612-4.525a.621.621 0 0 0-1.077 0l-2.612 4.525a.621.621 0 0 0 .538.932h5.225A.621.621 0 0 0 342.092 662.086ZM337.369 684.8a.621.621 0 0 0-1.077 0l-2.613 4.525a.622.622 0 0 0 .539.932h5.225a.621.621 0 0 0 .538-.932ZM370.662 545.834a.621.621 0 0 0 1.076 0l.516-.894-2.105.007ZM341.554 608.544a.622.622 0 0 0 .538-.933l-2.612-4.525a.622.622 0 0 0-1.077 0l-2.612 4.525a.621.621 0 0 0 .538.933ZM373.812 812.748h-5.225a.621.621 0 0 0-.538.932l2.613 4.525a.621.621 0 0 0 1.076 0l2.613-4.525A.622.622 0 0 0 373.812 812.748ZM364.817 798.893l2.613-4.525a.622.622 0 0 0-.538-.933h-5.225a.622.622 0 0 0-.539.933l2.613 4.525A.621.621 0 0 0 364.817 798.893ZM362.356 567.614h-5.225a.622.622 0 0 0-.539.932l2.613 4.525a.621.621 0 0 0 1.076 0l2.613-4.525A.621.621 0 0 0 362.356 567.614ZM373.812 594.851h-5.225a.622.622 0 0 0-.538.933l2.613 4.525a.621.621 0 0 0 1.076 0l2.613-4.525A.622.622 0 0 0 373.812 594.851ZM361.128 576.471 363.741 581a.621.621 0 0 0 1.076 0l2.613-4.525a.621.621 0 0 0-.538-.932h-5.225A.622.622 0 0 0 361.128 576.471ZM371.7 567.614h-5.225a.621.621 0 0 0-.538.932l2.612 4.525a.621.621 0 0 0 1.077 0l2.612-4.525A.621.621 0 0 0 371.7 567.614ZM378.348 657.25h-5.224a.622.622 0 0 0-.539.932l2.613 4.525a.621.621 0 0 0 1.076 0l2.612-4.525A.621.621 0 0 0 378.348 657.25ZM368.55 845.442a.622.622 0 0 0 1.077 0l2.612-4.525a.621.621 0 0 0-.538-.932h-5.225a.621.621 0 0 0-.538.932ZM373.812 649.325h-5.225a.622.622 0 0 0-.538.933l2.613 4.525a.621.621 0 0 0 1.076 0l2.613-4.525A.622.622 0 0 0 373.812 649.325ZM371.7 622.088h-5.225a.622.622 0 0 0-.538.933l2.612 4.525a.622.622 0 0 0 1.077 0l2.612-4.525A.621.621 0 0 0 371.7 622.088ZM356.592 840.917l2.613 4.525a.621.621 0 0 0 1.076 0l2.613-4.525a.621.621 0 0 0-.538-.932h-5.225A.622.622 0 0 0 356.592 840.917ZM356.592 623.021l2.613 4.525a.621.621 0 0 0 1.076 0l2.613-4.525a.622.622 0 0 0-.538-.933h-5.225A.622.622 0 0 0 356.592 623.021ZM356.592 786.443l2.613 4.525a.621.621 0 0 0 1.076 0l2.613-4.525a.621.621 0 0 0-.538-.932h-5.225A.622.622 0 0 0 356.592 786.443ZM378.348 711.724h-5.224a.622.622 0 0 0-.539.932l2.613 4.525a.621.621 0 0 0 1.076 0l2.612-4.525A.621.621 0 0 0 378.348 711.724ZM356.592 731.969l2.613 4.525a.621.621 0 0 0 1.076 0l2.613-4.525a.621.621 0 0 0-.538-.932h-5.225A.622.622 0 0 0 356.592 731.969ZM356.592 677.5l2.613 4.525a.621.621 0 0 0 1.076 0l2.613-4.525a.621.621 0 0 0-.538-.932h-5.225A.622.622 0 0 0 356.592 677.5ZM315.005 594.851h-5.224a.622.622 0 0 0-.539.933l2.613 4.525a.621.621 0 0 0 1.076 0l2.613-4.525A.622.622 0 0 0 315.005 594.851ZM403.324 790.347l-2.613-4.525a.621.621 0 0 0-1.076 0l-2.613 4.525a.622.622 0 0 0 .539.932h5.225A.621.621 0 0 0 403.324 790.347ZM393.024 690.255h5.226a.621.621 0 0 0 .538-.932l-2.613-4.525a.621.621 0 0 0-1.076 0l-2.613 4.525A.621.621 0 0 0 393.024 690.255ZM393.024 799.2h5.226a.621.621 0 0 0 .538-.932l-2.613-4.525a.621.621 0 0 0-1.076 0l-2.613 4.525A.621.621 0 0 0 393.024 799.2ZM393.024 744.729h5.226a.621.621 0 0 0 .538-.932l-2.613-4.525a.621.621 0 0 0-1.076 0l-2.613 4.525A.621.621 0 0 0 393.024 744.729ZM419.589 607.611l-2.612-4.525a.622.622 0 0 0-1.077 0l-2.612 4.525a.622.622 0 0 0 .538.933h5.225A.621.621 0 0 0 419.589 607.611ZM400.711 567.925a.621.621 0 0 0-1.076 0l-2.613 4.525a.622.622 0 0 0 .539.932h5.225a.621.621 0 0 0 .538-.932ZM395.1 575.849l-2.613 4.526a.621.621 0 0 0 .538.932h5.226a.621.621 0 0 0 .538-.932l-2.613-4.526A.621.621 0 0 0 395.1 575.849ZM419.589 771.034l-2.612-4.525a.622.622 0 0 0-1.077 0l-2.612 4.525a.621.621 0 0 0 .538.932h5.225A.621.621 0 0 0 419.589 771.034ZM419.589 716.56l-2.612-4.525a.622.622 0 0 0-1.077 0l-2.612 4.525a.621.621 0 0 0 .538.932h5.225A.621.621 0 0 0 419.589 716.56ZM402.37 581.307H407.6a.621.621 0 0 0 .538-.932l-2.612-4.526a.622.622 0 0 0-1.077 0l-2.612 4.526A.621.621 0 0 0 402.37 581.307ZM419.589 662.086l-2.612-4.525a.621.621 0 0 0-1.077 0l-2.612 4.525a.621.621 0 0 0 .538.932h5.225A.621.621 0 0 0 419.589 662.086ZM402.37 799.2H407.6a.621.621 0 0 0 .538-.932l-2.612-4.525a.622.622 0 0 0-1.077 0l-2.612 4.525A.621.621 0 0 0 402.37 799.2ZM404.481 826.44h5.225a.621.621 0 0 0 .538-.932l-2.613-4.525a.621.621 0 0 0-1.076 0l-2.613 4.525A.622.622 0 0 0 404.481 826.44ZM414.78 817.583l-2.612-4.524a.621.621 0 0 0-1.077 0l-2.612 4.524a.622.622 0 0 0 .538.933h5.225A.622.622 0 0 0 414.78 817.583ZM413.826 826.44h5.225a.621.621 0 0 0 .538-.932l-2.612-4.525a.622.622 0 0 0-1.077 0l-2.612 4.525A.621.621 0 0 0 413.826 826.44ZM393.024 635.781h5.226a.621.621 0 0 0 .538-.932l-2.613-4.525a.621.621 0 0 0-1.076 0l-2.613 4.525A.621.621 0 0 0 393.024 635.781ZM410.244 662.086l-2.613-4.525a.621.621 0 0 0-1.076 0l-2.613 4.525a.622.622 0 0 0 .539.932h5.225A.621.621 0 0 0 410.244 662.086ZM400.711 622.4a.621.621 0 0 0-1.076 0l-2.613 4.525a.622.622 0 0 0 .539.932h5.225a.621.621 0 0 0 .538-.932ZM407.631 548.612a.621.621 0 0 0-1.076 0l-2.613 4.525a.623.623 0 0 0 .539.933h5.225a.622.622 0 0 0 .538-.933ZM409.706 608.544a.622.622 0 0 0 .538-.933l-2.613-4.525a.621.621 0 0 0-1.076 0l-2.613 4.525a.623.623 0 0 0 .539.933ZM397.561 736.805h5.225a.622.622 0 0 0 .538-.933l-2.613-4.525a.621.621 0 0 0-1.076 0l-2.613 4.525A.622.622 0 0 0 397.561 736.805ZM405.521 684.8a.621.621 0 0 0-1.077 0l-2.612 4.525a.621.621 0 0 0 .538.932H407.6a.621.621 0 0 0 .538-.932ZM406.555 712.035l-2.613 4.525a.622.622 0 0 0 .539.932h5.225a.621.621 0 0 0 .538-.932l-2.613-4.525A.621.621 0 0 0 406.555 712.035ZM397.561 682.331h5.225a.622.622 0 0 0 .538-.933l-2.613-4.525a.621.621 0 0 0-1.076 0l-2.613 4.525A.622.622 0 0 0 397.561 682.331ZM414.78 708.635l-2.612-4.525a.622.622 0 0 0-1.077 0l-2.612 4.525a.622.622 0 0 0 .538.933h5.225A.622.622 0 0 0 414.78 708.635ZM414.78 654.161l-2.612-4.525a.622.622 0 0 0-1.077 0l-2.612 4.525a.621.621 0 0 0 .538.932h5.225A.621.621 0 0 0 414.78 654.161ZM402.37 744.729H407.6a.621.621 0 0 0 .538-.932l-2.612-4.525a.622.622 0 0 0-1.077 0l-2.612 4.525A.621.621 0 0 0 402.37 744.729ZM414.78 599.687l-2.612-4.525a.622.622 0 0 0-1.077 0l-2.612 4.525a.621.621 0 0 0 .538.932h5.225A.621.621 0 0 0 414.78 599.687ZM404.481 771.966h5.225a.621.621 0 0 0 .538-.932l-2.613-4.525a.621.621 0 0 0-1.076 0l-2.613 4.525A.622.622 0 0 0 404.481 771.966ZM414.78 763.109l-2.612-4.525a.622.622 0 0 0-1.077 0l-2.612 4.525a.622.622 0 0 0 .538.933h5.225A.622.622 0 0 0 414.78 763.109ZM446.756 820.742a.6.6 0 0 0-.255-.07h-5.226a.622.622 0 0 0-.538.933l2.613 4.525a.621.621 0 0 0 1.076 0l2.437-4.221ZM465.712 627.856h5.226a.621.621 0 0 0 .538-.932l-2.613-4.525a.621.621 0 0 0-1.076 0l-2.613 4.525A.621.621 0 0 0 465.712 627.856ZM481.979 771.966H487.2a.622.622 0 0 0 .539-.932l-2.613-4.525a.621.621 0 0 0-1.076 0l-2.613 4.525A.622.622 0 0 0 481.979 771.966ZM470.522 744.729h5.225a.621.621 0 0 0 .538-.932l-2.613-4.525a.621.621 0 0 0-1.076 0l-2.613 4.525A.622.622 0 0 0 470.522 744.729ZM482.932 763.109l-2.612-4.525a.622.622 0 0 0-1.077 0l-2.612 4.525a.622.622 0 0 0 .538.933h5.225A.622.622 0 0 0 482.932 763.109ZM463.251 630.324l-2.613 4.525a.621.621 0 0 0 .538.932H466.4a.622.622 0 0 0 .539-.932l-2.613-4.525A.621.621 0 0 0 463.251 630.324ZM461.176 690.255H466.4a.622.622 0 0 0 .539-.932l-2.613-4.525a.621.621 0 0 0-1.076 0l-2.613 4.525A.621.621 0 0 0 461.176 690.255ZM465.712 736.805h5.226a.622.622 0 0 0 .538-.933l-2.613-4.525a.621.621 0 0 0-1.076 0l-2.613 4.525A.622.622 0 0 0 465.712 736.805ZM472.633 771.966h5.225a.621.621 0 0 0 .538-.932l-2.612-4.525a.622.622 0 0 0-1.077 0l-2.612 4.525A.621.621 0 0 0 472.633 771.966ZM487.019 716.757l-.266-1.908-1.624-2.814a.621.621 0 0 0-1.076 0l-2.613 4.525a.622.622 0 0 0 .539.932H487.2a.593.593 0 0 0 .263-.072l-.421-.6A.149.149 0 0 1 487.019 716.757ZM516.295 758.274h-2.058a.621.621 0 0 0-.538.932l2.612 4.525a.622.622 0 0 0 1.077 0l1.24-2.149ZM467.787 785.822l-.042.073 2.328 2.834a.15.15 0 0 0 .136.054l.338-.045-1.684-2.916A.621.621 0 0 0 467.787 785.822ZM492.92 785.8l2.186-.287h-1.671A.61.61 0 0 0 492.92 785.8ZM463.251 575.849l-2.613 4.526a.621.621 0 0 0 .538.932H466.4a.6.6 0 0 0 .223-.061 57.092 57.092 0 0 0-2.567-5.639A.617.617 0 0 0 463.251 575.849ZM461.176 744.729H466.4a.622.622 0 0 0 .539-.932l-2.613-4.525a.621.621 0 0 0-1.076 0l-2.613 4.525A.621.621 0 0 0 461.176 744.729ZM508.889 767.13l2.613 4.526a.621.621 0 0 0 1.076 0l2.612-4.526a.621.621 0 0 0-.538-.932h-5.225A.621.621 0 0 0 508.889 767.13ZM492.9 731.969l2.612 4.525a.622.622 0 0 0 1.077 0l1.953-3.383-1.464-2.074h-3.64A.621.621 0 0 0 492.9 731.969ZM476.631 654.161a.621.621 0 0 0 .538.932h1.282l-.458-3.292ZM497.433 739.894l2.612 4.524a.621.621 0 0 0 1.077 0l2.428-4.205-.883-1.252h-4.7A.622.622 0 0 0 497.433 739.894ZM419.589 553.137l-2.612-4.525a.622.622 0 0 0-1.077 0l-2.612 4.525a.622.622 0 0 0 .538.933h5.225A.621.621 0 0 0 419.589 553.137ZM451.31 758.274h-5.225a.609.609 0 0 0-.6.524l3.874 4.716 2.487-4.308A.621.621 0 0 0 451.31 758.274ZM402.37 635.781H407.6a.621.621 0 0 0 .538-.932l-2.612-4.525a.621.621 0 0 0-1.077 0l-2.612 4.525A.621.621 0 0 0 402.37 635.781ZM445.546 813.68l.672 1.163-.19-2.08A.615.615 0 0 0 445.546 813.68ZM510.116 758.274h-5.225a.621.621 0 0 0-.538.932l2.612 4.525a.622.622 0 0 0 1.077 0l2.613-4.525A.622.622 0 0 0 510.116 758.274ZM472.633 717.492h5.225a.621.621 0 0 0 .538-.932l-2.612-4.525a.622.622 0 0 0-1.077 0L472.1 716.56A.621.621 0 0 0 472.633 717.492ZM482.932 708.635l-2.612-4.525a.622.622 0 0 0-1.077 0l-2.612 4.525a.622.622 0 0 0 .538.933h5.225A.622.622 0 0 0 482.932 708.635ZM470.522 690.255h5.225a.621.621 0 0 0 .538-.932l-2.613-4.525a.621.621 0 0 0-1.076 0l-2.613 4.525A.622.622 0 0 0 470.522 690.255ZM474.707 657.561l-2.612 4.525a.621.621 0 0 0 .538.932h5.225a.621.621 0 0 0 .538-.932l-2.612-4.525A.621.621 0 0 0 474.707 657.561ZM470.522 635.781h5.225c.007 0 .012 0 .02-.006l-.334-2.4-1.761-3.048a.621.621 0 0 0-1.076 0l-2.613 4.525A.622.622 0 0 0 470.522 635.781ZM467.787 676.873l-2.613 4.525a.622.622 0 0 0 .538.933h5.226a.622.622 0 0 0 .538-.933l-2.613-4.525A.621.621 0 0 0 467.787 676.873ZM283.285 662.086l-2.612-4.525a.621.621 0 0 0-1.077 0l-2.612 4.525a.621.621 0 0 0 .538.932h5.225A.621.621 0 0 0 283.285 662.086ZM278.476 763.109l-2.613-4.525a.621.621 0 0 0-1.076 0l-2.613 4.525a.622.622 0 0 0 .539.933h5.225A.622.622 0 0 0 278.476 763.109ZM273.94 771.034l-2.612-4.525a.622.622 0 0 0-1.077 0l-2.613 4.525a.622.622 0 0 0 .539.932H273.4A.621.621 0 0 0 273.94 771.034ZM277.522 771.966h5.225a.621.621 0 0 0 .538-.932l-2.612-4.525a.622.622 0 0 0-1.077 0l-2.612 4.525A.621.621 0 0 0 277.522 771.966ZM256.72 744.729h5.225a.621.621 0 0 0 .538-.932l-2.612-4.525a.621.621 0 0 0-1.076 0l-2.613 4.525A.621.621 0 0 0 256.72 744.729ZM283.285 716.56l-2.612-4.525a.622.622 0 0 0-1.077 0l-2.612 4.525a.621.621 0 0 0 .538.932h5.225A.621.621 0 0 0 283.285 716.56ZM266.065 799.2h5.226a.621.621 0 0 0 .538-.932l-2.613-4.525a.621.621 0 0 0-1.076 0l-2.613 4.525A.621.621 0 0 0 266.065 799.2ZM256.72 690.255h5.225a.621.621 0 0 0 .538-.932l-2.612-4.525a.621.621 0 0 0-1.076 0l-2.613 4.525A.621.621 0 0 0 256.72 690.255ZM261.256 791.279h5.225a.622.622 0 0 0 .539-.932l-2.613-4.525a.621.621 0 0 0-1.076 0l-2.613 4.525A.621.621 0 0 0 261.256 791.279ZM275.272 812.762l.526.232A.6.6 0 0 0 275.272 812.762ZM256.72 799.2h5.225a.621.621 0 0 0 .538-.932l-2.612-4.525a.621.621 0 0 0-1.076 0l-2.613 4.525A.621.621 0 0 0 256.72 799.2ZM367.43 848.842a.622.622 0 0 0-.538-.933h-5.225a.622.622 0 0 0-.539.933l1.431 2.478 2.741 1.211Z" fill="#ae8e57" class="color579fae svgShape"></path>
  <path d="M241.005 774.12a37.213 37.213 0 0 1-5.9 20.15 49.772 49.772 0 0 1-21.74-50.03l1.01-5.88A37.32 37.32 0 0 1 241.005 774.12ZM284.8 546.15a37.35 37.35 0 0 1-43.319 36.83 53.664 53.664 0 0 1 43.31-37.32C284.8 545.82 284.8 545.99 284.8 546.15ZM462.026 572.01a36.917 36.917 0 0 1-10.09 1.39 37.317 37.317 0 0 1-36.28-28.58A57.267 57.267 0 0 1 462.026 572.01ZM401.286 553.08a37.32 37.32 0 1 1-73.77-8.02c24.34-.05 50.4-.15 72.84-.25h.01A37.565 37.565 0 0 1 401.286 553.08Z" fill="#ae8e57" class="color579fae svgShape"></path>
  <path d="M366.36,442.94l47.179,19.067c12.119,81.384-22.557,77.614-22.557,77.614l-.008,12.44a26.078,26.078,0,0,1-29.682,25.806h0a26.074,26.074,0,0,1-22.216-29.431l7.421-53.131-9.272-1.3h0a14.2,14.2,0,0,1-12.1-16.024h0q.106-.765.283-1.518a16.958,16.958,0,0,1,20.376-12.649l4.819,1.127Z" fill="#ffe8c1" class="colorffc1c2 svgShape"></path>
  <path d="M332.8,480.6c-.01-.048-.9-4.932,1.736-7.494,1.752-1.7,4.76-2.095,8.951-1.174l.566-2.58c-5.118-1.122-8.944-.494-11.367,1.872-3.653,3.569-2.528,9.62-2.477,9.877Z" fill="#edcf9c" class="colored9c9c svgShape"></path>
  <path d="M369.857 474.632a.744.744 0 0 1 .477-.938l14.042-4.709a3.306 3.306 0 0 1 3.905 1.461l.377.644a2.116 2.116 0 0 1-1.712 3.185l-16.336.87A.745.745 0 0 1 369.857 474.632ZM420.171 477.515a.652.652 0 0 0-.3-.872l-11.649-5.711a2.9 2.9 0 0 0-3.56.818l-.4.516a1.848 1.848 0 0 0 1.12 2.962l14.084 2.642A.652.652 0 0 0 420.171 477.515Z" fill="#7b5c32" class="color32477b svgShape"></path>
  <path d="M390.975,552.223a44.466,44.466,0,0,1-25.355-16.145c7.528,3.736,25.362,3.543,25.362,3.543Z" fill="#edcf9c" class="colored9c9c svgShape"></path>
  <path d="M408.02,402.479s11.828-21.3-14.043-20.482c-14.23.451-28.743,12.668-38.923,23.573A187.283,187.283,0,0,1,329.3,428.7a32.262,32.262,0,0,0-7.757,7.979c-12.6,18.67-4.973,51.847,22.032,79.546l2.921-20.916-9.284-1.3-.015,0a14.041,14.041,0,0,1-12.222-13.265,16.751,16.751,0,0,1,.439-4.28,16.957,16.957,0,0,1,20.377-12.645,6.14,6.14,0,0,1,4.743,6.066l-.118,8.152a1.584,1.584,0,0,0,1.24,1.567,1.643,1.643,0,0,0,1.759-.841l10.39-18.4c.055-.1.114-.194.176-.288a4.6,4.6,0,0,1,6.376-1.3c7.617,5.1,25.134,14.341,43.731,6.985A46.559,46.559,0,0,0,429.619,455.4C459.46,426.155,424.528,396.733,408.02,402.479Z" fill="#7b5c32" class="color32477b svgShape"></path>
  <path d="M401.712,484.754c1.331,1.038,1.281,3.885.731,5.939s-1.429,4.137-1.125,6.3c.29,2.064,1.618,3.649,1.7,5.753.11,2.759-1.97,5.042-1.672,7.771.183,1.68,1.212,2.855,1.757,4.358a7.977,7.977,0,0,1,.108,4.842,16.78,16.78,0,0,0-.957,2.971c-.248,2.034.915,3.794,1.976,5.158a9.947,9.947,0,0,0,6.783,2.466,8.728,8.728,0,0,0,1.412-.19c1.9-.414,3.242-3.179,2.605-5.828a4.506,4.506,0,0,1-.11-1.606,16.862,16.862,0,0,1,.957-2.971,7.977,7.977,0,0,0-.108-4.842c-.545-1.5-1.574-2.678-1.757-4.358-.3-2.729,1.782-5.012,1.672-7.771-.083-2.1-1.411-3.689-1.7-5.753-.3-2.161.574-4.244,1.125-6.3s.6-4.9-.731-5.939Z" fill="#fffcf2" class="colorf0f8fa svgShape"></path>
  <polygon points="405.196 503.988 398.474 484.985 395.984 485.865 401.859 502.472 391.469 506.601 392.444 509.054 405.196 503.988" fill="#edcf9c" class="colored9c9c svgShape"></polygon>
  <path d="M402.051,484.569c.03,0,.06.007.09.008l13.777.684a.94.94,0,1,0,.093-1.878l-13.777-.684a.941.941,0,0,0-.183,1.87Z" fill="#7b5c32" class="color32477b svgShape"></path>
  <path d="M387.612,482.308c-1.331,1.037-1.281,3.884-.731,5.938s1.429,4.137,1.126,6.3c-.291,2.064-1.619,3.649-1.7,5.753-.11,2.759,1.97,5.042,1.672,7.771-.183,1.68-1.212,2.855-1.757,4.358a7.981,7.981,0,0,0-.108,4.843,16.743,16.743,0,0,1,.957,2.97c.248,2.034-.916,3.794-1.976,5.158a9.053,9.053,0,0,1-6.115,3.032,7.344,7.344,0,0,1-2.445-.345c-1.919-.6-2.892-3.529-2.241-6.238a4.491,4.491,0,0,0,.111-1.607,16.825,16.825,0,0,0-.957-2.97,7.965,7.965,0,0,1,.108-4.843c.545-1.5,1.574-2.678,1.757-4.358.3-2.729-1.782-5.012-1.673-7.771.084-2.1,1.412-3.689,1.7-5.753.3-2.161-.575-4.244-1.125-6.3s-.6-4.9.731-5.938Z" fill="#fffcf2" class="colorf0f8fa svgShape"></path>
  <path d="M380.923,520.421l15.809,2.967a.65.65,0,0,0,.769-.711c-.339-2.757-2.537-10.734-16.748-3.486A.657.657,0,0,0,380.923,520.421Z" fill="#edcf9c" class="colored9c9c svgShape"></path>
  <path d="M374.1,482.318c.03,0,.059.007.089.009l13.777.684a.941.941,0,1,0,.093-1.879l-13.776-.684a.941.941,0,0,0-.183,1.87Z" fill="#7b5c32" class="color32477b svgShape"></path>
  <path d="M267.638 553.137a.622.622 0 0 0 .539.933H273.4a.622.622 0 0 0 .538-.933l-2.187-3.789c-.889.378-1.762.786-2.625 1.21ZM268.14 684.8l-2.613 4.525a.621.621 0 0 0 .538.932h5.226a.621.621 0 0 0 .538-.932l-2.613-4.525A.621.621 0 0 0 268.14 684.8ZM283.285 607.611l-2.612-4.525a.622.622 0 0 0-1.077 0l-2.612 4.525a.622.622 0 0 0 .538.933h5.225A.622.622 0 0 0 283.285 607.611ZM283.285 553.137l-2.612-4.525a.622.622 0 0 0-1.077 0l-2.612 4.525a.622.622 0 0 0 .538.933h5.225A.622.622 0 0 0 283.285 553.137ZM264.407 567.925a.621.621 0 0 0-1.076 0l-2.613 4.525a.621.621 0 0 0 .538.932h5.225a.622.622 0 0 0 .539-.932ZM266.065 744.729h5.226a.621.621 0 0 0 .538-.932l-2.613-4.525a.621.621 0 0 0-1.076 0l-2.613 4.525A.621.621 0 0 0 266.065 744.729ZM261.256 736.805h5.225a.622.622 0 0 0 .539-.933l-2.613-4.525a.621.621 0 0 0-1.076 0l-2.613 4.525A.622.622 0 0 0 261.256 736.805ZM273.94 716.56l-2.612-4.525a.622.622 0 0 0-1.077 0l-2.613 4.525a.622.622 0 0 0 .539.932H273.4A.621.621 0 0 0 273.94 716.56ZM269.216 630.324a.621.621 0 0 0-1.076 0l-2.613 4.525a.621.621 0 0 0 .538.932h5.226a.621.621 0 0 0 .538-.932ZM278.476 708.635l-2.613-4.525a.621.621 0 0 0-1.076 0l-2.613 4.525a.622.622 0 0 0 .539.933h5.225A.622.622 0 0 0 278.476 708.635ZM261.256 682.331h5.225a.622.622 0 0 0 .539-.933l-2.613-4.525a.621.621 0 0 0-1.076 0l-2.613 4.525A.622.622 0 0 0 261.256 682.331ZM264.407 622.4a.621.621 0 0 0-1.076 0l-2.613 4.525a.621.621 0 0 0 .538.932h5.225a.622.622 0 0 0 .539-.932ZM269.216 575.849a.621.621 0 0 0-1.076 0l-2.613 4.526a.621.621 0 0 0 .538.932h5.226a.621.621 0 0 0 .538-.932ZM383.158 594.851h-5.225a.621.621 0 0 0-.538.933l2.612 4.525a.622.622 0 0 0 1.077 0l2.612-4.525A.622.622 0 0 0 383.158 594.851ZM278.476 654.161l-2.613-4.525a.621.621 0 0 0-1.076 0l-2.613 4.525a.622.622 0 0 0 .539.932h5.225A.621.621 0 0 0 278.476 654.161ZM258.8 575.849l-2.613 4.526a.621.621 0 0 0 .538.932h5.225a.621.621 0 0 0 .538-.932l-2.612-4.526A.621.621 0 0 0 258.8 575.849ZM256.72 635.781h5.225a.621.621 0 0 0 .538-.932l-2.612-4.525a.621.621 0 0 0-1.076 0l-2.613 4.525A.621.621 0 0 0 256.72 635.781ZM270.251 603.086l-2.613 4.525a.622.622 0 0 0 .539.933H273.4a.622.622 0 0 0 .538-.933l-2.612-4.525A.622.622 0 0 0 270.251 603.086ZM278.476 599.687l-2.613-4.525a.621.621 0 0 0-1.076 0l-2.613 4.525a.622.622 0 0 0 .539.932h5.225A.621.621 0 0 0 278.476 599.687ZM449.235 709.257l2.613-4.525a.621.621 0 0 0-.538-.932h-5.225a.622.622 0 0 0-.539.932l2.613 4.525A.621.621 0 0 0 449.235 709.257ZM424.745 786.443l2.612 4.525a.622.622 0 0 0 1.077 0l2.612-4.525a.621.621 0 0 0-.538-.932h-5.225A.621.621 0 0 0 424.745 786.443ZM431.893 798.893a.622.622 0 0 0 1.077 0l2.612-4.525a.622.622 0 0 0-.538-.933h-5.225a.622.622 0 0 0-.538.933ZM424.745 731.969l2.612 4.525a.622.622 0 0 0 1.077 0l2.612-4.525a.621.621 0 0 0-.538-.932h-5.225A.621.621 0 0 0 424.745 731.969ZM430.508 567.614h-5.225a.621.621 0 0 0-.538.932l2.612 4.525a.621.621 0 0 0 1.077 0l2.612-4.525A.621.621 0 0 0 430.508 567.614ZM437.779 790.968l2.612-4.525a.621.621 0 0 0-.538-.932h-5.225a.621.621 0 0 0-.538.932l2.613 4.525A.621.621 0 0 0 437.779 790.968ZM424.745 677.5l2.612 4.525a.622.622 0 0 0 1.077 0l2.612-4.525a.621.621 0 0 0-.538-.932h-5.225A.621.621 0 0 0 424.745 677.5ZM424.745 623.021l2.612 4.525a.622.622 0 0 0 1.077 0l2.612-4.525a.622.622 0 0 0-.538-.933h-5.225A.621.621 0 0 0 424.745 623.021ZM451.31 594.851h-5.225a.622.622 0 0 0-.539.933l2.613 4.525a.621.621 0 0 0 1.076 0l2.613-4.525A.622.622 0 0 0 451.31 594.851ZM438.814 818.205a.621.621 0 0 0 1.076 0l2.613-4.525a.622.622 0 0 0-.539-.932h-5.225a.621.621 0 0 0-.538.932ZM444.277 553.906q-.656-.421-1.32-.828l.393.681A.607.607 0 0 0 444.277 553.906ZM429.281 576.471 431.893 581a.622.622 0 0 0 1.077 0l2.612-4.525a.621.621 0 0 0-.538-.932h-5.225A.621.621 0 0 0 429.281 576.471ZM451.31 649.325h-5.225a.622.622 0 0 0-.539.933l2.613 4.525a.621.621 0 0 0 1.076 0l2.613-4.525A.622.622 0 0 0 451.31 649.325ZM446.5 711.724h-5.226a.621.621 0 0 0-.538.932l2.613 4.525a.621.621 0 0 0 1.076 0l2.613-4.525A.621.621 0 0 0 446.5 711.724ZM441.275 766.2a.621.621 0 0 0-.538.932l1.337 2.317-.3-3.249ZM434.628 676.563a.621.621 0 0 0-.538.932l2.613 4.525a.621.621 0 0 0 1.076 0l2.612-4.525a.621.621 0 0 0-.538-.932ZM439.853 622.088h-5.225a.622.622 0 0 0-.538.933l2.613 4.525a.621.621 0 0 0 1.076 0l2.612-4.525A.622.622 0 0 0 439.853 622.088ZM439.853 567.614h-5.225a.621.621 0 0 0-.538.932l2.613 4.525a.621.621 0 0 0 1.076 0l2.612-4.525A.621.621 0 0 0 439.853 567.614ZM408.479 545.213a.621.621 0 0 0 .538.932h5.225a.621.621 0 0 0 .538-.932l-.238-.413c-.516-.011-1.03-.031-1.549-.029l-4.271.02ZM429.281 685.419l2.612 4.525a.621.621 0 0 0 1.077 0l2.612-4.525a.621.621 0 0 0-.538-.932h-5.225A.621.621 0 0 0 429.281 685.419ZM436.2 759.206l2.613 4.525a.621.621 0 0 0 1.076 0l1.436-2.487-.271-2.97h-4.316A.621.621 0 0 0 436.2 759.206ZM441.964 649.325h-5.225a.622.622 0 0 0-.538.933l2.613 4.525a.621.621 0 0 0 1.076 0l2.613-4.525A.622.622 0 0 0 441.964 649.325ZM429.281 630.945l2.612 4.525a.622.622 0 0 0 1.077 0l2.612-4.525a.621.621 0 0 0-.538-.932h-5.225A.621.621 0 0 0 429.281 630.945ZM444.426 662.707l2.613-4.525a.621.621 0 0 0-.538-.932h-5.226a.621.621 0 0 0-.538.932l2.613 4.525A.621.621 0 0 0 444.426 662.707ZM429.281 739.894l2.612 4.524a.621.621 0 0 0 1.077 0l2.612-4.524a.622.622 0 0 0-.538-.933h-5.225A.622.622 0 0 0 429.281 739.894ZM441.964 594.851h-5.225a.622.622 0 0 0-.538.933l2.613 4.525a.621.621 0 0 0 1.076 0l2.613-4.525A.622.622 0 0 0 441.964 594.851ZM446.5 602.776h-5.226a.621.621 0 0 0-.538.932l2.613 4.525a.621.621 0 0 0 1.076 0l2.613-4.525A.621.621 0 0 0 446.5 602.776ZM437.779 736.494l2.612-4.525a.621.621 0 0 0-.538-.932h-5.225a.621.621 0 0 0-.538.932l2.613 4.525A.621.621 0 0 0 437.779 736.494ZM441.964 703.8h-5.225a.621.621 0 0 0-.538.932l2.613 4.525a.621.621 0 0 0 1.076 0l2.613-4.525A.621.621 0 0 0 441.964 703.8Z" fill="#ae8e57" class="color579fae svgShape"></path>
  <rect width="3" height="135.172" x="435.642" y="617.708" transform="rotate(-2.895 437.089 685.205)" fill="#ae8e57" class="color579fae svgShape"></rect>
  <path d="M433.728,786.105l17.046-24.943a8.6,8.6,0,0,1,9.514-3.4l86.225,25.23a8.6,8.6,0,0,1,4.976,12.647l-41.582,69.941Z" fill="#403d39" class="color1f315f svgShape"></path>
  <path d="M501.46,869.268,403.75,831.5a6.541,6.541,0,0,1-3.651-3.52l5.991-30.83-7.55-3.52-.3-9.07a6.53,6.53,0,0,1,8.38-6.48l87.48,25.91a6.535,6.535,0,0,1,4.531,4.86l11.569,52.93A6.53,6.53,0,0,1,501.46,869.268Z" fill="#7b5c32" class="color32477b svgShape"></path>
  <polygon points="401.192 830.223 398.247 829.652 404.394 798.012 298.368 748.537 315.884 625.297 318.854 625.719 301.651 746.758 407.786 796.283 401.192 830.223" fill="#ae8e57" class="color579fae svgShape"></polygon>
  <path d="M402.3,808.814h35.068a18,18,0,0,1,9.507,2.715l21.591,13.425a4.063,4.063,0,0,1-2.146,7.514H437.7a1.925,1.925,0,0,0-.807,3.673l46.445,21.436a5.505,5.505,0,0,1-1.1,10.37l-37.433,8.39a16.913,16.913,0,0,1-14.887-3.821l-25.477-22.48a16.273,16.273,0,0,0-9.87-4.046h0Z" fill="#ffe8c1" class="colorffc1c2 svgShape"></path>
  <polygon points="402.295 808.814 402.015 847.694 394.57 845.99 402.295 808.814" fill="#edcf9c" class="colored9c9c svgShape"></polygon>
  <path d="M477.022,786.448q-1.819.162-3.643.251l-.14-2.871q1.769-.086,3.528-.242Z" fill="#252422" class="color142038 svgShape"></path>
  <path d="M488.513 784.69q-2.053.445-4.125.8l-.485-2.833q3.547-.609 7.042-1.5l.706 2.785Q490.087 784.348 488.513 784.69Zm10.256-2.842-.92-2.724c2.262-.763 4.527-1.625 6.731-2.562l1.125 2.645C503.433 780.172 501.1 781.061 498.769 781.848Zm13.652-5.8L511.1 773.5c2.114-1.092 4.224-2.285 6.27-3.545l1.507 2.447C516.771 773.694 514.6 774.923 512.421 776.049Zm12.624-7.782-1.687-2.327c1.94-1.407 3.846-2.9 5.665-4.447l1.859 2.192C529.008 765.275 527.044 766.817 525.045 768.267Zm11.306-9.6-2.023-2.041c1.705-1.691 3.357-3.463 4.906-5.266l2.18 1.875C539.814 755.092 538.111 756.92 536.351 758.665Zm9.677-11.254-2.324-1.692q.924-1.272 1.807-2.577c.766-1.136 1.486-2.281 2.14-3.4l2.483 1.447c-.685 1.176-1.439 2.376-2.243 3.564Q546.983 746.1 546.028 747.411Zm7.428-12.977-2.671-1.058a32.339 32.339 0 0 0 1.906-6.723l2.837.459A35.13 35.13 0 0 1 553.456 734.434ZM555.612 719.359l-2.841.438a18.5 18.5 0 0 0-.581-2.564c-.893-.292-1.793-.581-2.7-.858l.841-2.748c1.156.353 2.307.728 3.448 1.1l.677.223.233.673A21.583 21.583 0 0 1 555.612 719.359Z" fill="#7b5c32" class="color32477b svgShape"></path>
  <path d="m593.54 740.087-.614-2.808c2.377-.52 4.754-1.105 7.064-1.737l.758 2.773C598.39 738.959 595.965 739.556 593.54 740.087Zm-7.29 1.4c-2.44.4-4.912.748-7.351 1.025l-.323-2.857c2.39-.27 4.814-.608 7.206-1Zm-14.743 1.672c-2.463.152-4.959.243-7.417.27l-.032-2.874c2.41-.026 4.857-.115 7.27-.264Zm-14.84.161c-2.466-.1-4.958-.268-7.405-.5l.264-2.86c2.4.221 4.842.385 7.26.483Zm-14.8-1.4a38.468 38.468 0 0 1-7.386-1.883l1.014-2.688a35.738 35.738 0 0 0 6.838 1.736Zm-14.146-5.848a16.712 16.712 0 0 1-4.526-6.559l2.695-.994a14 14 0 0 0 3.756 5.416Zm-2.041-13.8-2.726-.912a13.173 13.173 0 0 1 4.926-6.442l1.68 2.332A10.321 10.321 0 0 0 525.68 722.268Zm16.878-7.552a23.149 23.149 0 0 0-5.713-.186q-.572.057-1.147.159l-.5-2.83q.678-.12 1.358-.188a25.862 25.862 0 0 1 6.418.2ZM607.9 736.156l-.9-2.728q1.686-.557 3.361-1.158l.971 2.7Q609.624 735.588 607.9 736.156Z" fill="#7b5c32" class="color32477b svgShape"></path>
  <circle cx="620.454" cy="726.093" r="5.658" fill="#7b5c32" class="color32477b svgShape"></circle>
  <path d="M618.944 727.464s-12.819 4.3-12.947-1.548 13.506-2.34 13.506-2.34S621.347 724.967 618.944 727.464ZM620.142 728.181s-4.416 12.78 1.434 12.959 2.458-13.484 2.458-13.484S622.66 725.8 620.142 728.181Z" fill="#fffcf2" class="colorf0f8fa svgShape"></path>
</svg>
