<svg xmlns="http://www.w3.org/2000/svg" viewBox="0 0 3000 3000" id="Digitalpaymentapplication">
  <defs>
    <linearGradient id="a" x1="598.08" x2="2452.049" y1="1870.092" y2="-1018.302" gradientTransform="rotate(1.142 230.631 -1648.532)" gradientUnits="userSpaceOnUse">
      <stop offset="0" stop-color="#f2b040" class="stopColor4094f2 svgShape"></stop>
      <stop offset=".18" stop-color="#f5c572" class="stopColor72b0f5 svgShape"></stop>
      <stop offset=".371" stop-color="#f8d79f" class="stopColor9fcaf8 svgShape"></stop>
      <stop offset=".553" stop-color="#fbeec3" class="stopColorc3dffb svgShape"></stop>
      <stop offset=".724" stop-color="#fdf6dd" class="stopColorddedfd svgShape"></stop>
      <stop offset=".878" stop-color="#fefaec" class="stopColorecf6fe svgShape"></stop>
      <stop offset="1" stop-color="#fffcf2" class="stopColorf2faff svgShape"></stop>
    </linearGradient>
  </defs>
  <g fill="#000000" class="color000000 svgShape">
    <g fill="#000000" class="color000000 svgShape">
      <path fill="#ccc5b9" d="M2353.607,2767.555c97.879,7.88,167.752-59.781,166.054-119.715-1.146-40.422-34.906-79.386-81.096-100.403,21.935-20.672,27.646-51.252,15.444-73.375-11.502-20.856-34.491-26.153-38.616-27.031,35.749-42.403,36.309-100.974,7.724-135.162-35.452-42.395-114.635-45.979-162.194,7.724-5.679-8.235-23.018-30.984-50.203-34.756-37.973-5.267-82.535,28.251-96.543,84.96-70.871-45.274-119.009-39.404-139.022-34.756-107.825,25.043-191.38,198.621-166.054,432.515,181.502,0,363.004,0,544.506,0Z" class="coloraeb4e5 svgShape"></path>
      <path fill="#fbefc8" d="M1680.694,2768.183c-21.891-28.213-50.908-71.023-73.375-126.957-31.268-77.852-66.969-223.788-7.724-253.912,13.28-6.751,41.058-12.633,100.407,16.704-4.472-19.733-51.914-236.422,23.171-263.934,13.239-4.85,41.408-7.895,96.543,30.068,5.841-74.449,29.353-177.447,111.991-247.23,18.38-15.52,59.279-50.057,92.68-40.091,6.402,1.909,29.49,10.515,42.479,66.82,9.155,39.678,18.641,126.242-50.203,253.912,4.592-3.101,57.406-37.823,100.406-20.047,24.94,10.312,34.414,33.256,38.616,43.433,36.477,88.34-93.373,239.328-111.988,260.595,69.297-12.895,90.473,3.934,96.543,10.022,37.073,37.188-31.019,133.512-65.651,173.729-43.275,50.257-92.521,80.506-123.574,96.888-90.107,0-180.216,0-270.321,0Z" class="colorc8d9fb svgShape"></path>
      <path fill="#ccc5b9" d="M529.664 2768.183c-2.88-2.086-54.331-40.685-48.963-102.827 3.884-44.971 36.565-91.167 83.24-97.93 52.186-7.565 109.688 35.925 117.517 102.827 1.131-2.421 19.109-39.236 58.758-44.069 33.746-4.116 67.038 16.9 78.346 48.964 12.31 34.909-4.075 75.41-39.172 93.036-83.243 0-166.483 0-249.726 0ZM1311.614 2768.183c-2.88-2.086-54.331-40.685-48.963-102.827 3.884-44.971 36.565-91.167 83.24-97.93 52.186-7.565 109.688 35.925 117.517 102.827 1.131-2.421 19.109-39.236 58.758-44.069 33.746-4.116 67.038 16.9 78.346 48.964 12.31 34.909-4.075 75.41-39.172 93.036-83.243 0-166.483 0-249.726 0Z" class="coloraeb4e5 svgShape"></path>
      <path fill="#fbefc8" d="M1178.273,2508.667c61.444-115.04,35.288-251.222-53.861-323.172-67.858-54.765-168.59-69.397-244.829-29.379-108.324,56.855-158.921,219.689-83.241,367.24-52.865-41.938-120.379-42.673-156.688-9.795-51.593,46.716-13.771,137.369-9.795,146.896,33.007,79.11,114.258,103.962,127.312,107.725,160.161,0,320.321,0,480.483,0,22.581-6.637,73.093-24.908,111.997-73.448,29.813-37.197,73.874-118.449,39.174-171.378-31.812-48.523-124.345-64.905-210.553-14.69Z" class="colorc8d9fb svgShape"></path>
    </g>
    <g fill="#000000" class="color000000 svgShape">
      <path fill="#fbefc8" d="M2235.865 788.075c-4.95-.939-8.889-4.878-9.828-9.828-1.527-8.054-4.107-13.369-7.058-13.369s-5.531 5.315-7.058 13.369c-.94 4.95-4.879 8.89-9.828 9.828-8.055 1.527-13.37 4.109-13.37 7.058s5.315 5.531 13.37 7.058c4.95.939 8.889 4.878 9.828 9.828 1.527 8.054 4.107 13.37 7.058 13.37s5.531-5.316 7.058-13.37c.94-4.95 4.879-8.89 9.828-9.828 8.055-1.527 13.37-4.108 13.37-7.058s-5.315-5.531-13.37-7.058ZM1056.589 1837.972c-4.95-.939-8.889-4.878-9.828-9.828-1.527-8.054-4.107-13.369-7.058-13.369s-5.531 5.315-7.058 13.369c-.94 4.95-4.879 8.89-9.828 9.828-8.055 1.527-13.37 4.109-13.37 7.058s5.315 5.531 13.37 7.058c4.95.939 8.889 4.878 9.828 9.828 1.527 8.054 4.107 13.37 7.058 13.37s5.531-5.316 7.058-13.37c.94-4.95 4.879-8.89 9.828-9.828 8.055-1.527 13.37-4.108 13.37-7.058s-5.315-5.531-13.37-7.058ZM562.899 943.593c-4.95-.939-8.889-4.878-9.828-9.828-1.527-8.054-4.107-13.369-7.058-13.369s-5.531 5.315-7.058 13.369c-.94 4.95-4.879 8.89-9.828 9.828-8.055 1.527-13.37 4.109-13.37 7.058s5.315 5.531 13.37 7.058c4.95.939 8.889 4.878 9.828 9.828 1.527 8.054 4.107 13.37 7.058 13.37s5.531-5.316 7.058-13.37c.94-4.95 4.879-8.89 9.828-9.828 8.055-1.527 13.37-4.108 13.37-7.058s-5.315-5.531-13.37-7.058Z" class="colorc8d9fb svgShape"></path>
    </g>
  </g>
  <g fill="#000000" class="color000000 svgShape">
    <g fill="#000000" class="color000000 svgShape">
      <g fill="#000000" class="color000000 svgShape">
        <path fill="#d7bc8e" d="M1368.201,2565.132c-.976,6.368-27.288,101.285-31.635,128.229-11.772,11.235-77.3.585-80.544-14.042-3.245-14.619,19.804-130.328,19.804-130.328l92.376,16.14Z" class="colord7a28e svgShape"></path>
        <path fill="#f2ba5a" d="M1348.964,2784.206c-9.503,4.571-216.865,6.688-237.258,7.312-20.396.62-14.794-72.99,48.151-76.39l72.625-62.305c2.846-14.836,6.804-31.293,10.6-38.035,6.885-12.052,37.562-14.401,57.665-1.779,9.334,5.895,13.746,18.687,15.344,31.482,20.115-.173,35.213,1.71,36.853,12.78,2.272,15.31,5.576,122.358-3.981,126.936Z" class="colorf2c65a svgShape"></path>
        <path fill="#403d39" d="M1222.359 2746.325c-1.844-7.108-33.473-37.304-65.355-30.592 0 0 13.719-21.559 44.936-5.414 23.049 11.921 20.419 36.006 20.419 36.006ZM1311.969 2710.368c.354 11.621 7.736 20.82 16.484 20.55 8.745-.27 15.545-9.907 15.19-21.521-.358-11.617-7.74-20.816-16.484-20.55-8.748.27-15.552 9.907-15.19 21.521Z" class="color383b4b svgShape"></path>
        <g fill="#000000" class="color000000 svgShape">
          <path fill="#efe9d5" d="M1246.86 2701.759c-9.103-4.771-54.288-6.246-44.454-12.637 9.834-6.392 43.7-.27 46.445 7.528 2.749 7.797-1.991 5.11-1.991 5.11ZM1260.345 2685.972c-9.103-4.771-54.288-6.246-44.454-12.641 9.834-6.392 43.696-.27 46.445 7.524 2.745 7.801-1.991 5.117-1.991 5.117ZM1273.833 2670.177c-9.11-4.767-54.288-6.242-44.458-12.634 9.834-6.392 43.7-.273 46.449 7.524 2.745 7.797-1.991 5.11-1.991 5.11Z" class="colord5efe8 svgShape"></path>
        </g>
        <path fill="#403d39" d="M1353.87,2765.423c-.008-.158-91.315,7.031-142.45,8.325-5.714.142-10.793-14.355-61.993-13.496-35.463.077-47.119,11.671-48.324,12.953-2.253,2.395-6.049,24.589,4.028,26.049,10.073,1.459,240.326-3.462,244.092-7.516,7.455-8.021,4.648-26.314,4.648-26.314Z" class="color383b4b svgShape"></path>
      </g>
      <path fill="#ce4a17" d="M1398.611,1172.718l-7.812,74.898-163.883,1345.17,145.963,28.761s294.803-1146.622,321.889-1247.329c11.89-44.209,36.14-135.965,53.429-201.501h-349.586Z" class="colorce8c17 svgShape"></path>
      <path fill="#eb5e28" d="M1398.646,1172.718l7.062,104.782,119.225,9.01s49.448,350.847,56.194,360.285c6.751,9.435-22.248,215.065-48.443,213.154-26.199-1.785-77.796-36.217-67.873-11.35,9.923,24.867,59.802,43.614,44.721,50.498-14.953,6.889-106.241-44.76-102.271-16.067,3.971,28.694,87.318,34.175,83.352,81.233-3.442,41.064-127.279,527.702-158.368,649.235l40.615,8.032s294.768-1146.581,321.892-1247.326c11.942-44.185,36.2-135.953,53.482-201.486h-349.588Z" class="colorce7728 svgShape"></path>
      <g fill="#000000" class="color000000 svgShape">
        <path fill="#d7bc8e" d="M1889.065,2550.956c.393,6.916-1.652,114.337-.285,143.632-11.902,14.543-81.138,16.118-88.893,1.525-7.763-14.593-8.136-141.418-8.136-141.418l97.314-3.739Z" class="colord7a28e svgShape"></path>
        <path fill="#f2ba5a" d="M1904.097,2796.939c-9.484,4.605-216.838,7.458-237.231,8.144-20.392.693-15.052-72.933,47.881-76.556l72.401-62.556c2.792-14.848,6.696-31.32,10.47-38.074,6.842-12.083,37.512-14.536,57.662-1.991,9.353,5.868,13.808,18.644,15.452,31.436,20.115-.25,35.221,1.586,36.9,12.649,2.326,15.302,6.007,122.335-3.535,126.948Z" class="colorf2c65a svgShape"></path>
        <path fill="#403d39" d="M1777.361 2759.504c-1.871-7.108-33.603-37.184-65.463-30.361 0 0 13.639-21.609 44.916-5.572 23.092 11.837 20.546 35.933 20.546 35.933ZM1866.84 2723.236c.397 11.617 7.813 20.785 16.557 20.489 8.745-.3 15.51-9.961 15.113-21.578-.397-11.609-7.809-20.785-16.553-20.485-8.748.3-15.518 9.957-15.117 21.574Z" class="color383b4b svgShape"></path>
        <g fill="#000000" class="color000000 svgShape">
          <path fill="#efe9d5" d="M1801.7 2714.85c-9.118-4.736-54.308-6.049-44.497-12.476 9.811-6.43 43.696-.427 46.476 7.358 2.772 7.79-1.979 5.117-1.979 5.117ZM1815.131 2699.016c-9.118-4.74-54.308-6.053-44.497-12.483 9.811-6.427 43.696-.424 46.472 7.362 2.772 7.79-1.975 5.121-1.975 5.121ZM1828.558 2683.179c-9.118-4.74-54.308-6.057-44.493-12.483 9.811-6.427 43.696-.424 46.472 7.366 2.772 7.786-1.979 5.117-1.979 5.117Z" class="colord5efe8 svgShape"></path>
        </g>
        <path fill="#403d39" d="M1908.934,2778.137c-.004-.158-91.288,7.354-142.419,8.833-5.71.162-10.843-14.32-62.04-13.28-35.467.2-47.076,11.837-48.278,13.123-2.245,2.403-5.964,24.609,4.12,26.033,10.081,1.425,240.315-4.309,244.061-8.375,7.432-8.051,4.555-26.334,4.555-26.334Z" class="color383b4b svgShape"></path>
      </g>
      <polygon fill="#ce4a17" points="1514.668 1172.718 1554.568 1243.884 1771.496 2602.976 1909.157 2589.447 1919.51 1172.718 1514.668 1172.718" class="colorce8c17 svgShape"></polygon>
      <path fill="#eb5e28" d="M1514.727,1172.718l39.844,71.204,57.229,449.989-23.948-425.681s199.511,42.845,252.564,8.414c0,0,33.21,541.349,9.395,550.914-23.815,9.565-124.496,0-93.933,22.952,30.427,22.955,107.826,22.955,82.027,32.52-25.802,9.564-73.826,22.191-57.689,32.138,16.01,9.947,83.752-14.92,86.66,38.64,2.78,53.56,42.337,635.588,42.337,635.588l10.268-1416.678h-404.756Z" class="colorce7728 svgShape"></path>
      <polygon fill="#c14c1f" points="1535.949 1172.718 1505.153 1172.718 1550.015 1269.474 1622.614 1670.203 1570.883 1232.334 1535.949 1172.718" class="colorc1681f svgShape"></polygon>
    </g>
    <path fill="#d7bc8e" d="M1354.639,854.368s-212.783,197.285-198.718,264.046c14.065,66.762,122.094,88.808,155.015,75.371,32.921-13.437,161.475-195.528,161.475-195.528l-117.772-143.889Z" class="colord7a28e svgShape"></path>
    <path fill="#f2ba5a" d="M1537.434,601.411c11.913-8.467,40.618-25.45,40.618-25.45l2.984,258.673c4.023,43.463-125.855,183.019-132.884,188.314-7.025,5.294-134.028-94.827-137.145-174.677-1.104-28.344,214.511-238.392,226.427-246.859Z" class="colorf2c65a svgShape"></path>
    <path fill="#f2ba5a" d="M1778.27,563.551l58.586,26.775s105.674,615.803,89.104,637.978c-16.562,22.175-107.318,38.026-192.53,36.779-85.215-1.247-331.435-18.781-347.256-60.267-15.816-41.49,191.876-628.855,191.876-628.855l59.305-21.69,140.914,9.28Z" class="colorf2c65a svgShape"></path>
    <path fill="#ea4f13" d="M1386.138,1204.812c15.816,41.486,262.081,59.036,347.259,60.234,85.26,1.28,175.986-14.538,192.526-36.707,6.13-8.204-4.295-96.826-20.004-205.542-6.409-11.916-14.25-20.987-23.542-25.901l-44.355-142.528c.996,7.916-38.502,130.924-70.382,143.889-253.969,103.283-302.418-41.477-295.23-111.928-57.945,170.404-95.244,294.871-86.274,318.483Z" opacity=".5" class="coloreab213 svgShape"></path>
    <path fill="#e2511a" d="M1499.2,829.672s-76.002,310.254-85.6,308.391c-9.598-1.863,67.545-287.958,85.6-308.391Z" class="colore2a01a svgShape"></path>
    <path fill="#ea4f13" d="M1747.336,811.432c-35.522-5.655-7.263,43.604-60.339,38.929-53.072-4.677-13.164-78.338-55.253-54.646-42.085,23.689-21.433,31.431-42.085,23.689-20.656-7.742,5.604-42.478-9.034-30.048-14.642,12.428-54.42,70.415-4.553,67.969,49.871-2.444,42.781-32.88,44.414-16.627,1.637,16.254-13.663,43.503,74.282,36.036,87.945-7.469,64.274-63.439,52.568-65.302Z" class="coloreab213 svgShape"></path>
    <g fill="#000000" class="color000000 svgShape">
      <g fill="#000000" class="color000000 svgShape">
        <path fill="#ea4f13" d="M1637.356,554.27s16.353,51.894,54.34,55.855c37.987,3.962,75.017-23.662,86.574-45.682,0,0-64.002-26.322-140.914-10.174Z" class="coloreab213 svgShape"></path>
        <path fill="#d7bc8e" d="M1700.341,480.271l67.15-37.675-3.87,121.987s-25.141,22.15-62.476,18.311c-33.329-6.718-45.658-24.833-45.658-24.833,0,0,44.343-76.124,44.853-77.791Z" class="colord7a28e svgShape"></path>
        <path fill="#ccaf7d" d="M1664.333,542.83c18.048-1.189,61.842-5.676,73.061-22.086,11.866-17.292,18.323-58.868,20.219-72.604l-57.247,32.088c-.418,1.235-23.092,40.338-36.033,62.602Z" class="colorcc8f7d svgShape"></path>
        <g fill="#000000" class="color000000 svgShape">
          <g fill="#000000" class="color000000 svgShape">
            <path fill="#403d39" d="M1624.202,367.044s-37.296.414-48.009-23.342c-10.709-23.749,12.708-37.967,12.708-37.967,0,0-47.748-37.4-11.316-71.715,36.432-34.312,76.692-6.672,76.692-6.672,0,0,36.871-55.809,79.026-18.341,42.158,37.464,55.822,25.373,70.759,38.963,30.062,27.351,24.038,162.643-8.642,162.339-32.681-.307-166.159,35.604-171.217-43.265Z" class="color383b4b svgShape"></path>
            <path fill="#d7bc8e" d="M1594.42,409.491c-.593,7.264-.932,14.561-1.085,21.886-.828,40.37,5.28,79.058,29.022,91.231,55.805,28.558,132.743-46.406,132.743-46.406l14.207-31.085s33.445-3.663,38.349-20.576c4.915-16.906-2.984-46.067-30.317-36.404,0,0-8.635,20.719-16.903,14.789-8.278-5.836.071-48.887.071-48.887,0,0,.38-33.911-27.626-21.483-47.011,20.862-79.667-25.422-79.667-25.422,0,0-31.47,36.543-45.019,11.915,0,0-10.352,43.333-13.775,90.442Z" class="colord7a28e svgShape"></path>
            <path fill="#403d39" d="M1638.365,435.701c-2.111-1.312-4.062-3.302-5.147-6.322-2.216-6.177,2.575-9.165,6.075-11.344,2.233-1.391,4.546-2.833,5.882-4.982,2.418-3.889,3.997-12.624,5.046-18.401.824-4.566,1.142-6.193,1.756-7.18.752-1.209,2.339-1.58,3.548-.828,1.171.728,1.554,2.246.893,3.435-.254.666-.72,3.226-1.127,5.491-1.183,6.535-2.804,15.481-5.74,20.203-1.969,3.167-4.926,5.008-7.539,6.636-4.09,2.547-4.642,3.282-3.946,5.232,1.891,5.288,8.796,5.427,9.096,5.441,1.424.026,2.561,1.189,2.546,2.596-.012,1.42-1.167,2.563-2.583,2.554-.285,0-4.794-.065-8.76-2.531ZM1656.353,390.191l.056.035-.056-.035Z" class="color383b4b svgShape"></path>
            <path fill="#fffcf2" d="M1670.045,470.479s-1.208-2.92-4.105-3.77c-4.344-1.286-11.8,3.258-18.072,3.855-6.27.59-14.272-5.16-17.387-6.672-4.546-2.212-8.829,4.001-7.669,8.426.747,2.877,5.776,13.497,21.711,15.707,14.381,1.991,23.801-6.471,25.553-10.584,1.758-4.123-.032-6.962-.032-6.962Z" class="colorffffff svgShape"></path>
            <path fill="#403d39" d="M1791.486,400.31c-6.375,3.148-19.373,15.55-14.846,27.772,0,0,1.385-7.357,6.172-11.055l10.688-2.57-9.663-2.624,7.65-11.523Z" class="color383b4b svgShape"></path>
          </g>
          <path fill="#ccaf7d" d="M1715.012 443.257c-.6 6.379-8.921 10.795-18.58 9.867-9.656-.925-16.981-6.847-16.371-13.233.614-6.375 8.935-10.798 18.587-9.877 9.656.942 16.985 6.857 16.364 13.244ZM1594.42 409.491c-.593 7.264-.932 14.561-1.085 21.886 6.832-.892 11.991-4.698 12.465-9.645.51-5.219-4.305-10.149-11.38-12.241Z" class="colorcc8f7d svgShape"></path>
          <g fill="#000000" class="color000000 svgShape">
            <path fill="#403d39" d="M1643.723 363.303c-.415-.12-.83-.288-1.212-.529-.207-.117-19.615-12.243-35.631-14.935-2.302-.444-3.886-2.619-3.482-4.938.399-2.332 2.614-3.883 4.942-3.499 17.65 3.115 41.308 20.004 40.063 22.021-1.023 1.609-2.922 2.319-4.681 1.88ZM1625.791 384.146c-1.246 4.616-5.662 7.436-9.863 6.304-4.198-1.124-6.593-5.786-5.355-10.395 1.239-4.608 5.654-7.436 9.849-6.301 4.198 1.124 6.593 5.776 5.369 10.391Z" class="color383b4b svgShape"></path>
          </g>
          <path fill="#403d39" d="M1679.767 359.129c-1.585-.503-2.809-1.91-2.966-3.68-.221-2.345 28.504-6.868 45.678-1.646 2.11.332 3.523 3.07 2.838 5.337-.693 2.26-3.066 3.53-5.337 2.845-15.535-4.723-38.303-2.692-38.531-2.677-.575.061-1.16-.007-1.681-.178ZM1684.088 386.013c-1.242 4.626 1.167 9.278 5.358 10.409 4.209 1.124 8.614-1.696 9.856-6.308 1.246-4.612-1.164-9.271-5.355-10.395-4.209-1.139-8.617 1.688-9.86 6.293Z" class="color383b4b svgShape"></path>
        </g>
      </g>
      <path fill="#fbefc8" d="M1777.339,388.137l-47.326-8.425c-2.176-9.508-9.878-17.24-20.077-18.893l-21.922-3.557c-13.431-2.193-26.136,6.982-28.307,20.412l-.223,1.379-7.373-1.55c1.759-13.178-7.252-25.488-20.448-27.624l-21.922-3.557c-13.431-2.195-26.136,6.982-28.307,20.412l-1.777,10.96c-3.158,19.476,10.117,37.887,29.592,41.044,1.933.312,3.851.464,5.747.464,17.227,0,32.457-12.512,35.298-30.055l.667-4.111,7.376,1.1-.406,2.501c-3.158,19.474,10.116,37.887,29.592,41.044,1.932.312,3.851.464,5.747.464,17.227,0,32.457-12.514,35.298-30.057l1.506-9.298,44.568,2.751,2.697-5.403ZM1645.111,377.054l-1.777,10.962c-2.534,15.634-17.313,26.296-32.957,23.763-15.638-2.535-26.297-17.319-23.763-32.959l1.777-10.96c1.4-8.644,8.9-14.813,17.392-14.813.932,0,1.877.079,2.827.229l21.922,3.557c9.593,1.558,16.129,10.627,14.578,20.22ZM1723.385,387.997l-1.776,10.96c-2.534,15.634-17.314,26.298-32.957,23.763-15.638-2.533-26.296-17.319-23.762-32.957l1.776-10.96c1.4-8.644,8.9-14.813,17.392-14.813.932,0,1.877.077,2.827.229l21.922,3.557c9.593,1.556,16.129,10.627,14.578,20.22Z" class="colorc8d9fb svgShape"></path>
    </g>
    <g fill="#000000" class="color000000 svgShape">
      <path fill="#f2ba5a" d="M1813.757,579.769s53.103,26.207,57.904,34.122c4.804,7.911,237.565,312.543,191.914,396.795-45.647,84.252-154.168,67.354-154.168,67.354,0,0-98.516-286.118-106.052-344.992-7.531-58.871,10.401-153.279,10.401-153.279Z" class="colorf2c65a svgShape"></path>
      <path fill="#ea4f13" d="M2063.575,1023.149c-49.598,81.998-154.198,54.889-154.198,54.889,0,0-46.154-136.294-77.221-236.055l52.297,58.409s142.857-85.859,189.291,40.847l.007.07c3.267,12.556,4.659,57.314-10.175,81.839Z" class="coloreab213 svgShape"></path>
      <path fill="#e2511a" d="M1915.807,1094.084s-71.741-261.803-86.626-268.578c-14.884-6.775,74.524,269.313,86.626,268.578Z" class="colore2a01a svgShape"></path>
    </g>
  </g>
  <g fill="#000000" class="color000000 svgShape">
    <path fill="#d7bc8e" d="M1500.79,1095.111c-47.317-133.445-502.695-282.305-524.244-337.289-19.565-49.921-26.504-73.711-56.408-67.444-23.23,4.868,1.912,73.25,1.912,73.25,0,0-82.559-25.597-59.161,9.737,23.398,35.333-20.22,129.525,12.252,132.768,7.628.76,63.079-13.623,87.461,4.638,34.745,26.021,337.9,289.475,463.25,265.179,36.281-7.032,87.289-46.007,74.939-80.839Z" class="colord7a28e svgShape"></path>
    <g fill="#000000" class="color000000 svgShape">
      <path fill="#252422" d="M1347.359,197.194l-471.674,43.166c-57.022,5.219-98.976,55.692-93.758,112.715l103.063,1126.156c5.213,56.961,55.632,98.982,112.654,93.763l471.674-43.166c56.961-5.213,98.976-55.693,93.763-112.654l-103.063-1126.156c-5.219-57.022-55.698-99.037-112.66-93.824ZM1524.971,1417.61c3.429,37.47-24.117,70.633-61.587,74.062l-466.77,42.718c-37.47,3.429-70.639-24.178-74.068-61.647l-102.514-1120.163c-3.429-37.47,24.183-70.578,61.653-74.007l466.77-42.718c37.47-3.429,70.573,24.122,74.002,61.592l102.514,1120.163Z" class="color202234 svgShape"></path>
      <path fill="url(#a)" d="M1377.335,217.909l-61.311,5.611c-4.637.424-345.324,31.603-349.958,32.027l-61.312,5.611c-37.936,3.472-65.874,37.042-62.403,74.976l103.79,1134.103c3.472,37.936,37.039,65.874,74.975,62.402l472.581-43.249c37.936-3.472,65.874-37.039,62.403-74.975l-103.79-1134.103c-3.472-37.934-37.039-65.875-74.975-62.404Z"></path>
      <g fill="#000000" class="color000000 svgShape">
        <path fill="#fffcf2" d="M1384.04,594.331l20.935,214.269c1.016,10.391-6.587,19.64-16.979,20.656l-376.642,36.801c-10.392,1.014-19.64-6.588-20.656-16.979l-20.936-214.269c-1.019-10.425,6.583-19.674,16.976-20.689l376.642-36.8c10.392-1.015,19.641,6.587,20.66,17.012Z" class="colorffffff svgShape"></path>
        <rect width="416.25" height="44.467" x="985.895" y="767.445" fill="#fbefc8" transform="rotate(-5.58 1194.13 789.737)" class="colorc8d9fb svgShape"></rect>
        <g fill="#000000" class="color000000 svgShape">
          <path fill="#fbefc8" d="M1097.965,670.051l-52.126,5.093c-4.753.465-8.23,4.694-7.765,9.447l3.278,33.552c.464,4.749,4.69,8.223,9.439,7.759l52.141-5.094c4.749-.464,8.223-4.69,7.759-9.44l-3.278-33.552c-.464-4.753-4.694-8.23-9.447-7.765Z" class="colorc8d9fb svgShape"></path>
          <g fill="#000000" class="color000000 svgShape">
            <path fill="#fbefc8" d="M1128.025 704.212c-.261.026-.482-.042-.666-.203-.182-.161-.286-.36-.309-.597l-2.257-23.066c-.025-.26.038-.48.186-.662.15-.182.354-.285.615-.311l10.822-1.059c2.034-.199 3.73-.079 5.088.362 1.355.44 2.399 1.156 3.13 2.147.728.991 1.165 2.21 1.306 3.652.083.852-.003 1.618-.259 2.299-.255.682-.593 1.259-1.013 1.73-.419.471-.822.821-1.205 1.049.94.338 1.806.957 2.6 1.859.792.902 1.253 2.003 1.38 3.304.153 1.561-.065 2.938-.653 4.129-.589 1.193-1.521 2.156-2.799 2.889-1.277.734-2.886 1.196-4.825 1.386l-11.142 1.09ZM1132.059 688.7l4.613-.451c.969-.095 1.672-.42 2.107-.976.435-.557.616-1.213.542-1.97-.074-.757-.377-1.355-.91-1.793-.532-.436-1.284-.608-2.253-.513l-4.613.451.514 5.251ZM1133.073 699.061l4.932-.483c1.016-.099 1.757-.471 2.221-1.112.462-.643.656-1.343.582-2.099-.081-.827-.415-1.5-1.003-2.015-.587-.515-1.379-.725-2.372-.628l-4.932.483.573 5.855ZM1150.344 702.028c-.189.019-.368-.041-.537-.181-.169-.138-.263-.302-.281-.491-.012-.118-.01-.226.005-.323l6.109-23.597c.045-.267.17-.512.376-.735s.509-.354.912-.394l5.251-.514c.401-.039.725.031.969.21s.415.395.511.648l10.533 21.969c.057.089.09.194.102.312.019.189-.041.368-.181.537-.138.169-.314.264-.526.285l-4.365.427c-.355.035-.629-.027-.824-.188s-.323-.309-.385-.446l-1.737-3.484-9.475.927-.994 3.752c-.034.146-.125.317-.272.511-.149.194-.423.31-.826.349l-4.365.427ZM1157.757 691.737l6.6-.646-4.217-9.045-2.383 9.691ZM1178.058 699.316c-.261.026-.482-.042-.666-.203-.182-.161-.286-.36-.309-.597l-2.257-23.066c-.025-.26.038-.48.186-.662.15-.182.354-.285.615-.311l3.761-.368c.401-.039.7.02.895.181s.319.285.376.376l9.992 12.779-1.313-13.414c-.025-.26.036-.48.186-.662.148-.182.354-.285.614-.311l4.258-.417c.261-.026.482.036.664.186.181.15.285.354.311.614l2.254 23.03c.026.261-.037.488-.184.681-.149.194-.352.303-.614.328l-3.796.371c-.378.037-.666-.03-.862-.203-.196-.172-.321-.291-.375-.357l-9.944-12.282 1.264 12.917c.023.237-.039.451-.188.645-.149.194-.352.303-.612.328l-4.258.417ZM1203.571 696.82c-.261.026-.482-.042-.666-.203-.182-.161-.286-.36-.309-.597l-2.257-23.066c-.025-.26.038-.48.186-.662.15-.182.354-.285.615-.311l4.47-.437c.26-.025.482.036.664.186.181.15.285.354.311.614l.771 7.878 5.772-8.732c.081-.152.226-.315.436-.49.21-.177.503-.282.883-.32l5.11-.5c.212-.021.397.038.554.179.158.139.245.304.264.493.016.166-.006.311-.065.436l-7.467 11.55 10.307 10.885c.105.086.166.223.185.412s-.035.368-.163.535c-.126.168-.296.262-.509.283l-5.287.517c-.426.042-.761-.02-1.004-.189-.244-.167-.405-.294-.485-.383l-7.883-8.077.84 8.588c.023.237-.04.451-.188.645-.149.194-.354.303-.614.328l-4.47.437ZM1243.845 693.237c-2.225.218-4.177.038-5.857-.538-1.68-.576-3.033-1.53-4.059-2.864-1.027-1.332-1.69-3.046-1.99-5.142-.119-.968-.233-2.008-.342-3.12-.109-1.112-.201-2.177-.276-3.197-.107-2.067.218-3.867.976-5.397.757-1.53 1.905-2.742 3.442-3.633 1.537-.891 3.405-1.444 5.606-1.659 1.561-.153 3.022-.099 4.386.163 1.362.26 2.577.714 3.643 1.362 1.066.648 1.93 1.471 2.589 2.47s1.065 2.158 1.218 3.481c.044.21-.004.394-.143.55-.141.158-.316.247-.529.268l-4.791.469c-.308.03-.551-.012-.728-.126-.179-.114-.344-.342-.497-.686-.455-1.221-1.076-2.026-1.866-2.415-.79-.388-1.731-.529-2.818-.422-1.301.127-2.295.589-2.981 1.385-.687.796-.983 2.036-.889 3.723.119 1.947.314 3.934.583 5.962.235 1.672.766 2.833 1.594 3.48.827.648 1.892.908 3.193.781 1.087-.106 1.987-.433 2.698-.981.71-.546 1.16-1.45 1.347-2.71.059-.364.173-.62.337-.768.163-.147.4-.236.707-.266l4.791-.469c.214-.021.403.032.571.158.167.128.249.298.247.514.107 1.328-.067 2.544-.52 3.651-.453 1.107-1.14 2.082-2.061 2.925-.92.842-2.024 1.523-3.31 2.043-1.287.521-2.711.857-4.271 1.01ZM1256.797 691.612c-.189.019-.368-.041-.537-.181-.169-.138-.263-.302-.281-.491-.012-.118-.01-.226.005-.323l6.109-23.597c.045-.267.17-.512.376-.735.206-.223.509-.354.912-.394l5.251-.514c.401-.039.725.031.969.21s.415.395.511.648l10.533 21.969c.057.089.09.194.102.312.019.189-.041.368-.181.537-.138.169-.314.264-.526.285l-4.365.427c-.355.035-.629-.027-.824-.188-.195-.16-.323-.309-.385-.446l-1.737-3.484-9.475.927-.994 3.752c-.034.146-.125.317-.272.511-.149.194-.423.31-.826.349l-4.365.427ZM1264.209 681.321l6.6-.646-4.217-9.045-2.383 9.691ZM1284.512 688.9c-.261.026-.482-.042-.666-.203-.182-.161-.286-.36-.309-.597l-2.257-23.066c-.025-.26.038-.48.186-.662.15-.182.354-.285.615-.311l9.651-.944c3.075-.301 5.557.166 7.446 1.403 1.888 1.237 2.959 3.145 3.211 5.722.164 1.681-.099 3.139-.79 4.376-.691 1.238-1.671 2.219-2.937 2.939l5.716 8.254c.085.135.133.261.145.379.019.189-.043.369-.181.537-.139.17-.302.263-.491.281l-4.72.462c-.449.044-.792-.036-1.026-.239-.236-.204-.409-.396-.523-.577l-4.808-7.41-3.62.354.771 7.878c.023.237-.045.452-.205.647-.16.195-.371.305-.631.33l-4.577.448ZM1288.661 674.558l4.08-.399c1.112-.109 1.92-.462 2.422-1.061.503-.599.708-1.359.618-2.282-.09-.923-.429-1.642-1.017-2.157-.587-.517-1.461-.717-2.62-.604l-4.08.399.597 6.103ZM1309.03 686.5c-.261.026-.482-.042-.666-.203-.182-.161-.286-.36-.309-.597l-2.257-23.066c-.025-.26.038-.48.186-.662.15-.182.354-.285.615-.311l9.225-.903c2.319-.227 4.331-.048 6.036.538 1.704.585 3.064 1.551 4.081 2.897 1.015 1.345 1.662 3.068 1.938 5.166.125 1.039.226 1.949.302 2.728s.153 1.682.229 2.701c.12 2.21-.169 4.078-.867 5.602-.699 1.525-1.812 2.715-3.34 3.569-1.529.854-3.452 1.395-5.771 1.622l-9.402.92ZM1314.03 680.852l3.725-.365c1.018-.1 1.848-.343 2.491-.728.643-.385 1.102-.937 1.377-1.657.277-.719.372-1.637.286-2.751-.019-.691-.051-1.308-.091-1.854-.042-.545-.095-1.088-.16-1.632-.066-.543-.154-1.144-.267-1.802-.205-1.604-.739-2.74-1.605-3.407-.866-.667-2.079-.925-3.64-.772l-3.549.347 1.431 14.619Z" class="colorc8d9fb svgShape"></path>
          </g>
        </g>
        <g fill="#000000" class="color000000 svgShape">
          <rect width="70.425" height="9.362" x="1038.485" y="755.017" fill="#fbefc8" rx="4.681" ry="4.681" transform="rotate(-5.589 1073.65 759.663)" class="colorc8d9fb svgShape"></rect>
          <rect width="70.425" height="9.362" x="1116.002" y="747.432" fill="#fbefc8" rx="4.681" ry="4.681" transform="rotate(-5.589 1151.161 752.08)" class="colorc8d9fb svgShape"></rect>
          <rect width="70.425" height="9.362" x="1193.519" y="739.847" fill="#fbefc8" rx="4.681" ry="4.681" transform="rotate(-5.589 1228.673 744.497)" class="colorc8d9fb svgShape"></rect>
          <rect width="70.425" height="9.362" x="1271.036" y="732.261" fill="#fbefc8" rx="4.681" ry="4.681" transform="rotate(-5.589 1306.186 736.915)" class="colorc8d9fb svgShape"></rect>
        </g>
      </g>
      <g fill="#000000" class="color000000 svgShape">
        <path fill="#fffcf2" d="M1013.878 451.582c-.572.056-1.056-.091-1.457-.445-.398-.354-.626-.788-.677-1.306l-4.941-50.499c-.056-.569.082-1.052.407-1.45.328-.399.775-.625 1.347-.681l20.196-1.976c5.077-.497 9.481-.104 13.216 1.177 3.732 1.282 6.709 3.397 8.934 6.341 2.222 2.945 3.638 6.716 4.244 11.31.274 2.274.494 4.266.661 5.973.167 1.71.335 3.682.502 5.912.263 4.838-.371 8.927-1.899 12.265-1.531 3.338-3.966 5.944-7.313 7.813-3.347 1.869-7.558 3.053-12.635 3.55l-20.585 2.014ZM1024.823 439.217l8.156-.798c2.229-.218 4.047-.75 5.455-1.593 1.408-.843 2.413-2.052 3.015-3.627.605-1.575.814-3.584.627-6.023-.043-1.512-.111-2.865-.199-4.059-.091-1.194-.208-2.383-.35-3.572-.145-1.189-.338-2.504-.584-3.945-.449-3.511-1.618-5.998-3.513-7.459-1.895-1.461-4.551-2.025-7.968-1.69l-7.77.76 3.132 32.006ZM1069.5 446.139c-.572.056-1.056-.091-1.457-.445-.398-.354-.626-.788-.677-1.306l-4.941-50.499c-.056-.569.082-1.052.407-1.45.328-.399.775-.625 1.347-.681l10.409-1.019c.569-.056 1.067.077 1.492.403.421.326.663.771.718 1.34l4.941 50.499c.051.518-.101.99-.449 1.416-.351.427-.812.667-1.381.722l-10.409 1.019ZM1115.254 442.447c-4.922.482-9.234.08-12.941-1.204-3.71-1.284-6.687-3.399-8.934-6.341-2.251-2.942-3.699-6.659-4.346-11.143-.272-2.223-.529-4.589-.775-7.102-.246-2.513-.455-4.908-.624-7.193-.225-4.424.497-8.257 2.168-11.506 1.667-3.249 4.211-5.85 7.626-7.806 3.418-1.956 7.534-3.169 12.352-3.64 3.885-.38 7.374-.237 10.471.427 3.097.664 5.748 1.7 7.953 3.102 2.202 1.406 3.939 3.013 5.214 4.823 1.275 1.812 2.032 3.647 2.265 5.504.046.468-.084.873-.392 1.216-.305.343-.691.54-1.159.586l-11.342 1.11c-.569.056-1.005.006-1.307-.147-.302-.156-.576-.403-.82-.746-.436-.739-1.047-1.503-1.829-2.291-.785-.785-1.815-1.428-3.093-1.931-1.278-.504-2.901-.658-4.868-.465-2.902.284-5.13 1.287-6.685 3.006-1.558 1.723-2.247 4.298-2.068 7.734.281 4.469.722 8.974 1.323 13.517.51 3.611 1.723 6.131 3.641 7.565 1.918 1.434 4.355 2.006 7.307 1.717 1.912-.187 3.602-.694 5.066-1.517 1.461-.82 2.563-1.987 3.305-3.499.74-1.508 1-3.379.782-5.607l-.144-1.476-7.302.715c-.569.056-1.056-.091-1.454-.445-.402-.353-.628-.813-.684-1.385l-.562-5.747c-.056-.569.077-1.067.403-1.492.322-.424.771-.663 1.34-.718l19.577-1.916c.569-.056 1.056.091 1.457.445.398.354.629.816.684 1.385l.867 8.857c.436 4.454-.203 8.359-1.914 11.715-1.711 3.359-4.334 6.06-7.872 8.104-3.54 2.047-7.769 3.31-12.688 3.791ZM1150.605 438.203c-.572.056-1.056-.091-1.457-.445-.398-.354-.626-.788-.677-1.306l-4.941-50.499c-.056-.569.082-1.052.407-1.45.328-.399.775-.625 1.347-.681l10.409-1.019c.569-.056 1.067.077 1.492.403.421.326.663.771.718 1.34l4.941 50.499c.051.518-.101.99-.449 1.416-.351.427-.812.667-1.381.722l-10.409 1.019ZM1187.735 434.57c-.569.056-1.056-.091-1.454-.445-.402-.353-.626-.788-.677-1.306l-3.938-40.244-13.83 1.353c-.569.056-1.053-.092-1.454-.445-.402-.353-.626-.788-.677-1.306l-.814-8.314c-.056-.569.079-1.051.407-1.45.328-.399.775-.625 1.344-.68l41.796-4.09c.569-.056 1.054.079 1.454.407.396.328.625.775.68 1.344l.814 8.314c.051.518-.088.988-.411 1.412-.325.424-.774.663-1.343.719l-13.827 1.353 3.938 40.244c.051.518-.088.988-.411 1.412-.325.424-.771.663-1.343.719l-10.255 1.003ZM1214.149 431.985c-.414.041-.807-.09-1.175-.396-.371-.302-.575-.662-.616-1.076-.025-.259-.023-.496.011-.706l13.375-51.662c.099-.584.372-1.121.822-1.609.45-.488 1.114-.776 1.996-.862l11.497-1.125c.879-.086 1.586.068 2.123.459.536.391.908.865 1.119 1.419l23.06 48.097c.124.195.198.424.223.683.041.414-.09.807-.396 1.175-.302.371-.687.578-1.152.623l-9.556.935c-.778.076-1.378-.06-1.805-.411s-.708-.678-.842-.977l-3.804-7.629-20.743 2.03-2.177 8.214c-.074.32-.274.694-.596 1.118-.325.424-.926.678-1.808.764l-9.556.935ZM1230.378 409.455l14.449-1.414-9.233-19.802-5.216 21.216ZM1274.823 426.048c-.572.056-1.056-.091-1.457-.445-.398-.354-.626-.788-.677-1.306l-4.941-50.499c-.056-.569.082-1.052.407-1.45.328-.399.775-.625 1.347-.681l10.255-1.003c.569-.056 1.051.079 1.45.407.399.328.625.775.68 1.344l3.983 40.709 23.541-2.304c.569-.056 1.053.092 1.454.445.398.354.629.816.684 1.385l.76 7.77c.051.518-.088.988-.411 1.412-.325.424-.771.663-1.34.718l-35.736 3.497ZM989.671 526.824c-.572.056-1.056-.091-1.457-.445-.398-.354-.626-.788-.677-1.306l-4.941-50.499c-.056-.569.082-1.052.407-1.45.328-.399.775-.625 1.347-.681l21.752-2.128c4.299-.421 8.106-.126 11.419.88 3.316 1.01 5.994 2.748 8.042 5.216 2.044 2.465 3.263 5.719 3.658 9.759.39 3.989-.179 7.364-1.712 10.128-1.536 2.764-3.833 4.923-6.898 6.48-3.062 1.554-6.744 2.54-11.043 2.96l-9.246.905 1.665 17.016c.051.518-.098.989-.449 1.416-.351.427-.809.666-1.381.722l-10.485 1.026ZM999.042 495.946l9.088-.889c2.225-.218 3.946-.961 5.156-2.231 1.207-1.267 1.698-3.067 1.47-5.397-.193-1.969-.924-3.57-2.194-4.805-1.273-1.235-3.204-1.726-5.793-1.472l-9.088.889 1.361 13.906ZM1033.408 522.544c-.414.041-.807-.09-1.175-.396-.371-.302-.575-.662-.616-1.076-.025-.259-.023-.496.011-.706l13.375-51.662c.099-.584.372-1.121.822-1.609.45-.488 1.114-.776 1.996-.862l11.497-1.125c.879-.086 1.586.068 2.123.459.536.391.908.865 1.119 1.419l23.06 48.097c.124.195.198.424.223.683.041.414-.09.807-.396 1.175-.302.371-.687.578-1.152.623l-9.556.935c-.778.076-1.378-.06-1.805-.411-.427-.351-.708-.678-.842-.977l-3.804-7.629-20.743 2.03-2.177 8.214c-.074.32-.274.694-.596 1.118-.325.424-.926.678-1.808.764l-9.556.935ZM1049.637 500.014l14.449-1.414-9.233-19.802-5.216 21.216ZM1101.849 515.847c-.518.051-.989-.098-1.416-.449-.427-.351-.664-.784-.715-1.302l-1.634-16.703-21.278-31.488c-.066-.15-.133-.287-.197-.412s-.102-.264-.118-.419c-.041-.414.09-.807.392-1.175.305-.371.69-.578 1.155-.624l9.711-.95c.778-.076 1.403.057 1.884.403.477.346.809.668.994.962l13.073 18.957 9.226-21.139c.125-.325.387-.705.789-1.137s.993-.684 1.77-.76l9.711-.95c.465-.045.87.084 1.216.392.343.305.534.666.575 1.08.015.155.016.298.004.43-.016.132-.04.278-.075.438l-14.771 35.015 1.634 16.703c.051.518-.098.989-.449 1.416s-.812.667-1.381.722l-10.1.988ZM1140.772 512.038c-.518.051-.989-.098-1.416-.449-.427-.351-.667-.784-.718-1.302l-4.941-50.499c-.056-.569.095-1.053.448-1.454.353-.402.788-.626 1.306-.677l8.39-.821c.879-.086 1.548.072 2.006.471.457.399.751.724.88.97l16.067 23.135 11.28-25.811c.13-.271.367-.649.713-1.126s.956-.761 1.838-.847l8.314-.814c.569-.056 1.064.078 1.488.403.424.325.666.771.722 1.34l4.941 50.499c.051.518-.101.99-.452 1.416-.351.427-.809.666-1.378.722l-9.246.905c-.569.056-1.068-.09-1.495-.441-.424-.351-.664-.784-.715-1.302l-2.851-29.133-7.111 17.087c-.217.49-.511.94-.89 1.341-.379.404-.93.64-1.657.711l-4.04.395c-.724.071-1.311-.054-1.76-.377-.453-.32-.828-.704-1.133-1.143l-10.367-15.376 2.851 29.133c.051.518-.085.988-.411 1.412-.325.424-.771.663-1.34.718l-9.322.912ZM1205.097 505.744c-.572.056-1.056-.091-1.457-.445-.398-.354-.626-.788-.677-1.306l-4.941-50.499c-.056-.569.082-1.052.407-1.45.328-.399.775-.625 1.347-.681l36.28-3.55c.569-.056 1.051.079 1.45.407s.625.775.68 1.344l.715 7.302c.056.572-.079 1.054-.407 1.454-.328.399-.775.625-1.344.68l-24.783 2.425 1.026 10.489 23.073-2.258c.569-.056 1.056.091 1.454.445.402.353.628.813.684 1.382l.662 6.762c.051.518-.085.988-.411 1.412-.322.424-.771.663-1.34.718l-23.073 2.258 1.057 10.798 25.403-2.486c.569-.056 1.055.082 1.454.407.396.328.625.775.68 1.344l.715 7.305c.051.518-.088.988-.411 1.412-.325.424-.774.663-1.343.719l-36.9 3.611ZM1254.739 500.886c-.572.056-1.056-.091-1.457-.445-.398-.354-.626-.788-.677-1.306l-4.941-50.499c-.056-.569.082-1.052.407-1.45.328-.399.775-.625 1.347-.681l8.235-.806c.879-.086 1.533.045 1.96.395.427.351.699.624.824.823l21.876 27.976-2.874-29.367c-.056-.569.079-1.051.407-1.45.325-.399.775-.625 1.344-.68l9.322-.912c.572-.056 1.054.079 1.454.407.396.328.625.775.68 1.344l4.934 50.42c.056.572-.081 1.067-.403 1.492-.325.424-.771.663-1.343.719l-8.311.813c-.828.081-1.458-.065-1.888-.444-.429-.376-.704-.636-.82-.781l-21.77-26.889 2.767 28.279c.051.518-.085.988-.411 1.412-.325.424-.771.663-1.34.718l-9.322.912ZM1322.557 494.25c-.569.056-1.056-.091-1.454-.445-.402-.353-.626-.788-.677-1.306l-3.938-40.244-13.83 1.353c-.569.056-1.053-.092-1.454-.445-.402-.353-.626-.788-.677-1.306l-.814-8.314c-.056-.569.079-1.051.407-1.45.328-.399.775-.625 1.344-.68l41.796-4.09c.569-.056 1.054.079 1.454.407.396.328.625.775.68 1.344l.814 8.314c.051.518-.088.988-.411 1.412-.325.424-.774.663-1.343.719l-13.827 1.353 3.938 40.244c.051.518-.088.988-.411 1.412-.325.424-.771.663-1.343.719l-10.255 1.003Z" class="colorffffff svgShape"></path>
      </g>
      <g fill="#000000" class="color000000 svgShape">
        <g opacity=".5" fill="#000000" class="color000000 svgShape">
          <path fill="#fffcf2" d="M1423.584,1013.647l-406.387,39.705c-3.425.335-6.474-2.171-6.808-5.596l-11.53-113.205c-.335-3.425,2.171-6.474,5.596-6.808l406.387-39.705c3.425-.335,6.474,2.171,6.808,5.596l11.53,113.205c.335,3.425-2.171,6.474-5.596,6.808Z" class="colorffffff svgShape"></path>
          <rect width="127.72" height="109.745" x="1017.89" y="1071.361" fill="#fffcf2" rx="8.41" ry="8.41" transform="rotate(-5.58 1081.807 1126.279)" class="colorffffff svgShape"></rect>
          <rect width="127.72" height="109.745" x="1163.895" y="1057.096" fill="#fffcf2" rx="8.41" ry="8.41" transform="rotate(-5.58 1227.81 1112.013)" class="colorffffff svgShape"></rect>
          <rect width="127.72" height="109.745" x="1309.9" y="1042.831" fill="#fffcf2" rx="8.41" ry="8.41" transform="rotate(-5.58 1373.822 1097.747)" class="colorffffff svgShape"></rect>
        </g>
        <g fill="#000000" class="color000000 svgShape">
          <rect width="422.91" height="60.533" x="1028.268" y="1224.012" fill="#fffcf2" opacity=".5" rx="30.266" ry="30.266" transform="rotate(-5.43 1239.733 1254.293)" class="colorffffff svgShape"></rect>
          <path fill="#fffcf2" d="M1067.837,1377.622c-16.154-.322-29.894-12.749-31.46-29.211-1.682-17.719,11.358-33.502,29.074-35.188l360.752-34.293c17.75-1.63,33.502,11.37,35.188,29.078,1.678,17.715-11.366,33.498-29.077,35.184l-.191-2,.191,2-360.752,34.293c-1.253.116-2.497.162-3.724.138ZM1429.838,1282.806c-1.074-.021-2.161.02-3.257.123l-360.748,34.293c-15.511,1.475-26.932,15.294-25.457,30.806.713,7.516,4.311,14.301,10.129,19.111,5.822,4.806,13.2,7.071,20.673,6.345l360.752-34.293c15.511-1.471,26.932-15.29,25.461-30.806-1.367-14.415-13.405-25.298-27.552-25.58Z" opacity=".5" class="colorffffff svgShape"></path>
          <g fill="#000000" class="color000000 svgShape">
            <path fill="#fffcf2" d="M1196.189 1269.369c-.228.022-.421-.038-.581-.179-.159-.142-.249-.315-.269-.522l-1.916-20.16c-.022-.227.034-.42.164-.578.131-.159.31-.248.538-.27l4.094-.389c.227-.022.419.033.578.164s.248.31.27.537l1.545 16.251 9.398-.893c.227-.022.42.038.58.179.159.142.25.326.272.554l.295 3.102c.02.207-.036.394-.165.563-.13.169-.309.264-.536.285l-14.266 1.356ZM1222.579 1267.174c-1.903.181-3.586.028-5.051-.46-1.465-.486-2.65-1.317-3.554-2.494-.905-1.176-1.488-2.701-1.749-4.574-.106-.886-.201-1.78-.287-2.68-.085-.899-.16-1.794-.223-2.686-.095-1.868.196-3.476.871-4.823.675-1.346 1.69-2.408 3.046-3.184 1.355-.776 2.963-1.252 4.824-1.429 1.882-.179 3.555-.015 5.023.493 1.467.507 2.663 1.359 3.59 2.553.927 1.195 1.51 2.72 1.749 4.574.126.886.233 1.778.318 2.677.086.9.149 1.797.192 2.689.117 1.887-.163 3.494-.839 4.82-.677 1.328-1.69 2.367-3.037 3.121-1.347.755-2.972 1.222-4.873 1.403ZM1222.155 1262.708c1.095-.104 1.959-.52 2.589-1.248.63-.727.896-1.816.8-3.267-.045-.914-.106-1.774-.183-2.58-.077-.806-.176-1.642-.301-2.507-.134-.968-.39-1.741-.768-2.321-.378-.579-.86-.987-1.446-1.224-.587-.236-1.241-.32-1.964-.251-.703.067-1.32.272-1.85.614-.53.343-.933.835-1.206 1.476-.273.642-.384 1.45-.332 2.425.061.87.131 1.709.207 2.516.077.806.168 1.664.276 2.571.199 1.442.677 2.459 1.433 3.055.756.597 1.671.843 2.746.741ZM1244.754 1265.066c-1.965.187-3.686.022-5.163-.495-1.479-.516-2.665-1.364-3.559-2.541-.895-1.177-1.469-2.662-1.722-4.452-.106-.888-.206-1.832-.301-2.835-.095-1.003-.176-1.96-.241-2.871-.085-1.766.208-3.295.878-4.59.669-1.295 1.687-2.33 3.052-3.107 1.366-.777 3.01-1.256 4.934-1.439 1.551-.147 2.943-.086 4.179.182 1.235.268 2.292.685 3.171 1.247.877.563 1.569 1.207 2.076 1.93.507.725.807 1.458.898 2.199.018.187-.034.348-.158.485-.122.136-.276.215-.463.232l-4.528.43c-.227.022-.401.001-.521-.06-.121-.062-.229-.162-.326-.299-.173-.296-.416-.601-.728-.916-.313-.314-.723-.572-1.232-.774s-1.157-.266-1.942-.191c-1.158.11-2.049.508-2.671 1.192-.624.686-.902 1.713-.834 3.084.107 1.784.278 3.582.513 5.396.199 1.442.681 2.449 1.445 3.023s1.736.805 2.914.693c.763-.073 1.438-.273 2.024-.6.584-.325 1.025-.79 1.323-1.393.297-.601.403-1.347.318-2.237l-.056-.589-2.915.277c-.227.022-.421-.038-.58-.179-.16-.141-.25-.325-.272-.554l-.218-2.294c-.022-.227.032-.426.162-.595.129-.169.309-.264.536-.285l7.815-.743c.227-.022.421.038.581.179.159.142.25.326.272.554l.336 3.536c.169 1.778-.09 3.336-.777 4.673-.686 1.339-1.737 2.414-3.151 3.226-1.415.813-3.104 1.313-5.068 1.499ZM1258.866 1263.411c-.228.022-.421-.038-.581-.179-.159-.142-.249-.315-.269-.522l-1.916-20.16c-.022-.227.034-.42.164-.578.131-.159.31-.248.538-.27l4.156-.395c.227-.022.426.032.595.162.168.13.264.309.285.536l1.916 20.16c.02.207-.041.395-.181.565-.14.17-.325.265-.552.287l-4.156.395ZM1268.915 1262.456c-.228.022-.421-.038-.581-.179-.159-.142-.249-.315-.269-.522l-1.916-20.16c-.022-.227.034-.42.164-.578.131-.159.31-.248.538-.27l3.287-.312c.351-.033.612.02.782.16s.278.25.328.329l8.7 11.19-1.114-11.724c-.022-.227.033-.419.164-.578.13-.159.31-.248.537-.27l3.722-.354c.228-.022.421.033.58.164.158.131.248.31.27.537l1.913 20.128c.022.228-.033.426-.162.595-.13.169-.309.264-.537.285l-3.318.315c-.331.031-.582-.027-.753-.179-.171-.151-.28-.255-.326-.313l-8.659-10.756 1.073 11.289c.02.207-.035.394-.165.563-.13.169-.309.264-.536.285l-3.722.354Z" class="colorffffff svgShape"></path>
          </g>
        </g>
      </g>
      <path fill="#fffcf2" d="m1455.872 319.393 7.191 78.571c-188.527 184.673-376.563 369.982-564.198 555.624l-7.039-76.916c187.997-185.737 376.049-371.542 564.046-557.279ZM1469.434 467.588l32.027 349.955c-188.036 185.988-376.072 371.976-563.973 558.076l-32.223-352.1c187.624-185.765 375.721-371.079 564.17-555.93Z" opacity=".2" class="colorffffff svgShape"></path>
      <path fill="#403d39" d="M1374.075,187.369l-471.674,43.166c-57.022,5.219-98.976,55.692-93.758,112.715l103.063,1126.156c5.213,56.961,55.632,98.982,112.654,93.763l471.674-43.166c56.961-5.213,98.976-55.693,93.763-112.654l-103.063-1126.156c-5.219-57.022-55.698-99.037-112.66-93.824ZM1551.688,1407.785c3.429,37.47-24.117,70.633-61.587,74.062l-466.77,42.718c-37.47,3.429-70.639-24.178-74.068-61.647l-102.514-1120.163c-3.429-37.47,24.183-70.578,61.653-74.007l466.77-42.718c37.47-3.429,70.573,24.122,74.002,61.592l102.514,1120.163Z" class="color383b4b svgShape"></path>
    </g>
  </g>
  <g fill="#000000" class="color000000 svgShape">
    <g fill="#000000" class="color000000 svgShape">
      <path fill="#ea4f13" d="M724.775,1287.766c25.303,48.396,12.046,105.285-29.611,127.063-41.654,21.779-95.936.2-121.239-48.196-25.303-48.396-12.046-105.285,29.611-127.063,41.656-21.78,95.935-.202,121.239,48.196Z" class="coloreab213 svgShape"></path>
      <path fill="#f2ba5a" d="M740.298,1279.376c25.303,48.398,12.048,105.286-29.608,127.064-41.656,21.778-95.936.2-121.239-48.196-25.303-48.398-12.046-105.285,29.61-127.064,41.654-21.777,95.936-.2,121.237,48.197Z" class="colorf2c65a svgShape"></path>
      <path fill="#ea4f13" d="M686.79 1332.913c-1.653-3.162-3.882-5.322-6.69-6.483-2.801-1.159-6.656-1.511-11.55-1.059-4.898.453-8.833.563-11.812.319-9.881-.75-17.206-5.678-21.968-14.783-3.224-6.168-4.262-12.089-3.11-17.755 1.152-5.666 4.301-10.317 9.448-13.954l-6.355-12.156 7.68-4.017 6.413 12.268c6.05-1.984 11.787-1.491 17.205 1.476 5.42 2.961 10.035 8.087 13.846 15.374l-11.615 6.071c-2.449-4.685-5.283-7.899-8.5-9.653-3.215-1.748-6.373-1.81-9.477-.188-3.073 1.606-4.966 3.824-5.684 6.66-.716 2.838-.132 6.06 1.753 9.665 1.691 3.233 3.901 5.377 6.633 6.438 2.73 1.054 6.602 1.384 11.61.991 5.009-.395 9.07-.461 12.18-.194 3.114.271 5.971.94 8.572 2.02 2.598 1.076 4.984 2.636 7.151 4.675 2.166 2.038 4.122 4.726 5.873 8.076 3.282 6.277 4.285 12.235 3.018 17.871-1.27 5.633-4.681 10.349-10.23 14.153l5.684 10.871-7.63 3.989-5.657-10.819c-6.761 2.496-13.013 2.404-18.75-.274-5.737-2.679-10.537-7.698-14.384-15.058l11.663-6.098c2.447 4.682 5.355 7.778 8.733 9.28 3.371 1.501 6.913 1.284 10.623-.656 3.645-1.906 5.889-4.384 6.722-7.424.836-3.035.369-6.246-1.4-9.627ZM731.587 1284.204c15.554 29.751 12.673 64.109-4.576 89.62 8.903-25.09 7.075-55.628-7.419-83.349-14.492-27.722-38.525-46.65-64.213-53.656 30.795.395 60.652 17.637 76.207 47.386Z" class="coloreab213 svgShape"></path>
    </g>
    <g fill="#000000" class="color000000 svgShape">
      <path fill="#ea4f13" d="M747.575,469.482c-9.445,50.107,17.862,97.318,60.991,105.447,43.127,8.13,85.747-25.901,95.192-76.009,9.445-50.107-17.862-97.318-60.991-105.447-43.129-8.13-85.747,25.9-95.192,76.009Z" class="coloreab213 svgShape"></path>
      <path fill="#f2ba5a" d="M731.428,466.208c-9.445,50.109,17.86,97.32,60.989,105.448,43.129,8.129,85.747-25.901,95.192-76.009,9.445-50.109-17.862-97.318-60.991-105.448-43.127-8.129-85.747,25.901-95.191,76.009Z" class="colorf2c65a svgShape"></path>
      <path fill="#ea4f13" d="M816.41 504.363c.808-3.232.592-6.122-.647-8.674-1.236-2.546-3.708-5.183-7.404-7.902-3.699-2.721-6.514-5.086-8.441-7.104-6.43-6.652-8.486-14.635-6.162-23.942 1.576-6.304 4.523-11.081 8.842-14.32 4.319-3.24 9.401-4.533 15.249-3.878l3.105-12.426 7.851 1.96-3.134 12.539c5.453 2.368 9.151 6.27 11.092 11.702 1.946 5.428 1.987 11.868.127 19.317l-11.872-2.967c1.197-4.789 1.213-8.79.055-12.008-1.16-3.214-3.325-5.216-6.497-6.009-3.141-.785-5.838-.411-8.097 1.122-2.26 1.537-3.851 4.147-4.771 7.832-.826 3.305-.613 6.172.636 8.607 1.252 2.429 3.749 5.061 7.487 7.893 3.741 2.831 6.615 5.304 8.621 7.419 2.005 2.121 3.584 4.36 4.73 6.726 1.145 2.362 1.844 4.931 2.091 7.698.248 2.766-.055 5.855-.911 9.279-1.603 6.417-4.598 11.196-8.978 14.344-4.38 3.144-9.685 4.319-15.917 3.532l-2.776 11.113-7.799-1.948 2.763-11.059c-6.267-2.452-10.573-6.393-12.915-11.821-2.342-5.428-2.579-11.908-.699-19.43l11.922 2.979c-1.197 4.785-1.087 8.75.338 11.893 1.422 3.138 4.029 5.184 7.82 6.131 3.726.931 6.829.594 9.295-1.012 2.466-1.6 4.132-4.13 4.995-7.587ZM740.522 468.152c-5.805 30.803 6.108 60.709 28.45 78.807-14.773-19.991-21.442-47.765-16.032-76.467 5.409-28.702 21.731-52.142 42.771-65.384-27.4 8.725-49.382 32.242-55.189 63.043Z" class="coloreab213 svgShape"></path>
    </g>
    <g fill="#000000" class="color000000 svgShape">
      <path fill="#ea4f13" d="M2200.756,1528.471c-29.005-9.844-59.559-15.414-94.018-17.053-45.59-2.171-91.675,2.911-136.388,7.819-44.325,4.868-90.085,9.902-134.884,7.77-33.5-1.596-63.988-7.03-92.082-16.564l-6.885-2.176-10.184,213.88,4.173,1.407c29.007,9.848,60.432,15.614,94.887,17.254.004,0,.014,0,.019.002,45.585,2.171,91.824-3.063,136.531-7.972,44.332-4.871,90.174-9.979,134.976-7.846,33.493,1.595,62.835,6.937,90.927,16.466l5.743,2.086,10.185-213.883-3-1.191ZM2142.77,1707.098c-122.279-17.206-240.992,28.571-363.242,10.545.074-.657.173-1.314.205-1.992.84-17.634-13.044-35.087-30.433-41.074-.446-.153-1.295-.278-1.289-.392,1.615-33.932,3.232-67.864,4.847-101.794,2.356,1.44,7.194,2.363,10.747,2.442,8.21.183,15.499-3.644,20.107-10.041,3.586-4.98,5.29-11.432,5.153-18.087,121.802,17.45,240.041-27.899,361.856-10.831-.237,3.121-.045,6.351.657,9.642,1.222,5.731,3.763,11.067,7.53,15.989,3.763,4.918,8.14,8.901,13.441,11.981,3.259,1.895,7.324,3.332,9.706,4.254-1.639,34.441-3.28,68.886-4.921,103.329.006-.072-.227-.174-.453-.247-17.689-5.979-33.17,6.299-34.022,24.234-.032.676.104,1.364.111,2.041Z" class="coloreab213 svgShape"></path>
      <path fill="#f2ba5a" d="M2176.681,1680.822c.226.074.459.176.453.247,1.641-34.442,3.282-68.888,4.921-103.329-2.382-.922-6.446-2.359-9.706-4.254-5.302-3.08-9.781-7.069-13.546-11.987-3.766-4.92-6.257-10.254-7.479-15.984-.702-3.292-.869-6.523-.633-9.641-121.814-17.071-240.047,28.283-361.847,10.831.137,6.656-1.569,13.107-5.156,18.086-4.607,6.396-11.876,10.223-20.085,10.042-3.553-.079-8.39-1.002-10.745-2.442-1.615,33.93-3.232,67.862-4.847,101.794-.006.114.844.239,1.289.392,17.389,5.987,31.291,23.44,30.452,41.075-.034.678-.142,1.334-.215,1.993,122.251,18.025,240.958-27.752,363.238-10.546-.008-.679-.147-1.364-.113-2.043.854-17.935,16.332-30.212,34.02-24.233Z" class="colorf2c65a svgShape"></path>
      <circle cx="1831.867" cy="1626.159" r="17.727" fill="#ea4f13" class="coloreab213 svgShape"></circle>
      <circle cx="2089.544" cy="1614.886" r="17.727" fill="#ea4f13" class="coloreab213 svgShape"></circle>
      <circle cx="1957.358" cy="1619.834" r="61.003" fill="#ea4f13" class="coloreab213 svgShape"></circle>
      <path fill="#f2ba5a" d="M1954.434,1671.215c-.8,0-1.45-.256-1.958-.76-.508-.513-.76-1.158-.76-1.954v-7.498c-5.504-.654-10.102-2.016-13.798-4.076-3.696-2.069-6.481-4.58-8.364-7.551-1.888-2.971-2.9-6.083-3.042-9.346,0-.575.234-1.105.703-1.574.473-.469,1.035-.707,1.684-.707h11.627c.942,0,1.667.203,2.171.601.508.398.981.884,1.415,1.468.504,1.229,1.322,2.423,2.445,3.581,1.123,1.158,2.661,2.122,4.615,2.882,1.958.76,4.381,1.141,7.281,1.141,4.708,0,8.236-.76,10.593-2.281,2.352-1.521,3.532-3.59,3.532-6.198,0-1.883-.637-3.404-1.901-4.562-1.269-1.158-3.263-2.21-5.977-3.148-2.714-.946-6.357-1.954-10.92-3.042-5.433-1.158-10.031-2.661-13.798-4.509-3.767-1.848-6.609-4.235-8.528-7.171-1.923-2.936-2.878-6.578-2.878-10.92,0-5.721,2.042-10.575,6.136-14.563,4.094-3.979,9.761-6.446,17.003-7.383v-7.498c0-.796.252-1.45.76-1.954.508-.513,1.158-.76,1.958-.76h7.715c.721,0,1.335.248,1.844.76.508.504.76,1.158.76,1.954v7.71c5,.796,9.182,2.299,12.551,4.509,3.369,2.21,5.937,4.713,7.715,7.498,1.773,2.794,2.697,5.491,2.768,8.099,0,.575-.217,1.105-.65,1.574-.433.469-.977.707-1.631.707h-12.277c-.65,0-1.269-.15-1.848-.442-.579-.283-1.083-.796-1.521-1.521-.363-1.883-1.627-3.528-3.802-4.943-2.171-1.406-4.925-2.113-8.258-2.113-3.546,0-6.371.645-8.471,1.954-2.104,1.3-3.152,3.298-3.152,5.977,0,1.733.544,3.201,1.627,4.394,1.088,1.202,2.865,2.246,5.327,3.157,2.462.902,5.791,1.901,9.996,2.989,6.371,1.3,11.552,2.856,15.535,4.669,3.983,1.813,6.901,4.147,8.745,7.012,1.848,2.856,2.772,6.463,2.772,10.805,0,4.2-1.052,7.913-3.152,11.141-2.1,3.218-5.049,5.809-8.855,7.763-3.802,1.963-8.276,3.263-13.418,3.917v7.498c0,.796-.252,1.441-.76,1.954-.508.504-1.123.76-1.844.76h-7.715Z" class="colorf2c65a svgShape"></path>
    </g>
    <g fill="#000000" class="color000000 svgShape">
      <path fill="#ea4f13" d="M1961.774,508.925c-3.357,52.234,30.367,96.919,75.325,99.809,44.959,2.889,84.127-37.112,87.484-89.346,3.357-52.234-30.368-96.919-75.327-99.808-44.959-2.889-84.125,37.112-87.482,89.346Z" class="coloreab213 svgShape"></path>
      <path fill="#f2ba5a" d="M1944.912,507.609c-3.357,52.234,30.367,96.921,75.325,99.809,44.959,2.889,84.125-37.112,87.482-89.346,3.357-52.233-30.367-96.919-75.325-99.809-44.96-2.889-84.127,37.112-87.482,89.346Z" class="colorf2c65a svgShape"></path>
      <path fill="#ea4f13" d="M2034.681,535.405c.135-3.417-.686-6.274-2.466-8.581-1.773-2.302-4.808-4.432-9.092-6.393-4.287-1.963-7.61-3.751-9.969-5.374-7.853-5.342-11.589-12.934-11.198-22.775.264-6.665,2.229-12.081,5.89-16.24,3.663-4.159,8.499-6.522,14.515-7.086l.523-13.137,8.299.33-.527,13.257c5.976,1.238,10.507,4.387,13.593,9.439,3.09,5.049,4.479,11.511,4.167,19.387l-12.55-.498c.2-5.063-.62-9.087-2.456-12.08-1.838-2.987-4.432-4.547-7.786-4.681-3.321-.131-5.953.81-7.903,2.821-1.951,2.017-3.002,4.973-3.158,8.869-.138,3.495.676,6.332,2.44,8.516,1.766,2.181,4.825,4.303,9.175,6.366,4.35,2.064,7.755,3.95,10.214,5.656,2.459,1.711,4.514,3.631,6.16,5.77,1.646,2.135,2.884,4.571,3.711,7.299.829,2.727,1.169,5.895,1.026,9.515-.27,6.786-2.28,12.216-6.025,16.292-3.745,4.078-8.83,6.367-15.257,6.88l-.466,11.75-8.246-.328.465-11.692c-6.81-1.154-11.962-4.216-15.451-9.181-3.49-4.965-5.081-11.426-4.765-19.379l12.604.5c-.201,5.058.739,9.019,2.828,11.88,2.085,2.857,5.131,4.367,9.14,4.526,3.941.157,6.988-.829,9.132-2.958,2.143-2.126,3.286-5.015,3.432-8.67Z" class="coloreab213 svgShape"></path>
      <path fill="#ea4f13" d="M1954.422,508.452c-2.065,32.11,13.815,61.09,38.84,76.736-17.552-18.521-27.82-45.985-25.897-75.905,1.921-29.919,15.62-55.842,35.4-71.965-26.823,12.314-46.28,39.025-48.343,71.134Z" opacity=".5" class="coloreab213 svgShape"></path>
    </g>
  </g>
  <g fill="#000000" class="color000000 svgShape">
    <g fill="#000000" class="color000000 svgShape">
      <path fill="#d7bc8e" d="M2058.686,932.865c-16.255-33.693-88.554-59.424-181.497,1.99-85.798,56.693-381.921,208.706-405.441,221.05l-1.547.813s-41.03-3.288-53.98,4.437c-12.95,7.724-2.905,27.151-.275,31.237-34.227,16.144-84.557,83.958-61.985,81.296,19.362-2.353,60.93-41.922,60.93-41.922,0,0-10.71,43.399.271,51.882,10.981,8.483,21.601-23.387,21.601-23.387,0,0-5.372,28.621,1.026,33.232,9.877,7.119,23.524-12.611,23.524-12.611,0,0-6.412,10.089,4.019,16.139,11.726,6.804,43.625-36.296,43.625-36.296,0,0,382.653-133.858,479.138-175.857,88.719-38.619,86.644-118.731,70.592-152.004Z" class="colord7a28e svgShape"></path>
      <path fill="#ccaf7d" d="M1418.635 1226.5c.418.418-.464 1.924-1.506 4.417-1.038 2.519-2.175 6.11-3.132 10.231-1.943 8.241-2.879 15.219-3.979 15.18-1.042-.003-1.854-7.295.204-16.079 1.01-4.374 2.703-8.229 4.517-10.68 1.839-2.46 3.572-3.42 3.896-3.069ZM1442.858 1255.008c.287.405-.654 1.528-1.865 3.445-1.212 1.94-2.657 4.754-4.026 8.031-2.762 6.55-4.514 12.196-5.42 12.01-.862-.149-.513-6.299 2.421-13.282 1.449-3.479 3.39-6.434 5.235-8.209 1.867-1.779 3.436-2.331 3.655-1.995ZM1468.308 1270.3c.225.331-.552 1.222-1.56 2.748-1.009 1.545-2.22 3.791-3.377 6.411-2.334 5.237-3.839 9.762-4.566 9.597-.693-.134-.312-5.088 2.168-10.672 1.225-2.782 2.838-5.134 4.355-6.535 1.534-1.405 2.809-1.824 2.98-1.55Z" class="colorcc8f7d svgShape"></path>
    </g>
    <g fill="#000000" class="color000000 svgShape">
      <path fill="#d7bc8e" d="M800.458,775.225s-26.149-10.032-1.464-38.426c24.685-28.394,46.555-15.877,45.012-3.792-1.55,12.09-1.637,19.959-20.518,28.484,0,0,18.01.497,18.297,14.312.282,13.808-10.339,22.516-10.339,22.516,0,0,16.081-2.866,19.441,3.342,3.355,6.202-.479,23.583-16.126,32.401,0,0,18.172,2.611,9.639,22.647-8.533,20.03-15.592,14.064-15.592,14.064l2.309,24.739s-29.712-5.568-23.003-45.456c0,0-22.492-13.38-1.4-35.709,0,0-32.493-15.347-6.257-39.122Z" class="colord7a28e svgShape"></path>
      <g fill="#000000" class="color000000 svgShape">
        <path fill="#ccaf7d" d="M800.794 775.259c.881.806 5.511-3.305 11.948-6.983 6.396-3.793 12.18-5.645 12.05-6.68-.077-1.161-7.004-.918-14.042 3.249-7.094 4.083-10.739 9.796-9.956 10.415ZM805.884 814.458c.457.361 1.843-.611 4.084-2.042 2.248-1.441 5.407-3.355 8.96-5.443 7.105-4.181 12.962-7.631 12.518-8.654-.427-.988-7.147.897-14.534 5.236-3.688 2.165-6.807 4.583-8.753 6.718-1.957 2.133-2.682 3.874-2.275 4.185ZM808.114 850.057c.517.313 1.798-.929 4.02-2.57 2.25-1.643 5.54-3.647 9.4-5.6 7.713-3.934 14.416-6.561 14.11-7.644-.257-1.034-7.697-.067-15.921 4.114-4.098 2.067-7.516 4.686-9.509 7.084-1.996 2.424-2.528 4.38-2.101 4.617Z" class="colorcc8f7d svgShape"></path>
      </g>
    </g>
  </g>
  <g fill="#000000" class="color000000 svgShape">
    <g fill="#000000" class="color000000 svgShape">
      <path fill="#fbefc8" d="M2308.27,1328.286c-9.434-2.099-13.617,16.706-23.051,14.608-9.434-2.099-5.251-20.903-14.684-23.002-9.419-2.095-13.602,16.71-23.02,14.614-9.397-2.09-5.214-20.895-14.61-22.985-9.41-2.093-13.593,16.712-23.003,14.618-9.399-2.091-5.216-20.896-14.616-22.987-9.387-2.088-13.57,16.717-22.957,14.629-9.402-2.092-5.219-20.896-14.622-22.988-9.371-2.085-13.554,16.72-22.926,14.635-9.371-2.085-5.188-20.889-14.559-22.974l53.577-240.852c9.434,2.099,13.617-16.706,23.051-14.608,9.434,2.099,5.251,20.903,14.684,23.002,9.419,2.095,13.602-16.71,23.02-14.614,9.397,2.09,5.214,20.895,14.61,22.985,9.41,2.093,13.593-16.712,23.003-14.618,9.399,2.091,5.216,20.896,14.616,22.987,9.387,2.088,13.57-16.717,22.957-14.629,9.402,2.092,5.219,20.896,14.622,22.988,9.371,2.085,13.554-16.72,22.926-14.635,9.371,2.085,5.188,20.889,14.559,22.974l-53.577,240.852Z" class="colorc8d9fb svgShape"></path>
      <path fill="#ccc5b9" d="M2233.319,1201.215c-.818-.182-1.424-.592-1.829-1.222-.403-.64-.514-1.357-.333-2.17l1.705-7.663c-5.476-1.92-9.865-4.357-13.174-7.302-3.307-2.955-5.582-6.154-6.831-9.618-1.254-3.465-1.581-6.876-.984-10.243.131-.587.491-1.076,1.076-1.449.59-.371,1.218-.488,1.882-.34l11.882,2.643c.962.214,1.657.587,2.082,1.108.429.522.802,1.127,1.112,1.822.236,1.371.8,2.776,1.684,4.215.884,1.439,2.237,2.774,4.062,3.995,1.829,1.222,4.218,2.162,7.182,2.821,4.812,1.07,8.59,1.095,11.344.077,2.749-1.02,4.426-2.866,5.019-5.531.428-1.925.123-3.624-.906-5.095-1.033-1.472-2.832-3.001-5.393-4.576-2.559-1.584-6.053-3.442-10.468-5.591-5.289-2.419-9.646-5-13.076-7.745-3.429-2.745-5.792-5.831-7.085-9.267-1.298-3.437-1.446-7.377-.459-11.814,1.301-5.846,4.491-10.343,9.582-13.487,5.088-3.136,11.441-4.368,19.055-3.68l1.705-7.663c.181-.813.587-1.425,1.221-1.824.636-.409,1.357-.514,2.174-.332l7.884,1.754c.736.164,1.308.557,1.711,1.196.405.631.514,1.357.333,2.17l-1.753,7.879c4.929,1.95,8.861,4.437,11.801,7.462,2.94,3.025,4.996,6.166,6.179,9.416,1.177,3.258,1.508,6.224.987,8.906-.131.587-.473,1.08-1.022,1.461-.549.38-1.159.501-1.828.352l-12.547-2.791c-.664-.148-1.262-.442-1.788-.872-.528-.421-.926-1.059-1.208-1.9.058-2.007-.861-3.975-2.762-5.915-1.899-1.93-4.553-3.279-7.959-4.037-3.623-.806-6.657-.789-9.101.071-2.446.85-3.971,2.654-4.58,5.392-.394,1.771-.172,3.395.664,4.861.838,1.476,2.417,2.946,4.727,4.437,2.312,1.481,5.486,3.259,9.536,5.327,6.215,2.777,11.156,5.545,14.815,8.303,3.659,2.758,6.11,5.807,7.343,9.154,1.239,3.339,1.363,7.235.377,11.672-.955,4.292-2.874,7.848-5.754,10.669-2.878,2.812-6.48,4.789-10.814,5.921-4.332,1.142-9.199,1.453-14.603.953l-1.705,7.663c-.181.813-.585,1.416-1.221,1.824-.634.399-1.32.522-2.057.358l-7.884-1.754Z" class="coloraeb4e5 svgShape"></path>
      <g fill="#000000" class="color000000 svgShape">
        <path fill="#ccc5b9" d="m2290.334 1277.878-41.095-9.142c-2.67-.594-5.316 1.089-5.91 3.759-.594 2.671 1.089 5.316 3.759 5.91l41.095 9.142c2.67.594 5.316-1.088 5.91-3.759.594-2.67-1.089-5.316-3.759-5.91ZM2162.925 1230.931l129.543 28.817c3.669.816 7.305-1.496 8.121-5.165.816-3.669-1.497-7.305-5.166-8.121l-129.543-28.817c-3.669-.816-7.304 1.496-8.121 5.165-.816 3.669 1.496 7.305 5.165 8.121ZM2155.088 1257.637l72.499 16.127c2.67.594 5.316-1.088 5.91-3.758.594-2.671-1.089-5.317-3.759-5.911l-72.499-16.127c-2.671-.594-5.317 1.089-5.911 3.76-.594 2.67 1.089 5.315 3.76 5.909Z" class="coloraeb4e5 svgShape"></path>
      </g>
    </g>
    <g fill="#000000" class="color000000 svgShape">
      <path fill="#fbefc8" d="M768.212,2088.827c-6.82,3.378-.086,16.973-6.906,20.351-6.82,3.378-13.554-10.217-20.374-6.838-6.809,3.373-.075,16.968-6.884,20.341-6.793,3.365-13.527-10.23-20.321-6.865-6.803,3.37-.069,16.965-6.872,20.334-6.795,3.366-13.529-10.229-20.325-6.863-6.786,3.361-.052,16.956-6.838,20.318-6.797,3.367-13.531-10.228-20.329-6.861-6.775,3.356-.041,16.951-6.816,20.307-6.775,3.356-13.509-10.239-20.284-6.883l-86.249-174.125c6.82-3.378.086-16.973,6.906-20.351,6.82-3.378,13.554,10.217,20.374,6.838,6.809-3.373.075-16.968,6.884-20.341,6.793-3.365,13.527,10.23,20.321,6.865,6.803-3.37.069-16.965,6.872-20.334,6.795-3.366,13.529,10.229,20.325,6.863,6.786-3.361.052-16.956,6.838-20.318,6.797-3.367,13.531,10.228,20.329,6.861,6.775-3.356.041-16.951,6.816-20.307,6.775-3.356,13.509,10.239,20.284,6.883l86.249,174.125Z" class="colorc8d9fb svgShape"></path>
      <path fill="#ccc5b9" d="M659.439,2047.997c-.591.293-1.165.341-1.725.155-.563-.193-.986-.577-1.277-1.165l-2.744-5.54c-4.306,1.531-8.201,2.207-11.686,2.038-3.488-.176-6.465-1.012-8.943-2.518-2.482-1.504-4.369-3.433-5.667-5.792-.21-.425-.231-.902-.057-1.42.178-.519.505-.901.986-1.139l8.59-4.255c.696-.345,1.306-.46,1.824-.35.521.108,1.049.294,1.582.567.822.724,1.863,1.306,3.117,1.751,1.254.445,2.743.594,4.465.441,1.725-.155,3.654-.761,5.797-1.822,3.479-1.723,5.807-3.576,6.991-5.562,1.181-1.984,1.296-3.945.341-5.872-.689-1.391-1.716-2.282-3.074-2.675-1.361-.391-3.219-.439-5.568-.138-2.352.294-5.412.883-9.181,1.749-4.438,1.133-8.385,1.705-11.844,1.718-3.459.013-6.433-.71-8.925-2.177-2.495-1.465-4.534-3.807-6.123-7.015-2.094-4.227-2.361-8.56-.796-13.005,1.568-4.438,4.853-8.335,9.86-11.677l-2.744-5.54c-.291-.588-.344-1.164-.153-1.722.188-.565.577-.986,1.169-1.279l5.7-2.823c.532-.264,1.077-.306,1.64-.113.56.186.986.577,1.277,1.165l2.822,5.696c3.985-1.242,7.625-1.662,10.923-1.262,3.298.4,6.111,1.309,8.444,2.716,2.332,1.416,4.002,3.07,5.009,4.971.21.425.244.896.096,1.401-.149.505-.463.88-.946,1.12l-9.071,4.493c-.48.238-.992.353-1.527.35-.531.003-1.091-.192-1.68-.567-.957-1.259-2.493-2.011-4.618-2.26-2.118-.244-4.412.241-6.875,1.461-2.62,1.298-4.471,2.808-5.543,4.544-1.079,1.73-1.122,3.59-.141,5.57.634,1.28,1.573,2.166,2.81,2.651,1.244.49,2.938.611,5.091.383,2.149-.235,4.975-.715,8.479-1.45,5.182-1.371,9.58-2.118,13.186-2.236,3.606-.119,6.616.538,9.027,1.98,2.41,1.434,4.413,3.761,6.002,6.968,1.537,3.103,2.119,6.232,1.748,9.385-.374,3.146-1.604,6.14-3.701,8.976-2.091,2.842-4.921,5.439-8.48,7.804l2.744,5.54c.291.588.341,1.157.153,1.722-.191.558-.551.973-1.084,1.236l-5.7,2.823Z" class="coloraeb4e5 svgShape"></path>
      <g fill="#000000" class="color000000 svgShape">
        <path fill="#ccc5b9" d="m732.293 2066.797-29.71 14.716c-1.93.956-2.72 3.296-1.764 5.226.956 1.931 3.296 2.72 5.227 1.764l29.71-14.716c1.93-.956 2.72-3.296 1.764-5.227-.956-1.93-3.296-2.72-5.227-1.764ZM630.983 2101.018l93.654-46.39c2.653-1.314 3.738-4.529 2.424-7.182-1.314-2.653-4.529-3.738-7.182-2.424l-93.654 46.39c-2.652 1.314-3.737 4.529-2.424 7.181 1.314 2.653 4.529 3.738 7.181 2.424ZM639.384 2121.263l52.414-25.962c1.93-.956 2.72-3.296 1.764-5.226-.956-1.931-3.296-2.72-5.227-1.764l-52.414 25.962c-1.931.956-2.72 3.296-1.764 5.227.956 1.93 3.296 2.72 5.227 1.763Z" class="coloraeb4e5 svgShape"></path>
      </g>
    </g>
  </g>
</svg>
