<svg xmlns="http://www.w3.org/2000/svg" id="ContactIsEmpty" viewBox="0 0 1080 1080">
  <path d="M942.68,596.73c-.72,4.92-1.33,7.98-1.48,8.68a208.775,208.775,0,0,1-18.1,51.03v.01q-3.51,6.945-7.51,13.69a261.882,261.882,0,0,1-26.61,36.95q-9.045,10.575-19.28,20.5c-29.54,28.74-65.93,53.32-105.86,73.2q-11.25,5.61-22.86,10.7a574.257,574.257,0,0,1-75.46,26.97q-7.995,2.25-16.02,4.26c-9.29,2.34-18.62,4.44-27.93,6.29q-18.87,3.765-37.6,6.2c-15.97,2.08-31.8,3.4-47.32,3.97a538.616,538.616,0,0,1-55.58-.94c-9.49-.62-19.12-1.5-28.83-2.63a.085.085,0,0,1-.07,0q-12.915-1.485-26-3.56c-2.38-.38-4.76-.78-7.15-1.18-16.15-2.77-32.35-6.23-48.38-10.4-.29-.07-.58-.14-.87-.23a4.209,4.209,0,0,1-.48-.12q-.675-.165-1.35-.36c-14.28-3.78-28.39-8.13-42.19-13.07-9.71-3.47-19.27-7.24-28.6-11.31q-6.66-2.895-13.15-6-5.94-2.835-11.74-5.85c-22.81-11.84-43.79-25.69-61.92-41.65a231.737,231.737,0,0,1-23.02-23.27,191.362,191.362,0,0,1-27.17-41.34,172.869,172.869,0,0,1-9.06-22.78q-1.545-4.845-2.83-9.86a210.678,210.678,0,0,1-6.32-46.62q-.15-5.655,0-11.36a217.931,217.931,0,0,1,4.55-39.38c7.19-34.15,22.9-65.74,48.07-86.81,43.34-36.3,110.25-37.62,151.7-34.16,16.15,1.35,28.44,3.42,33.96,4.44,8.21,1.51,16.25,3.38,24.38,5.34,30.13,7.25,61.53,15.63,107.25,10.49,4.76-.54,21.35-2.54,51.72-10.99a448.98,448.98,0,0,0,66.31-23.71c.96-.44,1.91-.87,2.85-1.3,2.43-1.13,4.77-2.24,7.06-3.35.58-.28,1.17-.57,1.74-.85,4.61-2.26,8.96-4.49,13.12-6.67h.02c.15-.08.29-.16.44-.24.57-.3,1.13-.59,1.69-.89a.827.827,0,0,0,.16-.09c6.06-3.19,11.75-6.28,17.31-9.21,1.15-.61,2.3-1.21,3.44-1.8.8-.41,1.6-.83,2.4-1.23.55-.28,1.1-.56,1.64-.84h.01c3.34-1.68,6.66-3.3,10.05-4.84,5.27-2.41,10.68-4.63,16.44-6.63,4.54-1.59,9.29-3.03,14.37-4.32,50.36-12.81,125.67-8.72,173.58,35.62,39.02,36.13,48.44,88.39,49.18,127.37A277.126,277.126,0,0,1,942.68,596.73Z" fill="#eb5e28" class="colore6edfa svgShape"></path>
  <path d="M621.566 569.17V849.01a533.833 533.833 0 0 1-84.92 10.17c-73.02 2.67-163.61-10.73-239.5-43.79a389.493 389.493 0 0 1-36.87-18.36c-.01 0-.01-.01-.02-.01q-10.845-6.165-21.01-12.98-9.285-6.225-17.91-13.01-5.655-4.47-11-9.17c-27.44-24.15-48.37-53.14-59.25-87.37-1.02-3.23-1.97-6.51-2.82-9.85a210.252 210.252 0 0 1-6.33-46.62V606.65a217.822 217.822 0 0 1 4.55-39.37h73.3V668.35h12.55V466.83h77.85V770.05H357.9V519.57l185.83 92.91V569.17a36.419 36.419 0 0 1 36.42-36.42h5A36.419 36.419 0 0 1 621.566 569.17ZM942.675 566.965v29.771c-.712 4.913-1.323 7.972-1.473 8.674C916.065 723.974 785.6 808.561 649.5 842.725V496.966h77.843V758.122H739.9V601.456l77.842-34.18v-.311a62.465 62.465 0 1 1 124.929 0Z" fill="#252422" class="colord8dff3 svgShape"></path>
  <path d="M915.593 670.137a261.62 261.62 0 0 1-26.615 36.95V685c0-8.213 11.245-14.867 25.121-14.867ZM426.171 852.046q-3.569-.562-7.147-1.179A559.013 559.013 0 0 1 325.752 826.7L371.237 704.67Z" fill="#ccc5b9" class="colorbdcfd3 svgShape"></path>
  <path d="M284 809.385c-38.074-18.178-71.762-41.611-96.679-70.776l35.15-94.3ZM923.1 656.448q-3.5 6.951-7.506 13.688a261.765 261.765 0 0 1-26.616 36.95q-9.048 10.575-19.275 20.5c-52.583 51.147-126.831 89.12-204.186 110.877q-7.988 2.241-16.013 4.259-13.943 3.5-27.939 6.289-18.861 3.762-37.6 6.2a50.389 50.389 0 0 1 5.727-4.072c11.524-7.013 24.987-10.73 35.632-19.013-5.518-4.211-1.157-13 3.82-17.835a116.324 116.324 0 0 1 41.6-25.924c-2.5-19.522 18.932-37.92 37.849-32.5a20.154 20.154 0 0 1 39.425-5.363 63.076 63.076 0 0 1 5.69-19.747c2.587-5.443 10.683-5.026 12.59.7a.827.827 0 0 0 .037.113c6.274-12.622 26-15.558 35.675-5.3-3.375-12.568 11.765-25.683 23.723-20.551-5.738-8.422-7.287-20.186-1.876-28.822s18.558-12.07 26.434-5.6c-5.593-9.536 1.451-23.765 12.429-25.1 5.6-.681 11.159 1.478 16.806 1.623a15.335 15.335 0 0 0 8.288-2.218c6.246-3.949 14.416-3.359 19.4 2.095a40.449 40.449 0 0 1 7.752 12.986C917.774 659.352 920.459 657.884 923.1 656.448Z" fill="#efe1ca" class="colorcad4ef svgShape"></path>
  <path d="M413.067,410.655c-33.649-7.246-69.282-21.178-85.847-51.35-5.949-10.835-8.949-24.074-4.576-35.635,5.873-15.526,23.178-23.726,39.6-26.115a97.966,97.966,0,0,1,59.846,10.491c24.937,13.348,44.935,37.852,72.943,41.8,21.426,3.017,42.227-6.89,62.865-13.391s45.881-8.693,61.395,6.39c3.709,3.606,4.328,8.4,4.687,10.358,3.026,16.5-13.317,31.641-19.228,37.116-8.066,7.474-26.8,21.594-85.435,26.323C487.77,419.182,455.6,419.814,413.067,410.655Z" fill="#eb5e28" class="colore6edfa svgShape"></path>
  <path d="M332.171,411.3H135.29a30.984,30.984,0,0,1,41.163-42.952,47.658,47.658,0,1,1,91.107,23.021C289.072,398.2,310.17,406.545,332.171,411.3Z" fill="#ebe7da" class="colordae8eb svgShape"></path>
  <path d="M754.3,472.925H860.246A16.673,16.673,0,0,0,838.1,449.811,25.647,25.647,0,1,0,789.067,462.2C777.491,465.871,766.137,470.364,754.3,472.925Z" fill="#252422" class="colord8dff3 svgShape"></path>
  <path d="M657.553,339H926.174a42.275,42.275,0,0,0-56.162-58.6,65.024,65.024,0,1,0-124.3,31.41C716.357,321.117,687.571,332.509,657.553,339Z" fill="#ebe7da" class="colordae8eb svgShape"></path>
  <path d="M425.706,592.584l2.046,14.18a30.053,30.053,0,0,1-29.56,34.318h-.165a30.027,30.027,0,0,1-30.018-29.865l-.209-39.133-.121-22.642L356.9,549.5h-.1a16.321,16.321,0,0,1-1.779-.1,91.529,91.529,0,0,1-7.153-31.573,19.4,19.4,0,0,1,13.792-4.155l5.679.489,14.313-27.679,56.916,13.925q1.077,3.584,2.02,6.982C463.759,591.225,425.706,592.584,425.706,592.584Z" fill="#ffe8c1" class="colorffc1c2 svgShape"></path>
  <path d="M405.791 538.42c-.02-.053-1.842-5.471.739-8.826 1.715-2.227 5.078-3.175 10.006-2.818l.218-3.034c-6.017-.432-10.273.916-12.644 4.013-3.572 4.671-1.289 11.381-1.189 11.665ZM427.779 606.948a21.557 21.557 0 0 1-12.472-13.624 24.5 24.5 0 0 0 5.309.068s1.244-.121 5.088-.807h0Z" fill="#eed09c" class="coloree9c9e svgShape"></path>
  <path d="M440.591,507.393c-.75-.038-4-.121-5.121,1.791a2.815,2.815,0,0,0-.2.439l-8.919,22.489a1.909,1.909,0,0,1-1.982,1.251,1.819,1.819,0,0,1-1.563-1.569l-1.214-9.307a7.075,7.075,0,0,0-6.41-6.13,19.529,19.529,0,0,0-21.034,22.006,16.115,16.115,0,0,0,16.1,13.817h.153l7.6-.038a2,2,0,0,1,1.811,2.865l-5.266,11.02a10.646,10.646,0,0,1-9.606,6.057H367.8c-.006,0-.006-.007-.006-.007C345.828,546.729,338,515.815,349,492.714a52.4,52.4,0,0,1,15.574-18.938,80.538,80.538,0,0,1,29-12.776c15.251-3.242,23.783,0,36-5.572a43.335,43.335,0,0,0,9.607-6.035,14.15,14.15,0,0,1,21.369,3.877,33.145,33.145,0,0,1,3.5,9.094C467.673,478.754,458.423,497.285,440.591,507.393Z" fill="#7b5c32" class="color32477b svgShape"></path>
  <path d="M598.485,762.392l17.833-127.239s-24.09-43.2-56.324-15.765l-53.01,174.1a40.558,40.558,0,0,0,32.762,51.92h0a42.614,42.614,0,0,0,48-33.166Z" fill="#ffe8c1" class="colorffc1c2 svgShape"></path>
  <path d="M615.735,634.272s-47.342,4.4-55.532-15.174,4.524-60.013,4.524-60.013a38.5,38.5,0,0,0,3.346,6.311l-3.277,7.953a6.877,6.877,0,0,0,3.736,8.975l4.6,1.894,42.943,17.708a.487.487,0,0,0,.112.033c0,.014.024.018.038.016.026-5.35,7.21-9.273,11.861-11.262,2.253-.955,3.912-1.458,3.912-1.458a28.82,28.82,0,0,1-1.834-3.572c-2.333-5.438-1.925-9.651-.8-12.613a4.405,4.405,0,0,1,6.769-1.893,4.06,4.06,0,0,1,.568.52l3.186,3.434,11.179,12.022a7.523,7.523,0,0,1,.627,9.482C631.2,625.465,615.735,634.272,615.735,634.272Z" fill="#ffe8c1" class="colorffc1c2 svgShape"></path>
  <path d="M615.97,602.25a.487.487,0,0,1-.112-.033l-42.944-17.708-4.6-1.894a6.879,6.879,0,0,1-3.736-8.975l3.277-7.953A51.049,51.049,0,0,0,571.3,570.4C586.233,588.727,614.727,601.689,615.97,602.25Z" fill="#f0cb8c" class="colorf0ae8c svgShape"></path>
  <path d="M590.881,523.2a13.4,13.4,0,0,0-2.89-4.407,5.433,5.433,0,0,0-4.646-1.638,5.13,5.13,0,0,0-4.12,6.385l.087.329,1.318,5.329,4.7,10.067,9.929-7.554Z" fill="#ffe8c1" class="colorffc1c2 svgShape"></path>
  <path d="M660.718,511.518,636.15,571.089a4.4,4.4,0,0,0-6.769,1.9c-1.13,2.964-1.535,7.174.8,12.61l-2.079,5.031c-4.658,1.993-11.842,5.915-11.863,11.266-.011,0-.043-.011-.043-.021-.043-.011-.074-.022-.107-.032l-42.944-17.705-4.6-1.9a6.874,6.874,0,0,1-3.731-8.974l2.3-5.586.969-2.366,3.464-8.41,4.413-10.69,5.085-12.322,4.5-10.914,4.274-10.371,10.68-25.922a6.868,6.868,0,0,1,8.974-3.72l4.573,1.886h.021l42.913,17.694A6.884,6.884,0,0,1,660.718,511.518Z" fill="#e2c79a" class="color9aade2 svgShape"></path>
  <path d="M665.312,513.4,639.9,575.044l-3.187-3.433a3.755,3.755,0,0,0-.564-.522l24.568-59.571a6.884,6.884,0,0,0-3.741-8.975l4.6,1.886A6.875,6.875,0,0,1,665.312,513.4Z" fill="#c0a372" class="color7287c0 svgShape"></path>
  <path d="M660.718,511.518,636.15,571.089a4.4,4.4,0,0,0-6.769,1.9c-1.13,2.964-1.535,7.174.8,12.61a27.044,27.044,0,0,0,1.833,3.57s-1.663.5-3.912,1.461c-4.658,1.993-11.842,5.915-11.863,11.266-.011,0-.043-.011-.043-.021-.043-.011-.074-.022-.107-.032l-42.944-17.705a6.887,6.887,0,0,1-3.741-8.974l2.122-5.138L605.1,488.58a6.855,6.855,0,0,1,8.942-3.731h.021l42.913,17.694A6.884,6.884,0,0,1,660.718,511.518Z" fill="#e2c79a" class="color9aade2 svgShape"></path>
  <circle cx="596.833" cy="579.715" r="4.67" fill="#c0a372" class="color7287c0 svgShape"></circle>
  <path d="M616.008,602.266l-35.572-10.82a22.858,22.858,0,0,1-12.12-8.831h0Z" fill="#eed09c" class="coloree9c9e svgShape"></path>
  <path d="M575.332 560.618c-1.144-1.045-2.476-2.154-4.01-3.339a4.514 4.514 0 0 0-3.65-1.046c-2.1.479-2.892 2.77-3.129 3.458-1.386 4.009 2.017 8 2.339 8.366l3.914 3.553 2.88 2.627a4.845 4.845 0 0 0 7.152-.57C582.537 571.307 582.591 567.24 575.332 560.618ZM589.126 548.935c.747-2.564 0-5.851-5.216-9.266a34.748 34.748 0 0 0-4.39-2.408s-11.728 2.278-5.077 12.324l4.589 1.924 2.281.946A5.787 5.787 0 0 0 589.126 548.935Z" fill="#ffe8c1" class="colorffc1c2 svgShape"></path>
  <path d="M605.006,789.85l-5.02,1.87-6.72,2.5-1.78.66-4.92,1.83h-.01l-76.21,28.34-4.56,1.69-.63.24h-.01l-1.55.58-.02.01V859.3q-9.99-.255-20.26-.91c-18.63-1.17-37.82-3.27-57.15-6.34-2.38-.38-4.76-.78-7.15-1.18q-15.555-2.67-31.11-6.2c-.69-.15-1.39-.31-2.08-.48-14.16-3.26-28.24-7.07-42.07-11.45-.66-.2-1.32-.41-1.97-.62q-8.085-2.58-16.04-5.43c-10.29-3.68-20.4-7.68-30.25-12.04V769.92l-1.64-.01-18.83-.14-32.45-.23-.3-31.62-.03-2.73-.57-59.93-.02-2.39-.03-3.21a53.842,53.842,0,0,1,31.91-49.7c.93-.42,1.88-.81,2.84-1.17a53.821,53.821,0,0,1,16.18-3.41l40.41-2.18,35.07-1.08,13.84-.43,46.17-1.41,13.26-.4.58-.02,1.77-.05,37.2-1.14,2.55-.08,21.03-.64a50.4,50.4,0,0,1,20.75,3.77c.64.26,1.27.53,1.89.82a50.529,50.529,0,0,1,18.74,14.8c.45.57.88,1.14,1.3,1.73a50.607,50.607,0,0,1,6.3,11.89c.13.33.25.66.37,1l10.75,31.05.79,2.28,2.4,6.92,1.59,4.57,8.26,23.88,6.94,20.03.66,1.9,12.16,35.11,5.71,16.5Z" fill="#d4ac68" class="color687ed4 svgShape"></path>
  <path d="M503.58,827.57V859.3q-9.99-.255-20.26-.91a34.283,34.283,0,0,0,4.42-16.88V731.58l15.27,92.5.07.46Z" fill="#c99248" class="color4863c9 svgShape"></path>
  <polygon points="295.507 718.671 275.023 769.788 295.503 769.923 295.507 718.671" fill="#c99248" class="color4863c9 svgShape"></polygon>
  <path d="M387.666,688.9c-.43,12.06-3.73,23.78-6.92,35.11l-15.37,54.61c-3.57,12.69-7.27,25.81-12.92,38.02a161.091,161.091,0,0,1-8.7,16.1c-.66-.2-1.32-.41-1.97-.62a161.948,161.948,0,0,0,8.86-16.32c5.58-12.07,9.25-25.11,12.8-37.73l15.38-54.6c3.16-11.22,6.42-22.82,6.85-34.64.49-13.65-4.18-32.4-18.95-40.33-6.85-3.67-14.8-4.5-22.36-4.83-25.03-1.13-47.86,2.71-67.84,11.41-12.33,5.36-23.79,12.72-34.85,20.18l-.02-2.39c10.8-7.27,22-14.37,34.07-19.62,20.27-8.82,43.39-12.72,68.73-11.58,7.8.35,16.01,1.2,23.21,5.07C383.246,655.1,388.176,674.68,387.666,688.9Z" fill="#c99248" class="color4863c9 svgShape"></path>
  <path d="M331.9 708.8c-.13 25.63-8.44 52.52-24.72 79.92-3.64 6.14-7.56 12.11-11.68 17.94v-3.48c3.5-5.05 6.84-10.2 9.97-15.48 16.08-27.09 24.3-53.64 24.43-78.91.03-6.28-1.17-14.31-7.07-16.96-3.1-1.39-6.79-.85-9.66-.23-11.49 2.49-21.96 8.68-30.68 14.41a287.221 287.221 0 0 0-40.21 31.91l-.03-2.73a289.394 289.394 0 0 1 39.14-30.85c8.88-5.83 19.55-12.13 31.35-14.69 3.17-.69 7.28-1.27 10.91.36C329.086 692.45 331.936 698.95 331.9 708.8ZM565.326 675.29a96.266 96.266 0 0 0-5.36 8.25c-6.2 10.69-10.36 22.64-14.39 34.2-1.66 4.78-3.39 9.72-5.23 14.53-5.1 13.23-13.73 32.11-29.86 43.24-14.66 10.12-33.15 12.27-50 12.27-6.82 0-13.36-.35-19.27-.67-7.85-.42-16.65-1.39-21.62-7.57-2.35-2.91-3.69-6.77-4.21-12.14-2.08-21.16 8.59-40.39 18.92-58.98 4.17-7.53 8.49-15.31 11.9-23.1 3.09-7.07 5.56-14.56 7.96-21.79 1.75-5.31 3.57-10.81 5.62-16.12a172.679 172.679 0 0 1 21.07-38.74l2.55-.08a170.737 170.737 0 0 0-21.75 39.54c-2.04 5.27-3.85 10.74-5.59 16.03-2.41 7.28-4.9 14.8-8.03 21.96-3.44 7.88-7.79 15.7-11.99 23.27-10.17 18.33-20.69 37.28-18.67 57.81.49 4.97 1.69 8.49 3.78 11.09 4.46 5.54 12.4 6.41 20.16 6.82 25.3 1.36 49.54 1.52 68.04-11.24 15.67-10.82 24.12-29.34 29.12-42.32 1.84-4.77 3.55-9.7 5.22-14.47 4.05-11.64 8.25-23.68 14.54-34.55a96.183 96.183 0 0 1 6.3-9.52Z" fill="#c99248" class="color4863c9 svgShape"></path>
  <path d="M547.116 629.07a202.134 202.134 0 0 0-17.65 39.39c-1.14 3.53-2.21 7.15-3.24 10.66-2.65 9.03-5.39 18.36-9.7 26.93-4.06 8.09-13.24 22.29-29.03 26.45a8.76 8.76 0 0 1-2.1.33 4.255 4.255 0 0 1-1.36-.22 5.733 5.733 0 0 1-2.94-2.92c-3.15-5.76-3.5-12.58-3.48-17.2.06-19.77 7.07-41.12 20.84-63.46 7.69-12.47 16.75-24.28 25.5-35.71.41-.53.82-1.06 1.23-1.6.64.26 1.27.53 1.89.82-.51.67-1.02 1.34-1.53 2-8.73 11.38-17.75 23.16-25.39 35.54-13.57 22.02-20.49 43.02-20.54 62.41-.02 4.41.3 10.88 3.23 16.24a4.112 4.112 0 0 0 1.84 1.99 4.259 4.259 0 0 0 2.3-.16c15.03-3.95 23.84-17.62 27.76-25.41 4.22-8.41 6.94-17.65 9.56-26.59 1.04-3.52 2.11-7.16 3.26-10.71a204.708 204.708 0 0 1 18.25-40.51C546.266 627.91 546.7 628.48 547.116 629.07ZM585.176 732.59a34 34 0 0 0-11.09 8c-5.13 5.75-7.51 13.06-10.01 20.79a119.817 119.817 0 0 1-4.22 11.58c-9.36 21.02-31.57 36.48-60.93 42.4-17.02 3.43-34.66 3.65-51.72 3.87-8.01.1-16.29.2-24.39.64-7.96.42-17.06 1.25-24.47 5.7-6.28 3.77-11.63 11.38-10.44 19.1-.69-.15-1.39-.31-2.08-.48-.86-8.31 4.84-16.33 11.49-20.33 7.8-4.69 17.2-5.55 25.39-5.99 8.14-.44 16.45-.54 24.48-.64 16.96-.22 34.51-.44 51.34-3.83 28.3-5.71 50.54-21.13 59.51-41.25a117.2 117.2 0 0 0 4.13-11.39c2.47-7.59 5.01-15.43 10.43-21.5a36.687 36.687 0 0 1 11.92-8.57ZM443.656 609.81a38.745 38.745 0 0 1-14.29 14.22c-12.42 6.99-26.97 7.77-40.95 7.77h-1.73a635.513 635.513 0 0 1-90.98-6.94c-7.43-1.11-15.05-2.43-22.17-4.9.93-.42 1.88-.81 2.84-1.17a132.353 132.353 0 0 0 19.63 4.09 632.8 632.8 0 0 0 90.69 6.92c14.21.06 29.17-.48 41.69-7.52a36.821 36.821 0 0 0 12.92-12.4l.58-.02Z" fill="#c99248" class="color4863c9 svgShape"></path>
  <rect width="3.286" height="110.264" x="492.965" y="718.038" transform="rotate(-9.372 494.607 773.165)" fill="#c99248" class="color4863c9 svgShape"></rect>
  <rect width="3.286" height="63.824" x="293.864" y="706.099" fill="#c99248" class="color4863c9 svgShape"></rect>
  <line x1="518.477" x2="505.207" y1="837.059" y2="827.299" fill="none"></line>
  <path d="M295.5,769.92v45.43c-32.48-1.54-44.15-14.31-47.97-25.92a36.25,36.25,0,0,1-.63-19.51Z" fill="#ffe8c1" class="colorffc1c2 svgShape"></path>
  <polygon points="246.896 769.923 295.503 783.975 295.503 769.923 246.896 769.923" fill="#eed09c" class="coloree9c9e svgShape"></polygon>
  <polygon points="586.569 796.714 515.404 832.179 510.355 825.048 586.569 796.714" fill="#eed09c" class="coloree9c9e svgShape"></polygon>
  <path d="M568.347 425.356h0a24.487 24.487 0 0 1 24.487 24.487v24.487a0 0 0 0 1 0 0H568.347a24.487 24.487 0 0 1-24.487-24.487v0A24.487 24.487 0 0 1 568.347 425.356ZM686.342 426.654h0A28.541 28.541 0 0 1 714.884 455.2v0a28.541 28.541 0 0 1-28.541 28.541H657.8a0 0 0 0 1 0 0V455.2a28.541 28.541 0 0 1 28.541-28.541ZM669.6 533.9H691.25A21.652 21.652 0 0 1 712.9 555.548v0A21.652 21.652 0 0 1 691.25 577.2h0A21.652 21.652 0 0 1 669.6 555.548V533.9a0 0 0 0 1 0 0Z" fill="#7b5c32" class="color32477b svgShape"></path>
  <circle cx="568.347" cy="440.913" r="5.55" fill="#fffcf2" class="colorffffff svgShape"></circle>
  <path d="M555.681,460.612a12.667,12.667,0,1,1,25.333,0Z" fill="#fffcf2" class="colorffffff svgShape"></path>
  <circle cx="686.342" cy="446.95" r="6.469" fill="#fffcf2" class="colorffffff svgShape"></circle>
  <path d="M671.579,469.91a14.764,14.764,0,1,1,29.527,0Z" fill="#fffcf2" class="colorffffff svgShape"></path>
  <circle cx="691.25" cy="549.293" r="4.908" fill="#fffcf2" class="colorffffff svgShape"></circle>
  <path d="M680.05,566.711a11.2,11.2,0,0,1,22.4,0Z" fill="#fffcf2" class="colorffffff svgShape"></path>
  <path d="m581.82 459.36-18.99-18.99-3.46-3.45c-1.36-1.36-3.19-1.74-4.09-.84l-.16.15c-.9.9-.52 2.74.84 4.1l8.3 8.3.46.46 4.79 4.8.13.13 6.6 6.59 2.16 2.16c1.36 1.36 3.2 1.74 4.1.84l.15-.16C583.55 462.55 583.18 460.72 581.82 459.36ZM702.98 465.66l-6.2-6.19-5.07-5.08L674.1 436.78c-1.75-1.75-4.11-2.24-5.27-1.08l-.2.2c-1.16 1.16-.68 3.53 1.07 5.28l11.27 11.27 2.91 2.91 3.43 3.43 11.13 11.12.15.15c1.75 1.75 4.11 2.23 5.27 1.07l.2-.2C705.22 469.78 704.73 467.42 702.98 465.66ZM702.8 564.65l-.69-.69-7.13-7.14-.97-.97-1.76-1.75-1.68-1.68-4.13-4.12v-.01l-3.69-3.69c-1.22-1.22-2.86-1.56-3.66-.75l-.14.14c-.81.8-.47 2.44.74 3.66l7.83 7.82.51.51 3.89 3.9 6.84 6.83.99.99c1.22 1.22 2.86 1.55 3.66.75l.14-.14C704.36 567.51 704.02 565.87 702.8 564.65Z" fill="#403d39" class="color1e3156 svgShape"></path>
  <path d="M357.8,437.34a7.486,7.486,0,0,0-3.05-2.08,15.41,15.41,0,0,0-2.93-.77,19.047,19.047,0,0,0,2.25-8.38,15.858,15.858,0,0,0-4.31-11.23,12.835,12.835,0,0,0-6.28-3.44c1.82-1.8,3.61-3.66,5.34-5.56a6.39,6.39,0,0,0,1.84-6.85,9.938,9.938,0,0,0-3.57-5.11c-3.35-2.48-6.85-2.21-9.89-1.75a82.511,82.511,0,0,0-41.89,19.05l1.43,1.66a80.546,80.546,0,0,1,40.78-18.55c2.72-.4,5.59-.63,8.27,1.34a7.973,7.973,0,0,1,2.77,3.98c.72,2.47-.29,3.58-1.36,4.76q-3.135,3.42-6.47,6.65a26.459,26.459,0,0,0-7.46.78,87.943,87.943,0,0,0-35.92,17.58,3.739,3.739,0,0,0-1.11,4.19,7.28,7.28,0,0,0,6.07,4.8c.28.03.56.04.83.05,3.06,0,5.42-1.18,7.77-2.51a153.048,153.048,0,0,0,30.65-22.64,10.964,10.964,0,0,1,6.65,3.13,13.55,13.55,0,0,1,3.67,9.62,17.952,17.952,0,0,1-2.43,8.25c-4-.02-8.3,1.46-12.82,4.44-1.62,1.07-3.18,2.24-4.68,3.38-1.39,1.04-2.82,2.1-4.27,3.09-.1.07-.2.13-.3.2a2.962,2.962,0,0,0-1.12,3.64,4.217,4.217,0,0,0,4.4,2.63,17.256,17.256,0,0,0,4.5-1.35,34.272,34.272,0,0,0,15.53-13.78,12.944,12.944,0,0,1,3.31.76,5.268,5.268,0,0,1,2.14,1.44c1.74,2.01,1.4,4.74-1.04,8.38v.01a119.727,119.727,0,0,1-7.76,10.28l1.68,1.42a119.158,119.158,0,0,0,7.9-10.48q.33-.5.6-.96C360.55,442.35,359.39,439.15,357.8,437.34Zm-47.97-3.3c-2.16,1.22-4.15,2.22-6.69,2.22-.21,0-.42-.01-.64-.03a5.046,5.046,0,0,1-4.16-3.27,1.619,1.619,0,0,1,.36-1.82c.01-.01.03-.02.04-.03a86.086,86.086,0,0,1,35.03-17.15,29.525,29.525,0,0,1,4.65-.72A150.646,150.646,0,0,1,309.83,434.04Zm29.14,11.72a33.012,33.012,0,0,1-4.71,2.59,14.8,14.8,0,0,1-3.92,1.16,1.942,1.942,0,0,1-2.02-1.23.764.764,0,0,1,.15-.94.9.9,0,0,1,.12-.1c.92-.6,1.82-1.24,2.71-1.89.66-.48,1.32-.98,1.96-1.46,1.48-1.12,3.03-2.28,4.58-3.31a22.74,22.74,0,0,1,10.27-4.02A31.8,31.8,0,0,1,338.97,445.76Z" fill="#7b5c32" class="color32477b svgShape"></path>
</svg>
