<svg xmlns="http://www.w3.org/2000/svg" id="NoProjects" viewBox="0 0 1080 1080">
  <path d="M945.223,561.93c-10.09,47.62-37.18,89.75-74.79,125.34-80.65,76.31-209.71,122.53-323.52,128.16q-3.135.15-6.24.27c-14.05.51-28.74.43-43.86-.27-95.76-4.45-208.41-33.78-279.52-94.5-28.88-24.65-50.91-54.48-62.18-89.92-1.02-3.23-1.97-6.51-2.82-9.86-15.91-62.04-2.76-143.1,46.29-184.17,19.8-16.58,44.52-25.87,69.49-30.72h.01a281.92,281.92,0,0,1,58.21-4.66,366.94,366.94,0,0,1,57.95,5.65c10.38,1.91,20.5,4.41,30.88,6.92h.01c5.94,1.43,11.96,2.87,18.17,4.2h.01a260.587,260.587,0,0,0,48.19,6.21,242.226,242.226,0,0,0,34.37-1.49c4.76-.54,21.35-2.54,51.72-10.99,89.72-24.98,108.58-53.14,159.05-65.97,35.62-9.06,83.72-9.67,125.78,6.45a149.6,149.6,0,0,1,42.15,24.24h.01c1.92,1.59,3.8,3.22,5.64,4.93,39.03,36.13,48.44,88.39,49.18,127.36C949.953,538.22,945.653,559.91,945.223,561.93Z" fill="#eb5e28" class="colore6edfa svgShape"></path>
  <path d="M944.585,561.927C912.446,713.514,708.137,809.561,540.028,815.7c-139.163,5.084-342.165-48.211-385.56-184.7q-1.535-4.837-2.823-9.852c141.874,38.461,294.243,38.707,435.013-3.954,120.638-36.558,239.561-102.888,362.1-108.085C949.31,538.216,945.014,559.908,944.585,561.927Z" fill="#252422" class="colord8dff3 svgShape"></path>
  <path d="M423.337,378.061c-33.648-7.246-69.282-21.178-85.846-51.35-5.949-10.835-8.949-24.074-4.576-35.635,5.872-15.526,23.177-23.726,39.6-26.115a97.959,97.959,0,0,1,59.846,10.491C457.3,288.8,477.3,313.3,505.308,317.248c21.426,3.017,42.227-6.89,62.865-13.392s45.881-8.692,61.395,6.391c3.709,3.606,4.328,8.4,4.686,10.358,3.027,16.5-13.317,31.641-19.227,37.116-8.067,7.474-26.8,21.594-85.435,26.323C498.04,386.588,465.868,387.22,423.337,378.061Z" fill="#eb5e28" class="colore6edfa svgShape"></path>
  <path d="M869.79,598.14v89.13C789.14,763.58,660.08,809.8,546.27,815.43h-50.1c-95.76-4.45-208.41-33.78-279.52-94.5V598.14Z" fill="#ccc5b9" class="colorbac7eb svgShape"></path>
  <rect width="653.143" height="7.071" x="216.646" y="598.144" fill="#c0a372" class="color7287c0 svgShape"></rect>
  <path d="M227.6,655.045a.938.938,0,0,1-.855,1.014.268.268,0,0,1-.084.009.931.931,0,0,1-.93-.854L224.4,640.241l-.2-2.178-.967-11.02-.216-2.422-1.174-13.255c.085-.112.169-.216.254-.328.385-.488.788-.967,1.192-1.437a.934.934,0,0,1,.338.629l.094,1.024.075.854,1.117,12.663.2,2.2.939,10.635.206,2.394Z" fill="#fffcf2" class="colorffffff svgShape"></path>
  <path d="M268.288,638.73a.942.942,0,0,1-.8.441.978.978,0,0,1-.5-.141l-12.616-7.866-3.67-2.281-10.739-6.693-3.051-1.906L223.8,612.108l-1.6-.995a.63.63,0,0,1-.094-.075c.385-.488.788-.967,1.192-1.437,0-.009.019-.009.019-.009l2.666,1.662,13.489,8.4,1.774,1.108,12.786,7.97,1.736,1.088,12.222,7.613A.942.942,0,0,1,268.288,638.73Z" fill="#fffcf2" class="colorffffff svgShape"></path>
  <path d="M287.4,611.038a.882.882,0,0,1-.591.216H222.694a1,1,0,0,1-.5-.141.63.63,0,0,1-.094-.075c.385-.488.788-.967,1.192-1.437,0-.009.019-.009.019-.009a1.305,1.305,0,0,1,.188-.216h62.509C286.489,609.911,286.95,610.475,287.4,611.038Z" fill="#fffcf2" class="colorffffff svgShape"></path>
  <path d="M268.38,610.62a.915.915,0,0,1-.55.57c-.03.01-.08.03-.16.06-1.33.6-10,4.89-11.9,18.57-.04.19-.06.39-.09.58a.9.9,0,0,1-.39.66.91.91,0,0,1-.75.14.8.8,0,0,1-.16-.04A32.363,32.363,0,0,0,226.26,640c-.1.1-.2.19-.3.3a.971.971,0,0,1-.67.27,1.138,1.138,0,0,1-.45-.1c-.13-.08-.28-.15-.44-.23a27.69,27.69,0,0,0-7.75-2.65v-1.88a27.664,27.664,0,0,1,7.56,2.35c.35.16.65.3.9.43.31-.31.63-.61.94-.89a34,34,0,0,1,24.66-8.72,30.665,30.665,0,0,1,3.24.31c.02-.16.05-.31.08-.46,1.61-9.9,6.64-15.06,9.98-17.48a18.466,18.466,0,0,1,2.19-1.37c-.07-.17-.15-.33-.21-.5a12.609,12.609,0,0,1-.93-4.16,18.6,18.6,0,0,1,1.07-7.08c.2-.57.37-.98.46-1.18.61.18,1.2.36,1.79.57a.3.3,0,0,1-.04.1c0,.01-.09.19-.21.51a17.545,17.545,0,0,0-1.18,7.08,10.607,10.607,0,0,0,1.1,4.16c.08.16.16.31.25.46A.927.927,0,0,1,268.38,610.62Z" fill="#fffcf2" class="colorffffff svgShape"></path>
  <path d="M250.91 595.43a.913.913 0 0 1-.29.51 14.6 14.6 0 0 0-1.89 2.2 13.175 13.175 0 0 0-2.54 7.08 11.459 11.459 0 0 0 .63 4.16c.07.19.15.39.22.59a.926.926 0 0 1-.24 1.04c-.01.01-.1.09-.25.24-1.08 1.05-5.18 5.31-5.31 9.51a4.005 4.005 0 0 0 0 .49.924.924 0 0 1-.32.74.9.9 0 0 1-.77.22c-.01 0-.07-.01-.18-.02a21.089 21.089 0 0 0-14.85 4.78 2.866 2.866 0 0 0-.4.31.907.907 0 0 1-.59.21.954.954 0 0 1-.6-.21c-.01-.01-.11-.1-.29-.24-1-.73-4.29-3.02-6.59-2.41v-1.91c2.25-.35 4.76.87 6.37 1.9.44.27.82.54 1.1.74.26-.2.54-.4.8-.59a23.555 23.555 0 0 1 12-4.49 18.789 18.789 0 0 1 2.47-.02 5.779 5.779 0 0 1 .08-.6c.51-3.42 2.85-6.58 4.48-8.41.45-.5.83-.91 1.12-1.19-.08-.22-.15-.46-.21-.68a12.579 12.579 0 0 1-.51-4.16 14.774 14.774 0 0 1 2.2-7.08 17.564 17.564 0 0 1 1.69-2.38Q249.56 595.535 250.91 595.43ZM278.053 647.188a.938.938 0 0 1-.939-.939v-35a.939.939 0 1 1 1.878 0v35A.938.938 0 0 1 278.053 647.188Z" fill="#fffcf2" class="colorffffff svgShape"></path>
  <circle cx="277.685" cy="648.406" r="5.057" fill="#403d39" class="color32477b svgShape"></circle>
  <circle cx="277.685" cy="654.542" r="2.841" fill="#403d39" class="color32477b svgShape"></circle>
  <path d="M289.04 646.43a.239.239 0 0 1-.167-.07l-4.266-4-3.868 3.125a.249.249 0 0 1-.388-.106.413.413 0 0 1 .085-.489l4.195-3.389 4.577 4.293a.417.417 0 0 1 .058.5A.268.268 0 0 1 289.04 646.43ZM287.146 650.919a.257.257 0 0 1-.212-.122l-2.576-3.731-2.759 1.382a.265.265 0 0 1-.364-.2.391.391 0 0 1 .157-.46l3.128-1.567 2.837 4.109a.42.42 0 0 1-.027.5A.25.25 0 0 1 287.146 650.919ZM284.619 654.9a.306.306 0 0 1-.275-.285l-.542-3.435h-2.783a.363.363 0 0 1 0-.707h3.244l.632 4a.36.36 0 0 1-.221.416A.213.213 0 0 1 284.619 654.9ZM266.338 646.43a.268.268 0 0 1-.226-.142.417.417 0 0 1 .058-.5l4.577-4.293 4.195 3.389a.413.413 0 0 1 .085.489.249.249 0 0 1-.388.106l-3.868-3.125-4.266 4A.239.239 0 0 1 266.338 646.43ZM268.232 650.919a.25.25 0 0 1-.184-.087.42.42 0 0 1-.027-.5l2.837-4.109 3.128 1.567a.391.391 0 0 1 .157.46.265.265 0 0 1-.364.2l-2.759-1.382-2.576 3.731A.257.257 0 0 1 268.232 650.919ZM270.759 654.9a.213.213 0 0 1-.055-.007.358.358 0 0 1-.22-.416l.631-4h3.244a.363.363 0 0 1 0 .707h-2.783l-.542 3.435A.306.306 0 0 1 270.759 654.9Z" fill="#403d39" class="color32477b svgShape"></path>
  <rect width="673.714" height="36" x="206.36" y="562.144" rx="10.071" fill="#efe1ca" class="colorcad4ef svgShape"></rect>
  <path d="M494.36,562.144H282.734l-16.8-171.16c-1.594-16.243,11.007-29.411,28.145-29.411H443.642c17.139,0,32.324,13.168,33.919,29.411Z" fill="#e2c79a" class="color9aade2 svgShape"></path>
  <path d="M341.406,562.144H282.734L265.777,389.376c-1.507-15.355,10.405-27.8,26.607-27.8h0c16.2,0,30.558,12.448,32.065,27.8Z" fill="#c0a372" class="color7287c0 svgShape"></path>
  <path d="M829.438,425.06c4.628-9.848.192-21.751-.561-23.437-2.106-4.718-5.4-9.312-5.666-14.157-.166-3.039,1.47-5.693,4.2-11,3.189-6.206,4.114-5.976,4.685-8.88a19.817,19.817,0,0,0-3.16-14.188,22.5,22.5,0,0,0-10.947-8.566,20.862,20.862,0,0,0-22.5,5.147c-1.507,1.575-7.084,7.4-5.986,15.833,1.184,9.087,9.028,12.984,8.377,21.583-.074.976-.177.977-2.884,7.837-6.211,15.742-6.423,17.614-6.328,19.58.37,7.7,5.236,13.368,6.648,14.9,1.826,1.981,6.475,6.387,13.157,7.335C817.726,438.357,826.022,432.327,829.438,425.06Z" fill="#cbac77" class="color77bbcb svgShape"></path>
  <path d="M738.105 394.139c1.838 11.04 11.458 17.578 12.918 18.421 4.092 2.365 8.987 3.8 11.842 7.581 1.8 2.385 2.087 5.753 3.066 12.153 1.156 7.564.351 8.05 1.57 10.942a18.079 18.079 0 0 0 10.4 9.823 17.3 17.3 0 0 0 12.888-.833c8.307-3.687 12.472-12.936 12.926-20.912.136-2.393.636-11.167-4.932-17.255-5.948-6.5-13.577-4.2-17.9-11.547-.488-.828-.417-.9-2.307-8.171-4.253-16.36-5.113-17.932-6.232-19.372a19.422 19.422 0 0 0-12.489-7 18.489 18.489 0 0 0-13.025 2.95C739.585 375.953 736.769 386.122 738.105 394.139ZM894.011 381A32.365 32.365 0 0 1 878.7 404.6c-4.988 3.013-11 4.889-14.187 9.491-2.9 4.187-2.656 9.5-2.618 14.393.042 5.523-.348 11.139-2.539 16.184-2.169 5-6.357 9.37-11.741 10.681-3.687.9-7.585.315-11.252-.58-11.282-2.752-22.2-9.063-27.267-19.17-5.077-10.124-2.394-24.607 7.781-30.054 7.941-4.251 19.709-3.46 24.061-11.758 1.58-3.013 1.646-6.512 1.894-9.882a83.061 83.061 0 0 1 5.543-24.1c2-5.1 4.606-10.23 8.728-14.092 4.17-3.908 10.165-6.308 15.345-4.892C883.5 343.838 895.179 370.063 894.011 381Z" fill="#cbac77" class="color77bbcb svgShape"></path>
  <path d="M814.323,478.43l-2.826-.592c.6-2.876,15.205-70.654,52.939-90.985l1.369,2.542C829.242,409.1,814.467,477.739,814.323,478.43Z" fill="#a58753" class="color5394a5 svgShape"></path>
  <path d="M813.911,485.592l-2.173-7.026c-.2-.63-19.839-63.159-51.616-78.562l1.26-2.6c26.75,12.966,44.575,56.192,50.742,73.318,1.208-30.928-3.916-83.872-3.971-84.448l2.873-.281c.061.627,6.1,63.06,3.53,92.271Z" fill="#a58753" class="color5394a5 svgShape"></path>
  <path d="M833.973,562.144H778.7a6.3,6.3,0,0,1-6.27-5.657l-8.845-85.945a6.3,6.3,0,0,1,6.27-6.948h72.964a6.3,6.3,0,0,1,6.27,6.948l-8.845,85.945A6.3,6.3,0,0,1,833.973,562.144Z" fill="#fee6bc" class="colorfebccc svgShape"></path>
  <polygon points="765.767 485.836 847.514 485.836 845.542 504.996 767.13 504.996 765.767 485.836" fill="#fffcf2" class="colorffffff svgShape"></polygon>
  <path d="M490.074,549.287H675.646a0,0,0,0,1,0,0v12.857a0,0,0,0,1,0,0H490.074a6.429,6.429,0,0,1-6.429-6.429v0A6.429,6.429,0,0,1,490.074,549.287Z" fill="#c0a372" class="color7287c0 svgShape"></path>
  <path d="M766.837,562.144H611.232a9.64,9.64,0,0,1-9.3-12.164l29.4-108.328a9.639,9.639,0,0,1,9.3-7.115H796.238a9.64,9.64,0,0,1,9.3,12.165L776.14,555.03A9.64,9.64,0,0,1,766.837,562.144Z" fill="#c0a372" class="color7287c0 svgShape"></path>
  <path d="M776.837,562.144H621.232a9.64,9.64,0,0,1-9.3-12.164l29.4-108.328a9.639,9.639,0,0,1,9.3-7.115H806.238a9.64,9.64,0,0,1,9.3,12.165L786.14,555.03A9.64,9.64,0,0,1,776.837,562.144Z" fill="#e2c79a" class="color9aade2 svgShape"></path>
  <circle cx="718.195" cy="498.341" r="17.96" fill="#fffcf2" class="colorffffff svgShape"></circle>
  <path d="M170.66,395.642l-.792-4.088c38.046-7.366,64.546-16.4,79.463-23.63a30.652,30.652,0,0,1-9.783-11.972c-2.712-5.947-3.581-13.023-2.737-22.268,1.183-12.958,5.206-22.727,11.956-29.037a25.553,25.553,0,0,1,15.156-6.621c6.08-.487,11.54,1.339,15.375,5.145,5.932,5.887,8.057,15,6.317,27.1-1.436,9.983-6.264,16.852-8.858,20.543a69.035,69.035,0,0,1-15.089,14.856q-1.737,1.234-3.869,2.492c9.736,4.661,22.052,5.883,32.56,5.835a303.893,303.893,0,0,0,110.148-21.431l1.543,3.867a305.933,305.933,0,0,1-111.672,21.727c-11.961.057-26.143-1.5-36.965-7.59C235.911,379.55,205.083,388.977,170.66,395.642Zm95.568-93.533a21.544,21.544,0,0,0-14.618,5.58c-5.981,5.591-9.565,14.464-10.653,26.373-.775,8.5-.02,14.9,2.38,20.162a27.173,27.173,0,0,0,10.2,11.551,56.763,56.763,0,0,0,5.724-3.5,65.979,65.979,0,0,0,14.1-13.858c2.393-3.4,6.848-9.743,8.143-18.74,1.542-10.718-.184-18.641-5.129-23.549A14.487,14.487,0,0,0,266.228,302.109Z" fill="#403d39" class="color32477b svgShape"></path>
  <path d="M438.333,349.04c6.3,5.14,35.98,24.425,53.27-33.774.927-3.123-1.473-5.643-5.067-5.483-15.656.693-46.372,4.878-49.574,35.649A4.12,4.12,0,0,0,438.333,349.04Z" fill="#cbac77" class="color77bbcb svgShape"></path>
  <path d="M419.9,352.754l-.6-4.12c.3-.044,30.568-4.62,48.729-21.512l2.836,3.049C451.734,347.961,421.186,352.567,419.9,352.754Z" fill="#a58753" class="color5394a5 svgShape"></path>
  <path d="M773.834,656.392a212.92,212.92,0,0,1-35.174-.945c-6.823-.752-13.966-1.945-19.986-5.561a27.826,27.826,0,0,1-9.581-9.8,115.285,115.285,0,0,1-32.579,10.086c-11.522,1.887-23.338,2.582-34.766,3.254-12.158.715-24.73,1.454-36.855,3.637l-.635-3.57c12.336-2.221,25.017-2.967,37.28-3.688,11.336-.667,23.059-1.356,34.4-3.213a114.444,114.444,0,0,0,31.506-9.76,28.569,28.569,0,0,1-1.81-17.483,28.907,28.907,0,0,1,24.768-22c3.249-.315,5.717.2,7.543,1.575,4.508,3.4,3.388,10.193.279,15.422-5.793,9.744-14.517,17.842-25.936,24.078a24.228,24.228,0,0,0,8.237,8.35c5.125,3.079,11.114,4.254,18.53,5.07a209.275,209.275,0,0,0,50.8-.613l.478,3.6Q782.116,655.929,773.834,656.392Zm-42.4-55.489q-.333.018-.685.053a25.206,25.206,0,0,0-21.6,19.183,24.891,24.891,0,0,0,1.485,15.03c9.48-5.181,18.413-12.462,24.493-22.688,2.205-3.708,3.351-8.625.654-10.658A6.514,6.514,0,0,0,731.431,600.9Z" fill="#403d39" class="color32477b svgShape"></path>
  <path d="M818.325,653.119c5.4,4.7,23.582,17.562,53.126-21.9,2.379-3.178,2.165-6.819-.567-7.758-13.291-4.566-48.627-11.446-53.809,26.348A3.769,3.769,0,0,0,818.325,653.119Z" fill="#cbac77" class="color77bbcb svgShape"></path>
  <path d="M804.962,653.632c-3.538.2-5.816.18-6.147.176l.041-3.626c.3,0,30.458.2,49.353-11.873l1.933,3.062C835.468,650.749,815.072,653.066,804.962,653.632Z" fill="#a58753" class="color5394a5 svgShape"></path>
</svg>
